<?xml version="1.0" encoding="utf-8"?>
<!-- Generator: Adobe Illustrator 16.0.4, SVG Export Plug-In . SVG Version: 6.00 Build 0)  -->
<!DOCTYPE svg PUBLIC "-//W3C//DTD SVG 1.1//EN" "http://www.w3.org/Graphics/SVG/1.1/DTD/svg11.dtd">
<svg version="1.1"
	 id="svg2383" xmlns:inkscape="http://www.inkscape.org/namespaces/inkscape" xmlns:sodipodi="http://sodipodi.sourceforge.net/DTD/sodipodi-0.dtd" xmlns:svg="http://www.w3.org/2000/svg" xmlns:rdf="http://www.w3.org/1999/02/22-rdf-syntax-ns#" xmlns:cc="http://creativecommons.org/ns#" xmlns:dc="http://purl.org/dc/elements/1.1/" inkscape:export-filename="D:\Images\Race Tracks\Mugello Racing Circuit track map.png" sodipodi:docname="Mugello Racing Circuit track map.svg" inkscape:output_extension="org.inkscape.output.svg.inkscape" sodipodi:version="0.32" inkscape:export-xdpi="90.015755" inkscape:export-ydpi="90.015755" inkscape:version="0.46"
	 xmlns="http://www.w3.org/2000/svg" xmlns:xlink="http://www.w3.org/1999/xlink" x="0px" y="0px" width="1391.037px"
	 height="871.234px" viewBox="0 0 1391.037 871.234" enable-background="new 0 0 1391.037 871.234" xml:space="preserve">
<path id="track" sodipodi:nodetypes="cssssssssssssssssssssssssssssssssssssssssssssssss" fill="none" stroke="#000000" stroke-width="10" stroke-linejoin="round" d="
	M384.587,249.528c-18.425-5.771-36.896-11.448-55.083-17.918c-27.827-9.9-54.911-21.785-82.293-32.851
	c-25.711-10.392-51.23-21.279-76.983-31.524c-14.288-5.684-28.959-10.572-43.801-14.601c-31.614-8.581-63.846-15.096-94.57-25.219
	c-7.546-2.486-17.439-7.214-20.241-14.269C8.643,105.664,3.96,96.036,6.97,88.26c2.922-7.548,9.264-15.854,16.591-18.914
	c10.148-4.239,21.948-4.325,33.846-3.65c19.293,1.094,37.476,8.397,55.747,6.968c7.169-0.561,14.426-7.752,18.25-13.937
	c6.573-10.628,9.442-24.652,15.928-35.505c4.354-7.286,11.31-13.363,18.914-16.26c6.333-2.412,19.333-0.129,29.201,4.978
	c56.217,29.092,98.291,52.676,161.931,84.284c37.138,18.445,55.229-44.26,92.58-18.25c43.919,30.584,89.435,60.508,137.044,92.58
	c9.944,6.699,10.904,21.958,11.614,33.846c2.45,41.383,4.464,66.871,38.493,74.329c17.291,3.79,58.918,13.272,92.579,21.569
	c12.024,2.963,22.578,11.49,29.532,20.905c7.425,10.053,11.703,25.615,10.95,38.493c-1.238,21.189-8.622,42.773-15.265,63.71
	c-3.534,11.141-7.997,22.986-15.264,31.191c-6.448,7.279-23.313,14.311-33.515,13.937c-53.95-1.976-104.598-4.262-156.953-6.637
	c-6.181-0.28-13.34-4.839-17.918-8.959c-4.271-3.844-6.671-9.306-7.632-14.932c-2.542-14.893-3.145-33.253-8.959-47.12
	c-2.812-6.707-10.479-13.049-17.918-14.6c-60.475-12.607-124.923-15.851-185.821-27.874c-7.458-1.471-14.778-6.821-19.246-12.608
	c-5.266-6.821-7.963-16.528-7.963-24.887c0-7.791,5.561-18.368,11.282-23.56c6.225-5.649,13.726-8.902,22.564-9.291
	c11.292-0.497,22.738,2.876,33.181,7.632c14.333,6.527,27.322,18.186,41.147,26.214c6.748,3.918,14.263,8.183,21.9,8.627
	c15.147,0.883,31.494-6.42,46.455-4.645c11.143,1.322,21.79,8.213,31.855,13.936c57.627,32.769,112.907,71.712,171.222,101.539
	c9.156,4.683,21.864,4.801,31.191,1.992c9.033-2.721,16.801-11.685,21.899-19.578c4.192-6.486,5.767-16.431,5.642-24.555
	c-0.096-6.255-3.049-13.004-6.305-18.25c-4.707-7.584-9.599-14.406-17.255-19.246c-11.589-7.327-25.214-12.269-38.492-16.591
	C568.644,305.394,476.328,278.266,384.587,249.528z"/>
</svg>
