<?xml version="1.0" encoding="utf-8"?>
<!-- Generator: Adobe Illustrator 16.0.4, SVG Export Plug-In . SVG Version: 6.00 Build 0)  -->
<!DOCTYPE svg PUBLIC "-//W3C//DTD SVG 1.1//EN" "http://www.w3.org/Graphics/SVG/1.1/DTD/svg11.dtd">
<svg version="1.1"
	 id="tracksvg" xmlns:dc="http://purl.org/dc/elements/1.1/" xmlns:cc="http://creativecommons.org/ns#" xmlns:rdf="http://www.w3.org/1999/02/22-rdf-syntax-ns#" xmlns:svg="http://www.w3.org/2000/svg" xmlns:sodipodi="http://sodipodi.sourceforge.net/DTD/sodipodi-0.dtd" xmlns:inkscape="http://www.inkscape.org/namespaces/inkscape" sodipodi:docname="Marina_bay_circuit.svg" inkscape:version="0.91 r13725"
	 xmlns="http://www.w3.org/2000/svg" xmlns:xlink="http://www.w3.org/1999/xlink" x="0px" y="0px" width="1000px" height="800px"
	 viewBox="0 0 1000 800" enable-background="new 0 0 1000 800" xml:space="preserve">
<path id="background" fill="none" stroke="#000000" stroke-width="2" d="M180.864,712.03c-2.497-0.045-5.326-0.095-9.502-3.15
	c-3.743-2.739-18.986-28.713-25.703-40.347c-5.015-3.981-44.219-35.104-49.354-39.693c-5.896-5.271-10.268-10.149-12.994-14.496
	c-0.428-0.685-0.864-1.322-1.299-1.96c-2.311-3.393-4.931-7.237-6.67-17.288c-1.113-6.423-0.821-12.32-0.609-16.626
	c0.107-2.162,0.236-4.771,0.023-6.025c-0.657-0.15-1.886-0.216-2.753-0.263c-2.223-0.118-4.991-0.266-7.369-1.491
	c-0.726-0.375-1.252-0.628-1.68-0.829c-2.174-1.037-2.607-1.354-7.729-5.639c-3.901-3.263-9.528-8.399-13.635-12.15
	c-2.483-2.267-4.829-4.408-5.368-4.826l-0.108-0.085l-0.101-0.094c-4.838-4.488-7.457-8.125-10.49-12.335
	c-0.719-1-1.466-2.034-2.276-3.127l-0.07-0.102c-5.211-7.632-6.822-14.493-7.783-18.593l-0.088-0.376l0.005-0.386
	c0.037-2.493,2.263-5.926,8.513-14.342c0.982-1.327,1.866-2.514,2.501-3.417c2.609-3.716,9.399-15.222,9.97-16.191l33.443-63.534
	l67.707-130.232l0.205-0.251c0.906-1.109,9.004-10.914,14.243-13.706c5.593-2.978,10.125-3.261,15.468-3.32
	c0.374-0.004,0.746-0.006,1.12-0.006c5.144,0,10.875,0.437,17.923,3.604c7.248,3.261,21.653,16.611,22.262,17.178l0.08,0.073
	l54.671,58.341c0.714,0.307,1.667,0.629,2.227,0.661c0.535-0.357,1.588-1.495,2.378-2.568c1.36-3.238,11.499-27.238,19.57-42.051
	c8.038-14.753,25.244-40.718,32.269-51.196c1.28-1.909,2.44-3.748,3.563-5.526c2.979-4.719,5.55-8.793,8.799-11.683l0.606-0.54
	c3.779-3.373,6.06-5.409,11.412-5.421c4.97,0,11.854,4.231,13.428,5.242L546.612,337.7c0.117,0.062,2.771,1.419,12.743,3.359
	c10.766,2.092,68.067,5.818,68.643,5.855l197.179,8.845c4.832-0.67,13.184-2.23,15.909-3.715c3.719-2.026,9.336-6.358,12.881-10.716
	c3.149-3.87,4.656-7.172,6.202-13.59c1.426-5.918,2.895-12.854,2.273-20.264c-0.654-7.746-1.81-13.774-3.997-23.576
	c-2.467-11.05-5.943-23.52-10.633-38.123c-2.712-8.447-7.113-20.085-11.373-31.342c-3.579-9.459-6.959-18.394-8.927-24.389
	l-1.604-4.868c-2.85-8.624-3.612-10.94-4.772-16.927l-0.229-1.172c-1.146-5.875-1.62-8.308-1.677-18.234
	c-0.055-10.3,1.884-34.344,3.764-43.132c1.547-7.229,2.316-8.529,4.288-10.67c0.26-0.282,0.551-0.595,0.887-0.997
	c2.903-3.495,5.747-4.75,9.391-5.642c1.215-0.298,2.557-0.449,3.987-0.449c3.263,0,6.341,0.762,8.348,1.398
	c3.61,1.147,5.812,2.829,8.611,5.531c1.728,1.67,3.067,3.852,4.484,6.162c1.085,1.769,2.207,3.597,3.509,5.175
	c0.458,0.558,0.921,1.127,1.386,1.702c2.605,3.22,5.303,6.552,9.062,9.163c4.65,3.23,7.114,4.861,12.323,6.622
	c5.1,1.722,11.782,2.865,16.141,3.232c0.822,0.069,1.836,0.104,3.1,0.104c1.035,0,2.102-0.022,3.138-0.043
	c1.028-0.021,2.029-0.041,2.953-0.041c2.145,0,3.498,0.111,4.523,0.37c3.106,0.786,4.254,1.537,5.859,3.823
	c1.419,2.03,1.888,6.254,2.027,8.102l49.12,336.863l-0.005,0.259c-0.003,0.183-0.102,4.536-1.189,9.15
	c-1.113,4.714-3.529,9.107-3.634,9.291l-0.095,0.159c-0.284,0.451-28.563,45.037-30.878,48.923
	c-3.061,5.137-6.125,5.493-10.372,5.984l-0.535,0.062c-0.224,0.026-0.55,0.051-1.419,0.051c-0.002,0-0.004,0-0.006,0
	c-13.736-0.001-144.58-6.352-151.03-7.063c-6.823-0.752-12.716-1.402-18.145-3.516c-5.095-1.984-10.294-4.409-13.83-8.677
	c-3.569-4.316-4.486-8.993-5.46-13.946c-0.569-2.903-0.418-6.256-0.271-9.498c0.117-2.621,0.239-5.333-0.104-7.134
	c-0.155-0.829-0.273-1.542-0.373-2.173c-0.412-2.535-0.498-3.063-2.567-5.364c-2.289-2.543-4.214-2.85-4.294-2.859l-17.818-1.467
	c-0.419-0.021-51.726-2.651-62.286-2.651c-0.723,0-1.083,0.014-1.247,0.021c-1.856,0.565-5.33,2.455-6.978,4.004
	c-1.216,1.146-2.625,3.769-3.208,4.976l-7.309,38.009c-0.298,1.878-1.24,6.696-3.203,8.766c-2.174,2.29-6.266,2.89-7.066,2.984
	l-0.252,0.029l-118.249-4.816l-0.22-0.041c-2.433-0.453-14.768-2.818-18.625-5.224c-3.659-2.282-6.754-5.639-9.197-9.984
	c-2.157-3.84-3.531-11.582-3.679-12.452l-0.042-0.24l-0.375-28.306c0.024-2.028-0.159-4.333-0.389-5.045
	c-0.111-0.107-0.369-0.249-0.625-0.35c-0.558,0.006-1.551,0.014-2.839,0.014c-3.767,0-9.3-0.066-14.266-0.397
	c-7.701-0.505-22.037-1.452-30.407-3.397c-8.285-1.921-18.624-6.648-19.059-6.849l-0.34-0.157l-51.305-40.522l-0.058-0.051
	c-0.366-0.32-36.623-31.947-48.878-40.803c-11.579-8.366-22.727-14.245-23.871-14.841c-0.967-0.407-2.654-0.95-3.566-0.95
	c-0.004,0-0.008,0-0.012,0c-0.528,0.376-1.56,1.679-2.24,2.831c-1.595,3.82-26.676,63.962-33.81,85.254
	c-7.22,21.558-9.665,31.97-12.832,46.56c-2.975,13.714-5.83,36.417-5.859,36.646l-26.996,156.797
	c-0.338,1.606-1.609,7.023-3.752,9.27c-2.048,2.154-5.741,4.668-9.401,4.668L180.864,712.03z"/>
<path id="sector11" fill="none" stroke="#000000" stroke-width="2" d="M370.348,236.692l-11.073-6.122
	c-2.746-1.755-9.507-5.682-15.04-5.682c-6.541,0.015-9.607,2.75-13.491,6.217l-0.601,0.537c-3.579,3.183-6.261,7.431-9.395,12.396
	c-1.103,1.746-2.243,3.551-3.488,5.41c-7.049,10.513-24.316,36.572-32.417,51.441c-7.894,14.487-17.837,37.896-19.555,41.975
	c-0.131,0.168-0.261,0.329-0.388,0.48l-53.941-57.561l-0.157-0.146c-1.566-1.457-15.52-14.326-23.11-17.74
	c-7.586-3.41-13.715-3.879-19.208-3.879c-0.386,0-0.769,0.002-1.155,0.006c-5.577,0.064-10.699,0.385-16.906,3.689
	c-5.664,3.017-13.652,12.598-15.194,14.485l-0.412,0.501L66.968,413.207l-33.41,63.469c-0.63,1.068-7.284,12.339-9.795,15.915
	c-0.597,0.849-1.418,1.954-2.333,3.188l-0.12,0.162c-6.918,9.316-9.081,12.763-9.13,16.164l-0.011,0.771l0.176,0.752
	c1.012,4.315,2.706,11.53,8.275,19.688l0.11,0.154c0.801,1.081,1.541,2.107,2.259,3.106c3.13,4.342,5.832,8.093,10.898,12.793
	l0.2,0.187l0.215,0.166c0.46,0.361,3.059,2.732,5.176,4.667c4.128,3.771,9.782,8.933,13.738,12.238
	c5.163,4.322,5.815,4.837,8.401,6.07c0.404,0.191,0.901,0.429,1.583,0.78c2.919,1.505,6.125,1.701,8.526,1.83
	c-0.024,1.03-0.081,2.165-0.122,3.009c-0.219,4.452-0.521,10.551,0.65,17.314c1.855,10.72,4.803,15.044,7.176,18.528
	c0.41,0.602,0.821,1.2,1.227,1.849c2.881,4.597,7.443,9.7,13.56,15.168c4.835,4.32,38.135,30.795,49.026,39.439
	c14.333,24.801,23.17,38.525,26.267,40.792c4.976,3.642,8.627,3.707,11.297,3.756l0.867,0.016c4.646,0,9.075-2.912,11.668-5.636
	c2.546-2.671,3.943-7.904,4.55-10.786l27.019-156.913l0.021-0.142c0.028-0.229,2.878-22.854,5.812-36.369
	c3.144-14.485,5.571-24.824,12.741-46.231c7.004-20.906,31.676-80.121,33.641-84.829c0.186-0.3,0.386-0.591,0.578-0.85
	c0.361,0.11,0.753,0.246,1.11,0.389c1.689,0.887,12.306,6.551,23.363,14.54"/>
<path id="sector12" fill="none" stroke="#000000" stroke-width="2" d="M302.177,388.351c11.894,8.595,47.143,39.307,48.695,40.662
	l0.064,0.058l51.666,40.807l0.685,0.316c1.127,0.517,11.254,5.104,19.657,7.053c8.633,2.006,23.124,2.959,30.909,3.472
	c5.043,0.335,10.654,0.404,14.473,0.404c0.23,0,0.453,0,0.665-0.001c0.04,0.671,0.063,1.46,0.054,2.291l0.377,28.548l0.084,0.488
	c0.259,1.511,1.671,9.251,4.037,13.459c2.704,4.808,6.157,8.544,10.268,11.106c4.107,2.56,15.154,4.8,19.708,5.645l0.443,0.079
	l118.727,4.841l0.504-0.063c1.384-0.168,6.12-0.948,8.959-3.937c2.479-2.612,3.587-7.657,4.01-10.333l7.228-37.594
	c0.811-1.604,1.813-3.185,2.36-3.702c1.153-1.085,3.848-2.599,5.391-3.167c0.169-0.003,0.393-0.005,0.687-0.005
	c9.553,0,53.17,2.194,61.816,2.633l0.261,0.013l17.534,1.444c0.277,0.093,1.232,0.494,2.458,1.852
	c1.456,1.615,1.456,1.615,1.803,3.766c0.106,0.656,0.229,1.395,0.392,2.261c0.275,1.44,0.155,4.079,0.051,6.409
	c-0.156,3.425-0.317,6.969,0.326,10.246c1.005,5.118,2.044,10.408,6.12,15.337c3.988,4.815,9.616,7.459,15.106,9.597
	c5.816,2.263,11.896,2.936,18.938,3.71c6.464,0.715,137.604,7.081,151.379,7.082c0.978,0,1.42-0.029,1.781-0.07l0.535-0.063
	c4.549-0.527,8.851-1.023,12.701-7.493c2.088-3.504,25.895-41.058,30.646-48.551l0.238-0.378l0.136-0.23
	c0.11-0.197,2.719-4.905,3.944-10.098c1.18-5.003,1.27-9.622,1.272-9.808l0.012-0.518l-7.6-52.124"/>


<path id="sector10" fill="none" stroke="#000000" stroke-width="2" d="M971.674,423.793l-41.542-284.891
	c-0.239-3.041-0.883-7.124-2.58-9.552c-2.043-2.91-3.832-4.093-7.657-5.061c-1.29-0.326-2.873-0.465-5.289-0.465
	c-0.943,0-1.967,0.02-3.017,0.041c-1.017,0.021-2.061,0.042-3.075,0.042c-1.175,0-2.103-0.03-2.836-0.092
	c-4.17-0.352-10.55-1.44-15.401-3.078c-4.815-1.628-7.017-3.085-11.539-6.227c-3.392-2.355-5.943-5.509-8.422-8.573
	c-0.467-0.579-0.934-1.151-1.396-1.712c-1.16-1.41-2.226-3.144-3.253-4.82c-1.458-2.375-2.966-4.831-4.979-6.777
	c-3.068-2.962-5.662-4.938-9.838-6.264c-2.218-0.705-5.629-1.545-9.298-1.545c-1.682,0-3.275,0.182-4.733,0.539
	c-4.146,1.014-7.612,2.538-11.054,6.68c-0.289,0.349-0.543,0.622-0.78,0.878c-2.471,2.683-3.434,4.601-5.05,12.138
	c-1.916,8.947-3.889,33.364-3.833,43.806c0.062,10.22,0.585,12.913,1.735,18.815l0.227,1.17c1.199,6.187,1.979,8.543,4.873,17.312
	l1.604,4.864c1.985,6.048,5.369,14.989,8.948,24.455l0.051,0.134c4.233,11.195,8.612,22.77,11.295,31.124
	c4.657,14.511,8.109,26.891,10.555,37.848c2.156,9.662,3.296,15.591,3.937,23.156c0.581,6.946-0.829,13.589-2.198,19.268
	c-1.439,5.968-2.746,8.853-5.59,12.349c-3.253,4-8.584,8.108-11.948,9.94c-1.952,1.062-9.008,2.538-14.559,3.324l-196.827-8.829
	c-0.574-0.038-57.74-3.763-68.248-5.805c-9.241-1.797-11.808-3.02-11.824-3.024l-177.779-98.265"/>

<path id="sector00" sodipodi:nodetypes="cczzzzzzzzzzzzzzzzzzzzcczcczzzzczcczzzccczcccszcszzczzzcczzczczcczzczcczzcczcczzcczzzzzzzzczc" inkscape:connector-curvature="0" fill="none" stroke="#000000" stroke-width="2" d="
	M965.445,424.484L923.9,139.594c0,0-0.369-5.059-1.477-6.645c-1.113-1.587-1.609-1.964-4.064-2.585
	c-2.454-0.62-8.899,0.058-13.207-0.306c-4.31-0.364-11.366-1.524-16.882-3.386c-5.513-1.864-8.278-3.662-13.106-7.016
	c-4.827-3.354-7.952-7.659-11.077-11.444c-3.122-3.786-5.076-8.491-7.752-11.077c-2.678-2.585-4.461-3.871-7.384-4.8
	c-2.925-0.929-7.158-1.746-10.643-0.892c-3.481,0.852-5.503,1.924-7.726,4.602c-2.228,2.679-2.719,1.907-4.52,10.32
	c-1.801,8.412-3.749,32.201-3.694,42.458c0.062,10.256,0.543,12.082,1.851,18.829c1.307,6.747,2.033,8.484,6.277,21.414
	c4.245,12.93,15.252,40.008,20.307,55.75c5.052,15.741,8.374,27.956,10.706,38.398c2.329,10.443,3.415,16.339,4.062,23.998
	c0.643,7.661-0.804,14.842-2.35,21.26c-1.546,6.419-3.147,10.319-6.816,14.832c-3.671,4.513-9.486,9.133-13.815,11.491
	c-4.326,2.356-17.263,4.106-17.263,4.106l-197.522-8.862c0,0-57.955-3.751-69.04-5.906c-11.085-2.156-13.661-3.692-13.661-3.692
	l-177.289-97.993"/>
<path id="sector02" sodipodi:nodetypes="cczzzzzzzzzzzzzzzzzzzzcczcczzzzczcczzzccczcccszcszzczzzcczzczczcczzczcczzcczcczzcczzzzzzzzczc" inkscape:connector-curvature="0" fill="none" stroke="#000000" stroke-width="2" d="
	M305.846,383.272c12.516,9.043,49.104,40.981,49.104,40.981l50.951,40.244c0,0,10.389,4.772,18.46,6.645
	c8.072,1.874,22.015,2.803,29.906,3.322c7.893,0.522,17.352,0.37,17.352,0.37s2.154,0.492,2.955,2.031
	c0.804,1.539,0.738,6.462,0.738,6.462l0.37,28.059c0,0,1.368,7.969,3.322,11.446c1.956,3.478,4.572,6.647,8.123,8.86
	c3.548,2.212,17.536,4.801,17.536,4.801l117.776,4.799c0,0,3.661-0.442,5.166-2.029c1.508-1.589,2.4-7.201,2.4-7.201l7.384-38.397
	c0,0,1.973-4.308,4.065-6.279c2.09-1.968,6.234-4.189,8.49-4.799c2.254-0.612,64.423,2.584,64.423,2.584l17.907,1.477
	c0,0,3.003,0.243,6.276,3.877c3.271,3.634,2.843,4.587,3.691,9.046c0.849,4.461-0.596,11.697,0.369,16.614
	c0.967,4.916,1.805,8.932,4.801,12.554c2.997,3.621,7.517,5.795,12.552,7.755c5.036,1.96,10.7,2.588,17.354,3.322
	c6.652,0.734,147.24,7.546,151.745,7.016c4.503-0.529,6.216-0.57,8.582-4.539c2.363-3.97,30.923-48.997,30.923-48.997
	s2.296-4.146,3.323-8.491c1.022-4.345,1.108-8.495,1.108-8.495l0,0l-7.555-51.824"/>
<path id="sector01" sodipodi:nodetypes="cczzzzzzzzzzzzzzzzzzzzcczcczzzzczcczzzccczcccszcszzczzzcczzczczcczzczcczzcczcczzcczzzzzzzzczc" inkscape:connector-curvature="0" fill="none" stroke="#000000" stroke-width="2" d="
	M367.808,242.449l-11.745-6.492c0,0-7.425-4.81-11.814-4.801c-4.388,0.01-5.885,1.56-9.942,5.169
	c-4.057,3.609-7.2,9.69-11.842,16.613c-4.642,6.924-23.616,35.342-32.12,50.951c-8.504,15.608-19.568,42.09-19.568,42.09
	s-2.483,3.541-4.245,4.061c-1.763,0.522-4.984-1.108-4.984-1.108l-55.012-58.704c0,0-14.553-13.528-21.414-16.614
	c-6.86-3.084-12.328-3.382-17.722-3.323c-5.394,0.061-9.194,0.378-14.03,2.954s-13.292,12.923-13.292,12.923L72.512,416.127
	l-33.478,63.601c0,0-7.329,12.459-10.145,16.469S18.48,509.7,18.444,512.202c1.028,4.379,2.546,10.549,7.32,17.543
	c4.144,5.591,6.636,9.702,12.38,15.032c1.595,1.238,12.678,11.685,19.092,17.049c6.415,5.366,5.048,4.132,8.836,6.086
	c3.789,1.954,9.753,0.294,11.342,2.612c1.674,3.384-0.939,12.754,1.015,24.041c1.952,11.281,4.863,13.849,7.537,18.118
	c2.675,4.267,7.064,9.027,12.427,13.824c5.364,4.793,49.681,39.945,49.681,39.945s21.461,37.21,25.138,39.9
	c3.678,2.692,5.752,2.492,8.339,2.558c2.587,0.065,5.562-1.911,7.256-3.691c1.696-1.778,2.955-7.756,2.955-7.756l26.953-156.54
	c0,0,2.866-22.909,5.906-36.92c3.042-14.013,5.47-24.641,12.923-46.889c7.453-22.25,33.967-85.654,33.967-85.654
	s2.16-3.796,4.061-4.431c1.901-0.632,5.907,1.108,5.907,1.108s11.853,6.095,24.368,15.138"/>
</svg>
