<?xml version="1.0" encoding="utf-8"?>
<!-- Generator: Adobe Illustrator 16.0.4, SVG Export Plug-In . SVG Version: 6.00 Build 0)  -->
<!DOCTYPE svg PUBLIC "-//W3C//DTD SVG 1.1//EN" "http://www.w3.org/Graphics/SVG/1.1/DTD/svg11.dtd">
<svg version="1.1"
	 id="tracksvg" xmlns:dc="http://purl.org/dc/elements/1.1/" xmlns:cc="http://creativecommons.org/ns#" xmlns:rdf="http://www.w3.org/1999/02/22-rdf-syntax-ns#" xmlns:svg="http://www.w3.org/2000/svg" xmlns:sodipodi="http://sodipodi.sourceforge.net/DTD/sodipodi-0.dtd" xmlns:inkscape="http://www.inkscape.org/namespaces/inkscape" inkscape:export-ydpi="90" inkscape:export-xdpi="90" inkscape:export-filename="E:\Images\Race Tracks\Monte Carlo Formula 1 track map.png" sodipodi:docname="Monte_Carlo_Formula_1_track_map.svg" inkscape:version="0.48.0 r9654"
	 xmlns="http://www.w3.org/2000/svg" xmlns:xlink="http://www.w3.org/1999/xlink" x="0px" y="0px" width="1465.45px"
	 height="996.645px" viewBox="0 0 1465.45 996.645" enable-background="new 0 0 1465.45 996.645" xml:space="preserve">

<title  id="title5624">Track map of the Monte Carlo F1 track</title>



<path id="track" inkscape:connector-curvature="0"  fill="none" stroke="#000000" stroke-width="15.4" d="
	M72.683,317.386c5.858-16.18,17.435-46.349,23.888-59.278c6.454-12.93,4.613-10.417,11.207-19.76
	c6.594-9.342,19.999-24.591,26.248-32.441c6.249-7.85,7.754-9.484,10.027-13.271s5.137-11.363,7.373-14.451
	c2.236-3.088,3.971-4.624,6.193-5.604c2.222-0.979,3.395-0.851,5.603-0.295c2.208,0.556,4.555,2.795,8.848,4.719
	s5.348,2.473,10.617,4.129c5.269,1.656,54.348,12.111,73.139,15.631c18.792,3.519,24.676,3.39,39.52,5.898
	c14.844,2.508,29.445,3.408,46.007,7.667c16.562,4.261,39.508,14.918,53.086,17.695c13.578,2.778,14.104,2.24,26.837,2.655
	c12.733,0.415,36.629-0.742,50.432,0.589c13.803,1.331,21.15,3.963,33.915,7.078c12.766,3.115,28.563,9.75,41.878,11.502
	c13.315,1.751,25.594,0.493,35.98-1.18c10.387-1.673,18.216-4.046,25.363-7.667c7.147-3.622,11.52-8.095,15.631-13.271
	c4.11-5.177,6.578-12.178,7.962-17.99c1.386-5.812,1.683-11.435,1.181-18.58c-0.503-7.146-2.601-13.997-4.719-22.414
	c-2.119-8.417-6.8-16.348-7.668-24.773c-0.867-8.425,0.283-18.125,2.358-24.773c2.077-6.647,6.544-12.281,9.438-15.63
	c2.895-3.35,4.025-5.916,37.159-25.068c33.133-19.152,90.859-48.786,99.978-52.201c9.119-3.415,9.633-3.888,12.975-3.244
	c3.344,0.644,6.029,2.724,8.258,5.014c2.23,2.289,3.561,4.73,4.721,8.257c1.158,3.527,2.104,8.354,1.475,12.682
	c-0.631,4.328-3.984,8.185-5.309,12.387c-1.326,4.201-2.232,7.39-2.656,12.682c-0.422,5.292,0.398,12.433,0.885,18.875
	c0.488,6.442,1.82,15.029,2.066,19.759c0.246,4.73-0.699,6.957-0.295,9.438c0.402,2.481,0.865,3.792,2.357,5.309
	c1.496,1.517,3.973,2.067,5.9,2.064c1.928-0.002,3.385-0.596,5.014-1.77c1.627-1.174,2.547-3.413,3.244-6.193
	c0.695-2.78-0.34-5.398-1.771-10.322c-1.43-4.924-6.244-28.018-6.191-35.979c0.053-7.963,0.73-7.021,2.062-10.027
	c1.334-3.007,2.803-5.978,5.604-7.668c2.803-1.69,5.766-1.408,10.027-1.475s15.336,1.77,15.336,1.77s26.672,6.875,33.031,10.322
	c6.361,3.447,5.404,3.316,6.783,5.603c1.381,2.288,1.508,4.359,1.475,7.079c-0.031,2.719-0.172,3.968-2.064,8.847
	s-10.912,19.464-10.912,19.464l-66.652,92.015c0,0-12.689,18.35-19.463,25.658c-6.773,7.308-11.945,11.942-20.645,18.285
	c-8.701,6.343-20.861,13.359-31.852,18.875c-10.989,5.516-22.379,10.318-33.916,14.157c-11.535,3.838-19.175,6.12-35.095,8.847
	s-41.465,4.672-60.458,5.603c-18.994,0.931-36.92,1.479-53.381,0.295c-16.458-1.185-25.541-2.873-45.121-6.783
	c-19.582-3.91-69.981-18.906-71.961-17.99c-1.98,0.916-2.443,1.079-3.833,2.949c-1.389,1.871-1.939,6.876-3.244,8.553
	s-1.052,1.303-2.949,2.064s-15.84-2.514-20.054-4.718c-4.215-2.205-4.18-3.477-5.899-5.309c-1.718-1.833-2.473-4.124-4.424-5.604
	c-1.95-1.479-51.905-17.105-51.905-17.105l-121.506-35.98c0,0-10.463-2.216-14.156-2.064c-3.693,0.151-4.499,0.366-7.668,1.77
	c-3.169,1.403-10.617,7.373-10.617,7.373s-11.982,11.37-17.99,18.58c-6.007,7.209-12.451,16.842-17.695,24.773
	s-9.197,13.215-11.776,18.538c-2.579,5.322-4.386,13.383-4.862,15.643s-1.646,5.207-1.251,12.805
	c0.395,7.596,4.172,12.037,5.848,16.018c6.151,12.413,6.256,15.866,3.396,28.274c-1.022,4.552-0.8,4.956-3.122,12.424
	c-2.322,7.469-22.443,76.199-22.443,76.199s-1.427,7.093-2.949,8.847c-1.522,1.756-1.81,1.48-4.129,2.065
	c-2.32,0.584-6.92-0.095-9.732,0.295s-4.944,0.297-7.078,1.769c-2.134,1.474-2.95,2.998-4.718,6.783
	c-1.769,3.787-3.419,8.718-4.424,16.221c-1.004,7.503-0.361,19.508,0,28.607c0.362,9.1,0.364,16.65,2.064,25.953
	s5.381,21.861,8.553,29.492s5.91,12.442,9.143,16.515c3.232,4.073,7.132,6.181,9.143,8.258c2.01,2.076,2.293,1.812,3.244,3.834
	c0.951,2.022,1.389,5.227,1.475,8.258c0.084,3.03-0.1,7.513-1.18,9.732c-1.08,2.219-1.285,2.406-3.539,3.538
	c-2.255,1.134-3.191,1.6-10.027,1.476c-6.836-0.125-22.014-4.209-30.376-5.604c-8.362-1.395-15.375-0.927-19.76-2.948
	s-5.227-3.164-6.783-5.898c-1.556-2.735-1.893-6.31-1.769-9.732c0.123-3.422,1.922-7.026,2.654-10.322
	c0.732-3.297,1.835-6.072,1.769-9.438c-0.066-3.364-0.864-4.072-2.359-10.321c-1.496-6.25-4.643-15.643-5.532-24.214
	c-0.889-8.57-1.415-10.081-0.661-24.153s3.017-47.149,5.013-63.112s3.181-20.949,4.719-28.903c1.538-7.952,1.717-8.388,4.129-18.875
	c2.413-10.485,10.49-30.822,16.811-48.956C67.5,334.346,66.824,333.567,72.683,317.386L72.683,317.386z"/>

</svg>
