<?xml version="1.0" encoding="utf-8"?>
<!-- Generator: Adobe Illustrator 16.0.4, SVG Export Plug-In . SVG Version: 6.00 Build 0)  -->
<!DOCTYPE svg PUBLIC "-//W3C//DTD SVG 1.1//EN" "http://www.w3.org/Graphics/SVG/1.1/DTD/svg11.dtd">
<svg version="1.1"
	 id="tracksvg" xmlns:dc="http://purl.org/dc/elements/1.1/" xmlns:cc="http://creativecommons.org/ns#" xmlns:rdf="http://www.w3.org/1999/02/22-rdf-syntax-ns#" xmlns:svg="http://www.w3.org/2000/svg" xmlns:sodipodi="http://sodipodi.sourceforge.net/DTD/sodipodi-0.dtd" xmlns:inkscape="http://www.inkscape.org/namespaces/inkscape" sodipodi:docname="Monte_Carlo_Formula_1_track_map.svg" inkscape:version="0.48.0 r9654" inkscape:export-filename="E:\Images\Race Tracks\Monte Carlo Formula 1 track map.png" inkscape:export-ydpi="90" inkscape:export-xdpi="90"
	 xmlns="http://www.w3.org/2000/svg" xmlns:xlink="http://www.w3.org/1999/xlink" x="0px" y="0px" width="1000px" height="800px"
	 viewBox="-50.596 -91.008 1000 800" enable-background="new -50.596 -91.008 1000 800" xml:space="preserve">
<path id="background" inkscape:connector-curvature="0" fill="none" stroke="#000000" stroke-width="2" d="M83.683,308.386
	c5.858-16.18,17.435-46.349,23.888-59.278c6.454-12.93,4.613-10.417,11.207-19.76c6.594-9.342,19.999-24.591,26.248-32.441
	c6.249-7.85,7.754-9.484,10.027-13.271c2.273-3.787,5.137-11.363,7.373-14.451c2.236-3.088,3.971-4.624,6.193-5.604
	c2.222-0.979,3.395-0.851,5.603-0.295c2.208,0.556,4.555,2.795,8.848,4.719s5.348,2.473,10.617,4.129
	c5.269,1.656,54.348,12.111,73.139,15.631c18.792,3.519,24.676,3.39,39.52,5.898c14.844,2.508,29.445,3.408,46.007,7.667
	c16.562,4.261,39.508,14.918,53.086,17.695c13.578,2.778,14.104,2.24,26.837,2.655c12.729,0.415,36.629-0.742,50.432,0.589
	s21.15,3.963,33.915,7.078c12.766,3.115,28.562,9.75,41.878,11.502c13.315,1.751,25.594,0.493,35.98-1.18
	c10.386-1.673,18.216-4.046,25.359-7.667c7.147-3.622,11.521-8.095,15.631-13.271c4.11-5.177,6.578-12.178,7.962-17.99
	c1.39-5.812,1.687-11.435,1.185-18.58c-0.503-7.146-2.604-13.997-4.719-22.414c-2.119-8.417-6.804-16.348-7.669-24.773
	c-0.866-8.425,0.28-18.125,2.355-24.773c2.077-6.647,6.544-12.281,9.438-15.63c2.895-3.35,4.021-5.916,37.155-25.068
	c33.137-19.152,90.86-48.786,99.979-52.201s9.633-3.888,12.975-3.244c3.35,0.644,6.029,2.724,8.258,5.014
	c2.23,2.289,3.562,4.73,4.727,8.257c1.158,3.527,2.104,8.354,1.475,12.682c-0.631,4.328-3.982,8.185-5.309,12.387
	c-1.326,4.201-2.232,7.39-2.656,12.682c-0.422,5.292,0.398,12.433,0.885,18.875c0.488,6.442,1.82,15.029,2.066,19.759
	s-0.699,6.957-0.295,9.438c0.396,2.481,0.859,3.792,2.354,5.309c1.496,1.517,3.977,2.067,5.9,2.064
	c1.928-0.002,3.385-0.596,5.014-1.77c1.627-1.174,2.547-3.413,3.244-6.193c0.695-2.78-0.34-5.398-1.77-10.322
	c-1.434-4.924-6.244-28.018-6.191-35.979c0.053-7.963,0.729-7.021,2.061-10.027c1.334-3.007,2.805-5.978,5.605-7.668
	c2.803-1.69,5.766-1.408,10.027-1.475c4.262-0.067,15.336,1.77,15.336,1.77s26.672,6.875,33.027,10.322
	c6.361,3.447,5.404,3.316,6.783,5.603c1.381,2.288,1.508,4.359,1.479,7.079c-0.031,2.719-0.174,3.968-2.064,8.847
	s-10.912,19.464-10.912,19.464l-66.648,92.015c0,0-12.689,18.35-19.467,25.658c-6.77,7.308-11.941,11.942-20.645,18.285
	c-8.701,6.343-20.861,13.359-31.854,18.875c-10.986,5.516-22.379,10.318-33.917,14.157c-11.531,3.838-19.175,6.12-35.095,8.847
	s-41.465,4.672-60.458,5.603c-18.994,0.931-36.92,1.479-53.381,0.295c-16.458-1.185-25.541-2.873-45.121-6.783
	c-19.582-3.91-69.979-18.906-71.961-17.99c-1.979,0.916-2.442,1.079-3.833,2.949c-1.389,1.871-1.938,6.876-3.244,8.553
	c-1.305,1.677-1.052,1.303-2.948,2.064c-1.896,0.761-15.841-2.514-20.055-4.718c-4.215-2.205-4.18-3.477-5.899-5.309
	c-1.718-1.833-2.473-4.124-4.424-5.604c-1.95-1.479-51.905-17.105-51.905-17.105l-121.506-35.98c0,0-10.463-2.216-14.156-2.064
	c-3.693,0.151-4.499,0.366-7.668,1.77c-3.169,1.403-10.617,7.373-10.617,7.373s-11.982,11.37-17.99,18.58
	c-6.007,7.209-12.451,16.842-17.695,24.773c-5.244,7.931-9.197,13.215-11.776,18.538c-2.579,5.322-4.386,13.383-4.862,15.643
	c-0.476,2.26-1.646,5.207-1.251,12.805c0.395,7.596,4.172,12.037,5.848,16.018c6.151,12.413,6.256,15.866,3.396,28.274
	c-1.022,4.552-0.8,4.956-3.122,12.424c-2.322,7.469-22.443,76.199-22.443,76.199s-1.427,7.093-2.949,8.847
	c-1.522,1.756-1.81,1.48-4.129,2.065c-2.32,0.584-6.92-0.099-9.732,0.295c-2.812,0.39-4.944,0.297-7.078,1.769
	c-2.134,1.478-2.95,2.998-4.718,6.783c-1.769,3.787-3.419,8.718-4.424,16.221c-1.004,7.503-0.361,19.512,0,28.607
	c0.362,9.1,0.364,16.65,2.064,25.953c1.7,9.303,5.381,21.861,8.553,29.492s5.91,12.438,9.143,16.515
	c3.232,4.073,7.132,6.181,9.143,8.258c2.01,2.076,2.293,1.812,3.244,3.834c0.951,2.022,1.389,5.229,1.475,8.258
	c0.084,3.03-0.1,7.517-1.18,9.732c-1.08,2.218-1.285,2.406-3.539,3.538c-2.255,1.134-3.191,1.6-10.027,1.476
	c-6.836-0.125-22.014-4.209-30.376-5.604c-8.362-1.396-15.375-0.927-19.76-2.948c-4.385-2.021-5.227-3.164-6.783-5.898
	c-1.556-2.731-1.893-6.31-1.769-9.729c0.123-3.422,1.922-7.026,2.654-10.322c0.732-3.297,1.835-6.07,1.769-9.438
	c-0.066-3.364-0.864-4.072-2.359-10.321c-1.496-6.25-4.643-15.643-5.532-24.214c-0.889-8.57-1.415-10.081-0.661-24.153
	c0.754-14.071,3.017-47.146,5.013-63.108c1.996-15.967,3.181-20.949,4.719-28.903c1.538-7.952,1.717-8.388,4.129-18.875
	c2.413-10.485,10.49-30.822,16.811-48.956C78.5,325.346,77.824,324.567,83.683,308.386L83.683,308.386z"/>
<path id="sector12" fill="none" stroke="#000000" stroke-width="2" d="M172.691,231.567c-5.779,6.936-12.062,16.287-17.497,24.507
	c-1.395,2.108-2.698,4.031-3.909,5.817c-3.279,4.835-5.868,8.655-7.67,12.374c-1.925,3.973-3.652,10.33-4.626,14.954
	c-0.083,0.397-0.188,0.814-0.299,1.269c-0.506,2.041-1.199,4.836-0.891,10.762c0.254,4.894,2.141,8.356,3.805,11.412
	c0.656,1.204,1.276,2.342,1.774,3.509c6.535,13.205,6.512,17.529,3.592,30.201c-0.264,1.175-0.444,2.076-0.608,2.896
	c-0.461,2.308-0.826,4.129-2.572,9.745c-2.242,7.211-21.431,72.746-22.393,76.029c-0.497,2.438-1.789,8.007-3.598,10.092
	c-1.705,1.966-2.718,2.354-4.624,2.77c-0.292,0.062-0.63,0.137-1.038,0.238c-0.934,0.235-2.064,0.341-3.665,0.341
	c-0.727,0-1.494-0.021-2.264-0.043c-0.721-0.021-1.445-0.041-2.138-0.041c-0.849,0-1.498,0.032-1.984,0.101
	c-0.616,0.085-1.199,0.149-1.757,0.209c-1.948,0.211-3.013,0.354-4.032,1.058c-1.469,1.018-2.014,1.967-3.703,5.583
	c-2.021,4.327-3.346,9.204-4.169,15.351c-0.869,6.495-0.438,16.916-0.09,25.288l0.114,2.802c0.058,1.442,0.106,2.846,0.153,4.224
	c0.253,7.348,0.472,13.691,1.864,21.311c1.625,8.893,5.225,21.308,8.372,28.88c2.942,7.077,5.551,11.803,8.723,15.802
	c1.824,2.298,3.931,3.927,5.79,5.364c1.169,0.903,2.273,1.757,3.158,2.671c0.571,0.59,0.989,0.972,1.32,1.274
	c1.007,0.922,1.619,1.531,2.483,3.369c1.38,2.936,1.695,7.181,1.759,9.449c0.079,2.859-0.008,8.105-1.482,11.132
	c-1.357,2.787-2.042,3.477-4.89,4.904c-2.436,1.227-3.854,1.814-9.417,1.814c-0.61,0-1.277-0.007-2.011-0.021
	c-4.673-0.086-12.463-1.787-19.996-3.433c-4.055-0.886-7.884-1.724-10.819-2.212c-3.161-0.527-6.21-0.786-8.9-1.016
	c-4.55-0.386-8.479-0.72-11.622-2.168c-4.997-2.303-6.316-3.942-8.135-7.14c-1.625-2.854-2.333-6.558-2.16-11.321
	c0.092-2.57,0.899-5.005,1.68-7.357c0.413-1.246,0.803-2.423,1.044-3.506c0.212-0.955,0.454-1.869,0.691-2.767
	c0.562-2.12,1.046-3.951,1.007-5.962c-0.032-1.662-0.263-2.435-0.819-4.301c-0.364-1.222-0.863-2.896-1.458-5.382
	c-0.406-1.697-0.952-3.687-1.53-5.791c-1.516-5.521-3.402-12.39-4.068-18.812c-0.119-1.147-0.232-2.169-0.335-3.109
	c-0.688-6.243-1.003-9.094-0.337-21.514c0.754-14.08,3.004-47.107,5.032-63.32c1.716-13.728,2.818-19.303,4.094-25.758
	c0.213-1.079,0.431-2.18,0.656-3.344c1.235-6.386,1.593-7.93,2.925-13.675l1.225-5.303c1.694-7.361,6.043-19.271,10.647-31.881
	c2.099-5.749,4.27-11.693,6.255-17.391c3.021-8.679,4.4-13.251,5.733-17.673"/>
<path id="sector02" fill="none" stroke="#000000" stroke-width="2" d="M783.178,13.334c4.844-1.835,6.654-2.521,8.873-2.521
	c0.963,0,1.844,0.144,2.65,0.3c3.467,0.667,6.594,2.531,9.84,5.867c2.461,2.525,4.084,5.34,5.426,9.411
	c0.941,2.869,2.4,8.504,1.594,14.052c-0.438,3.009-1.846,5.613-3.203,8.13c-0.893,1.65-1.732,3.208-2.213,4.728
	c-1.268,4.011-2.127,7.015-2.527,12.019c-0.316,3.977,0.131,9.283,0.562,14.415c0.113,1.346,0.227,2.686,0.324,3.995
	c0.23,3.057,0.658,6.62,1.072,10.066c0.445,3.715,0.867,7.225,0.998,9.763c0.139,2.67-0.066,4.605-0.232,6.161
	c-0.133,1.245-0.229,2.145-0.098,2.951c0.355,2.213,0.662,2.804,1.531,3.688c0.688,0.697,2.193,1.167,3.746,1.167
	c1.189-0.001,2.045-0.316,3.273-1.204c1.178-0.848,1.863-3.589,2.09-4.489c0.381-1.521-0.078-3.173-1.152-6.766
	c-0.186-0.621-0.383-1.282-0.588-1.989c-1.34-4.606-6.365-28.335-6.311-36.836c0.041-6.402,0.49-7.809,1.664-9.934
	c0.217-0.391,0.42-0.76,0.654-1.289c1.51-3.4,3.275-6.897,6.797-9.021c3.096-1.867,6.178-1.878,9.748-1.892
	c0.568-0.002,1.16-0.004,1.781-0.014l0.283-0.002c4.611,0,15.146,1.738,15.592,1.812l0.131,0.021l0.127,0.033
	c1.104,0.284,27.104,7.008,33.711,10.59c5.377,2.914,6.285,3.629,7.477,5.888c0.119,0.228,0.256,0.489,0.445,0.804
	c1.818,3.013,1.939,5.817,1.908,8.662c-0.039,3.287-0.324,4.889-2.27,9.897c-1.967,5.078-10.781,19.352-11.156,19.957l-0.059,0.093
	l-66.713,92.104c-0.484,0.703-12.852,18.558-19.697,25.938c-7.051,7.612-12.369,12.323-21.076,18.669
	c-8.215,5.988-19.979,12.961-32.273,19.132c-11.381,5.715-22.926,10.534-34.315,14.323c-11.059,3.68-18.969,6.12-35.536,8.958
	c-16.045,2.749-41.937,4.717-60.816,5.643c-9.833,0.481-21.417,0.974-32.783,0.974c-7.708,0-14.565-0.224-20.96-0.684
	c-16.918-1.218-26.173-2.975-45.493-6.833c-9.748-1.946-26.942-6.582-42.112-10.671c-11.986-3.232-25.497-6.874-28.588-7.267
	c-1.226,0.571-1.292,0.66-2.1,1.746c-0.368,0.496-0.859,2.25-1.185,3.41c-0.561,2.004-1.091,3.898-2.101,5.195
	c-1.284,1.65-1.753,2.098-3.41,2.706c-0.208,0.076-0.463,0.169-0.788,0.3c-0.558,0.224-1.204,0.328-2.034,0.328
	c-4.042,0-16.163-2.889-20.527-5.172c-3.405-1.781-4.589-3.16-5.783-4.778c-0.303-0.41-0.564-0.765-0.914-1.137
	c-0.911-0.972-1.573-1.994-2.156-2.896c-0.598-0.924-1.119-1.729-1.766-2.268c-3.201-1.543-32.903-11.037-51.115-16.733
	l-121.348-35.933c-2.732-0.575-10.062-1.982-13.029-1.982c-0.094,0-0.183,0.001-0.267,0.005c-3.364,0.137-3.784,0.278-6.576,1.515
	c-2.022,0.896-7.071,4.666-9.857,6.892c-1.108,1.056-12.105,11.571-17.661,18.238"/>
<path id="sector10" fill="none" stroke="#000000" stroke-width="2" d="M75.083,324.832c1.396-4.629,2.714-9.002,5.779-17.467
	c5.842-16.136,17.53-46.584,24.024-59.596c1.488-2.981,2.534-5.138,3.343-6.807c2.809-5.796,3.036-6.17,8.098-13.343
	c4.426-6.271,11.692-14.945,18.103-22.6c3.163-3.776,6.15-7.343,8.25-9.98c1.266-1.59,2.337-2.925,3.26-4.076
	c3.615-4.506,4.833-6.023,6.542-8.871c0.93-1.549,2.048-3.963,3.13-6.298c1.53-3.301,2.975-6.42,4.385-8.368
	c2.509-3.465,4.657-5.375,7.413-6.589c1.538-0.678,2.82-0.98,4.157-0.98c1.101,0,2.112,0.2,3.389,0.521
	c1.583,0.398,2.977,1.265,4.59,2.268c1.331,0.828,2.839,1.765,4.751,2.622l1.142,0.513c3.309,1.489,4.546,2.046,9.147,3.492
	c4.916,1.545,53.897,12.005,72.792,15.544c10.674,1.999,17.203,2.817,23.516,3.609c4.693,0.588,9.546,1.197,15.952,2.279
	c4.952,0.836,9.789,1.48,14.909,2.163c9.927,1.322,20.192,2.689,31.345,5.557c8.069,2.076,17.542,5.61,26.703,9.028
	c9.965,3.718,19.377,7.23,26.237,8.632c10.839,2.218,13.057,2.269,20.405,2.438c1.671,0.039,3.596,0.083,5.929,0.159
	c1.933,0.063,4.286,0.094,7.194,0.094c3.332,0,6.998-0.039,10.802-0.08c4.129-0.044,8.397-0.09,12.597-0.09
	c8.876,0,15.24,0.215,20.029,0.677c10.758,1.037,17.838,2.888,26.036,5.031c2.6,0.68,5.29,1.383,8.302,2.118
	c5.006,1.222,10.317,2.925,15.94,4.728c8.692,2.788,17.683,5.67,25.616,6.714c4.131,0.543,8.451,0.819,12.838,0.819
	c8.91,0,16.979-1.133,22.274-1.986c10.055-1.62,17.605-3.896,24.481-7.381c6.59-3.339,10.616-7.396,14.638-12.46
	c4-5.038,6.228-11.927,7.393-16.819c1.273-5.331,1.605-10.616,1.109-17.675c-0.388-5.511-1.8-10.94-3.436-17.228
	c-0.393-1.507-0.796-3.058-1.2-4.665c-0.818-3.25-2.091-6.558-3.323-9.758c-1.901-4.939-3.866-10.047-4.421-15.44
	c-0.848-8.243,0.125-18.438,2.477-25.974c1.678-5.365,4.958-10.827,10.033-16.698l0.469-0.551
	c2.845-3.366,5.786-6.847,37.455-25.152c33.479-19.35,91.045-48.899,100.43-52.414c1.152-0.432,2.17-0.817,3.068-1.158"/>
<path id="sector11" fill="none" stroke="#000000" stroke-width="2" d="M168.082,227.727c-5.976,7.171-12.369,16.685-17.893,25.039
	c-1.38,2.087-2.671,3.991-3.87,5.759c-3.415,5.037-6.112,9.015-8.104,13.125c-2.72,5.614-4.589,13.92-5.098,16.333
	c-0.07,0.333-0.157,0.682-0.252,1.062c-0.563,2.271-1.414,5.701-1.06,12.519c0.326,6.255,2.656,10.532,4.528,13.97
	c0.598,1.098,1.164,2.135,1.551,3.056l0.077,0.167c5.862,11.831,5.857,14.571,3.161,26.27c-0.284,1.264-0.473,2.207-0.645,3.065
	c-0.444,2.22-0.766,3.823-2.419,9.142c-2.303,7.406-21.636,73.438-22.458,76.247l-0.036,0.124l-0.025,0.127
	c-0.655,3.245-1.725,6.746-2.291,7.492c-0.448,0.517-0.61,0.635-0.638,0.652c-0.068,0.025-0.426,0.104-0.713,0.166
	c-0.345,0.075-0.747,0.163-1.229,0.285c-0.415,0.104-1.155,0.158-2.198,0.158c-0.672,0-1.382-0.021-2.096-0.041
	c-0.777-0.021-1.559-0.043-2.306-0.043c-1.145,0-2.039,0.05-2.813,0.157c-0.549,0.076-1.073,0.133-1.575,0.188
	c-2.2,0.238-4.475,0.485-6.792,2.083c-2.83,1.958-3.912,4.084-5.733,7.983c-2.286,4.895-3.773,10.325-4.68,17.092
	c-0.938,7.017-0.495,17.727-0.138,26.334l0.114,2.791c0.057,1.432,0.105,2.823,0.152,4.19c0.25,7.269,0.487,14.133,1.958,22.183
	c1.719,9.403,5.392,22.064,8.734,30.104c3.167,7.618,6.026,12.771,9.563,17.229c2.277,2.87,4.796,4.816,6.82,6.383
	c1.037,0.801,1.932,1.493,2.517,2.098c0.685,0.706,1.185,1.165,1.582,1.527c0.676,0.618,0.702,0.643,1.104,1.496
	c0.66,1.403,1.105,4.046,1.191,7.065c0.101,3.639-0.261,7.065-0.878,8.333c-0.691,1.42-0.691,1.42-2.188,2.172
	c-1.75,0.881-2.339,1.177-6.724,1.177c-0.577,0-1.208-0.008-1.902-0.021c-4.081-0.074-11.914-1.785-18.825-3.295
	c-4.129-0.901-8.03-1.754-11.112-2.268c-3.399-0.567-6.577-0.837-9.38-1.075c-3.987-0.338-7.431-0.63-9.618-1.639
	c-3.77-1.736-4.155-2.414-5.432-4.658c-1.044-1.833-1.508-4.57-1.378-8.138c0.062-1.715,0.701-3.645,1.379-5.688
	c0.442-1.333,0.899-2.712,1.206-4.093c0.194-0.875,0.417-1.71,0.634-2.53c0.62-2.343,1.262-4.765,1.206-7.617
	c-0.048-2.476-0.454-3.836-1.068-5.896c-0.363-1.221-0.815-2.737-1.373-5.064c-0.429-1.794-0.988-3.829-1.58-5.982
	c-1.533-5.584-3.271-11.911-3.886-17.843c-0.121-1.162-0.234-2.195-0.339-3.147c-0.652-5.908-0.949-8.604-0.31-20.535
	c0.727-13.567,3.01-47.029,4.994-62.897c1.689-13.516,2.773-18.993,4.027-25.337c0.215-1.088,0.434-2.195,0.661-3.369
	c1.214-6.276,1.567-7.798,2.879-13.458l1.228-5.312c1.61-6.998,5.897-18.738,10.435-31.168c2.106-5.77,4.285-11.735,6.285-17.473
	c3.063-8.802,4.524-13.644,5.812-17.916"/>
<path id="sector01" fill="none" stroke="#000000" stroke-width="2" d="M785.305,18.944c3.979-1.508,5.627-2.132,6.746-2.132
	c0.371,0,0.812,0.056,1.518,0.191c2.203,0.424,4.324,1.746,6.676,4.16c1.832,1.88,2.959,3.872,4.023,7.104
	c0.625,1.901,2.01,6.816,1.355,11.311c-0.285,1.956-1.385,3.99-2.547,6.143c-0.984,1.824-2.004,3.709-2.654,5.773
	c-1.348,4.268-2.336,7.723-2.785,13.346c-0.355,4.468,0.111,10.024,0.562,15.396c0.111,1.329,0.223,2.651,0.32,3.944
	c0.24,3.189,0.678,6.818,1.098,10.329c0.434,3.612,0.844,7.024,0.965,9.36c0.113,2.196-0.057,3.799-0.207,5.214
	c-0.162,1.516-0.314,2.947-0.053,4.551c0.459,2.867,1.104,4.823,3.176,6.93c2.709,2.747,6.826,2.96,8.023,2.96
	c2.459-0.002,4.545-0.723,6.781-2.336c2.619-1.889,3.729-5.212,4.4-7.896c0.797-3.185-0.051-6.021-1.223-9.944
	c-0.184-0.606-0.375-1.252-0.576-1.944c-1.465-5.042-6.121-27.624-6.072-35.123c0.037-5.479,0.33-6.011,0.916-7.07
	c0.244-0.442,0.549-0.992,0.891-1.762c1.211-2.729,2.379-5.089,4.41-6.314c1.602-0.965,3.389-1.017,6.67-1.029
	c0.592-0.002,1.209-0.005,1.855-0.015l0.188-0.001c3.871,0,13.271,1.513,14.48,1.71c7.426,1.918,27.301,7.354,32.219,10.021
	c4.521,2.45,4.65,2.692,5.027,3.411c0.166,0.313,0.355,0.671,0.617,1.104c0.938,1.553,1.074,2.892,1.045,5.496
	c-0.025,2.248-0.035,3.089-1.861,7.796c-1.457,3.761-8.094,14.807-10.607,18.877l-66.586,91.927
	c-0.162,0.235-12.684,18.312-19.236,25.378c-6.756,7.294-11.855,11.811-20.211,17.9c-7.844,5.717-19.594,12.677-31.432,18.618
	c-11.126,5.586-22.401,10.293-33.518,13.992c-10.79,3.591-18.506,5.971-34.654,8.737c-15.783,2.704-41.393,4.646-60.099,5.563
	c-9.761,0.479-21.253,0.967-32.489,0.967c-7.562,0-14.279-0.218-20.53-0.668c-16.558-1.192-25.685-2.926-44.749-6.733
	c-9.553-1.907-26.645-6.515-41.725-10.581c-19.787-5.334-28.088-7.507-30.523-7.507c-0.587,0-1.097,0.104-1.559,0.317l-0.228,0.105
	c-2.107,0.973-3.031,1.46-4.755,3.776c-1.032,1.392-1.599,3.416-2.146,5.375c-0.283,1.01-0.755,2.7-1.063,3.135
	c-0.151,0.195-0.389,0.499-0.539,0.679c-0.058,0.021-0.123,0.044-0.194,0.07c-0.194,0.071-0.421,0.155-0.695,0.261
	c-0.02,0-0.041,0-0.062,0c-3.155,0-14.295-2.683-17.748-4.489c-2.449-1.281-2.989-2.012-3.736-3.024
	c-0.363-0.492-0.774-1.049-1.365-1.679c-0.542-0.578-1.004-1.293-1.495-2.051c-0.824-1.274-1.758-2.718-3.305-3.891
	c-1.571-1.191-19.343-7.105-52.822-17.578l-121.664-36.027l-0.116-0.025c-1.032-0.218-10.207-2.136-14.388-2.136
	c-0.181,0-0.352,0.003-0.514,0.01c-4.012,0.164-5.159,0.429-8.76,2.025c-3.426,1.517-10.484,7.139-11.278,7.775l-0.098,0.079
	l-0.091,0.086c-0.495,0.469-12.179,11.574-18.23,18.835"/>
<path id="sector00" fill="none" stroke="#000000" stroke-width="2" d="M80.828,326.564c1.431-4.747,2.667-8.847,5.676-17.157
	c5.796-16.01,17.37-46.174,23.751-58.959c1.502-3.009,2.557-5.186,3.374-6.87c2.625-5.418,2.676-5.521,7.601-12.5
	c4.283-6.068,11.464-14.642,17.8-22.207c3.187-3.806,6.198-7.4,8.344-10.095c1.26-1.583,2.327-2.913,3.246-4.059
	c3.702-4.615,5.087-6.341,7.006-9.538c1.094-1.823,2.229-4.271,3.43-6.864c1.342-2.897,2.73-5.894,3.8-7.372
	c2.149-2.967,3.497-3.967,4.974-4.618c0.937-0.413,1.388-0.47,1.736-0.47c0.481,0,1.092,0.13,1.924,0.339
	c0.676,0.17,1.701,0.807,2.888,1.545c1.418,0.881,3.184,1.979,5.465,3.002l1.134,0.509c3.445,1.55,4.871,2.191,9.811,3.744
	c5.564,1.75,55.479,12.345,73.486,15.718c10.853,2.032,17.472,2.862,23.874,3.665c4.844,0.607,9.419,1.181,15.698,2.242
	c5.056,0.854,10.171,1.535,15.117,2.194c9.752,1.299,19.837,2.642,30.643,5.42c7.762,1.997,17.084,5.476,26.1,8.839
	c10.19,3.802,19.814,7.393,27.132,8.889c11.366,2.326,13.912,2.384,21.47,2.558c1.655,0.038,3.562,0.082,5.871,0.157
	c1.999,0.065,4.416,0.097,7.391,0.097c3.352,0,7.04-0.039,10.865-0.08c4.113-0.044,8.366-0.089,12.533-0.089
	c8.679,0,14.86,0.207,19.453,0.649c10.281,0.991,16.818,2.7,25.094,4.864c2.624,0.686,5.337,1.395,8.397,2.142
	c4.799,1.171,10.012,2.842,15.531,4.612c8.945,2.869,18.196,5.835,26.667,6.949c4.39,0.578,8.973,0.87,13.62,0.87
	c7.109,0,14.49-0.655,23.229-2.062c10.693-1.723,18.786-4.175,26.239-7.953c8.007-4.057,12.722-9.166,16.625-14.082
	c4.685-5.9,7.225-13.676,8.53-19.16c1.423-5.954,1.8-11.782,1.259-19.485c-0.428-6.065-1.904-11.743-3.615-18.318
	c-0.388-1.491-0.787-3.026-1.188-4.617c-0.906-3.604-2.247-7.084-3.542-10.45c-1.841-4.783-3.578-9.301-4.052-13.898
	c-0.771-7.498,0.106-16.751,2.236-23.572c2.119-6.781,7.181-12.638,8.845-14.562l0.513-0.602c2.396-2.834,5.11-6.048,35.875-23.83
	c32.544-18.81,90.537-48.621,99.529-51.989c1.164-0.436,2.188-0.823,3.094-1.167"/>
</svg>
