<?xml version="1.0" encoding="utf-8"?>
<!-- Generator: Adobe Illustrator 16.0.4, SVG Export Plug-In . SVG Version: 6.00 Build 0)  -->
<!DOCTYPE svg PUBLIC "-//W3C//DTD SVG 1.1//EN" "http://www.w3.org/Graphics/SVG/1.1/DTD/svg11.dtd">
<svg version="1.1"
	 id="tracksvg" xmlns:dc="http://purl.org/dc/elements/1.1/" xmlns:cc="http://creativecommons.org/ns#" xmlns:rdf="http://www.w3.org/1999/02/22-rdf-syntax-ns#" xmlns:svg="http://www.w3.org/2000/svg" xmlns:sodipodi="http://sodipodi.sourceforge.net/DTD/sodipodi-0.dtd" xmlns:inkscape="http://www.inkscape.org/namespaces/inkscape" inkscape:export-ydpi="90" inkscape:export-xdpi="90" inkscape:export-filename="E:\Images\Race Tracks\Monte Carlo Formula 1 track map.png" sodipodi:docname="Monte_Carlo_Formula_1_track_map.svg" inkscape:version="0.48.0 r9654"
	 xmlns="http://www.w3.org/2000/svg" xmlns:xlink="http://www.w3.org/1999/xlink" x="0px" y="0px" width="1465.45px"
	 height="996.645px" viewBox="0 0 1465.45 996.645" enable-background="new 0 0 1465.45 996.645" xml:space="preserve">
<path id="background" inkscape:connector-curvature="0" fill="none" stroke="#000000" stroke-width="2" d="M72.683,317.386
	c5.858-16.18,17.435-46.349,23.888-59.278c6.454-12.93,4.613-10.417,11.207-19.76c6.594-9.342,19.999-24.591,26.248-32.441
	c6.249-7.85,7.754-9.484,10.027-13.271c2.273-3.787,5.137-11.363,7.373-14.451c2.236-3.088,3.971-4.624,6.193-5.604
	c2.222-0.979,3.395-0.851,5.603-0.295c2.208,0.556,4.555,2.795,8.848,4.719s5.348,2.473,10.617,4.129
	c5.269,1.656,54.348,12.111,73.139,15.631c18.792,3.519,24.676,3.39,39.52,5.898c14.844,2.508,29.445,3.408,46.007,7.667
	c16.562,4.261,39.508,14.918,53.086,17.695c13.578,2.778,14.104,2.24,26.837,2.655c12.731,0.415,36.629-0.742,50.432,0.589
	s21.15,3.963,33.915,7.078c12.766,3.115,28.562,9.75,41.878,11.502c13.315,1.751,25.594,0.493,35.98-1.18
	c10.386-1.673,18.216-4.046,25.361-7.667c7.147-3.622,11.521-8.095,15.631-13.271c4.11-5.177,6.578-12.178,7.962-17.99
	c1.388-5.812,1.685-11.435,1.183-18.58c-0.503-7.146-2.603-13.997-4.719-22.414c-2.119-8.417-6.802-16.348-7.669-24.773
	c-0.866-8.425,0.282-18.125,2.357-24.773c2.077-6.647,6.544-12.281,9.438-15.63c2.895-3.35,4.023-5.916,37.157-25.068
	c33.135-19.152,90.86-48.786,99.979-52.201s9.633-3.888,12.975-3.244c3.346,0.644,6.029,2.724,8.258,5.014
	c2.23,2.289,3.562,4.73,4.723,8.257c1.158,3.527,2.104,8.354,1.475,12.682c-0.631,4.328-3.982,8.185-5.309,12.387
	c-1.326,4.201-2.232,7.39-2.656,12.682c-0.422,5.292,0.398,12.433,0.885,18.875c0.488,6.442,1.82,15.029,2.066,19.759
	s-0.699,6.957-0.295,9.438c0.4,2.481,0.863,3.792,2.355,5.309c1.496,1.517,3.975,2.067,5.9,2.064
	c1.928-0.002,3.385-0.596,5.014-1.77c1.627-1.174,2.547-3.413,3.244-6.193c0.695-2.78-0.34-5.398-1.77-10.322
	c-1.432-4.924-6.244-28.018-6.191-35.979c0.053-7.963,0.73-7.021,2.062-10.027c1.334-3.007,2.803-5.978,5.604-7.668
	c2.803-1.69,5.766-1.408,10.027-1.475c4.262-0.067,15.336,1.77,15.336,1.77s26.672,6.875,33.029,10.322
	c6.361,3.447,5.404,3.316,6.783,5.603c1.381,2.288,1.508,4.359,1.477,7.079c-0.031,2.719-0.172,3.968-2.064,8.847
	c-1.891,4.879-10.912,19.464-10.912,19.464l-66.65,92.015c0,0-12.689,18.35-19.465,25.658c-6.771,7.308-11.943,11.942-20.645,18.285
	c-8.701,6.343-20.861,13.359-31.853,18.875c-10.987,5.516-22.379,10.318-33.916,14.157c-11.533,3.838-19.175,6.12-35.095,8.847
	s-41.465,4.672-60.458,5.603c-18.994,0.931-36.92,1.479-53.381,0.295c-16.458-1.185-25.541-2.873-45.121-6.783
	c-19.582-3.91-69.979-18.906-71.961-17.99c-1.979,0.916-2.442,1.079-3.833,2.949c-1.389,1.871-1.938,6.876-3.244,8.553
	c-1.305,1.677-1.052,1.303-2.948,2.064s-15.841-2.514-20.055-4.718c-4.215-2.205-4.18-3.477-5.899-5.309
	c-1.718-1.833-2.473-4.124-4.424-5.604c-1.95-1.479-51.905-17.105-51.905-17.105l-121.506-35.98c0,0-10.463-2.216-14.156-2.064
	c-3.693,0.151-4.499,0.366-7.668,1.77c-3.169,1.403-10.617,7.373-10.617,7.373s-11.982,11.37-17.99,18.58
	c-6.007,7.209-12.451,16.842-17.695,24.773c-5.244,7.931-9.197,13.215-11.776,18.538c-2.579,5.322-4.386,13.383-4.862,15.643
	c-0.476,2.26-1.646,5.207-1.251,12.805c0.395,7.596,4.172,12.037,5.848,16.018c6.151,12.413,6.256,15.866,3.396,28.274
	c-1.022,4.552-0.8,4.956-3.122,12.424c-2.322,7.469-22.443,76.199-22.443,76.199s-1.427,7.093-2.949,8.847
	c-1.522,1.756-1.81,1.48-4.129,2.065c-2.32,0.584-6.92-0.097-9.732,0.295c-2.812,0.39-4.944,0.297-7.078,1.769
	c-2.134,1.476-2.95,2.998-4.718,6.783c-1.769,3.787-3.419,8.718-4.424,16.221c-1.004,7.503-0.361,19.51,0,28.607
	c0.362,9.1,0.364,16.65,2.064,25.953c1.7,9.303,5.381,21.861,8.553,29.492s5.91,12.44,9.143,16.515
	c3.232,4.073,7.132,6.181,9.143,8.258c2.01,2.076,2.293,1.812,3.244,3.834c0.951,2.022,1.389,5.229,1.475,8.258
	c0.084,3.03-0.1,7.515-1.18,9.732c-1.08,2.218-1.285,2.406-3.539,3.538c-2.255,1.134-3.191,1.6-10.027,1.476
	c-6.836-0.125-22.014-4.209-30.376-5.604c-8.362-1.396-15.375-0.927-19.76-2.948c-4.385-2.021-5.227-3.164-6.783-5.898
	c-1.556-2.733-1.893-6.31-1.769-9.73c0.123-3.422,1.922-7.026,2.654-10.322c0.732-3.297,1.835-6.072,1.769-9.438
	c-0.066-3.364-0.864-4.072-2.359-10.321c-1.496-6.25-4.643-15.643-5.532-24.214c-0.889-8.57-1.415-10.081-0.661-24.153
	s3.017-47.147,5.013-63.11c1.996-15.965,3.181-20.949,4.719-28.903c1.538-7.952,1.717-8.388,4.129-18.875
	c2.413-10.485,10.49-30.822,16.811-48.956C67.5,334.346,66.824,333.567,72.683,317.386L72.683,317.386z"/>
<path id="sector12" fill="none" stroke="#696969" stroke-width="2" d="M161.695,240.567c-5.775,6.93-12.06,16.284-17.498,24.507
	c-1.395,2.11-2.699,4.034-3.911,5.821c-3.277,4.833-5.866,8.652-7.667,12.37c-1.925,3.973-3.652,10.329-4.626,14.953
	c-0.083,0.397-0.187,0.814-0.299,1.269c-0.506,2.041-1.2,4.836-0.892,10.762c0.254,4.893,2.141,8.356,3.805,11.411
	c0.656,1.204,1.276,2.342,1.774,3.509c6.535,13.205,6.513,17.53,3.592,30.201c-0.264,1.176-0.444,2.077-0.608,2.898
	c-0.461,2.307-0.826,4.128-2.572,9.743c-2.242,7.211-21.432,72.745-22.393,76.029c-0.496,2.439-1.788,8.007-3.598,10.093
	c-1.704,1.966-2.718,2.354-4.623,2.769c-0.292,0.063-0.63,0.137-1.038,0.239c-1.657,0.417-3.733,0.358-5.932,0.298
	c-1.512-0.042-3.075-0.085-4.121,0.06c-0.615,0.085-1.198,0.149-1.756,0.209c-1.949,0.211-3.013,0.354-4.032,1.058
	c-1.468,1.015-2.013,1.964-3.703,5.583c-2.021,4.326-3.346,9.204-4.168,15.35c-0.87,6.499-0.438,16.924-0.09,25.301l0.114,2.789
	c0.057,1.439,0.105,2.841,0.153,4.216c0.253,7.35,0.472,13.696,1.865,21.317c1.624,8.888,5.223,21.304,8.372,28.88
	c2.943,7.079,5.552,11.805,8.723,15.801c1.824,2.299,3.931,3.928,5.79,5.365c1.169,0.903,2.273,1.757,3.158,2.671
	c0.571,0.59,0.989,0.972,1.32,1.274c1.007,0.921,1.619,1.532,2.483,3.369c1.312,2.789,1.681,6.679,1.76,9.45
	c0.079,2.859-0.008,8.104-1.482,11.131c-1.358,2.788-2.043,3.477-4.89,4.905c-2.601,1.308-4.098,1.814-9.412,1.814
	c-0.618,0-1.287-0.007-2.015-0.02c-4.673-0.086-12.463-1.787-19.997-3.433c-4.054-0.886-7.884-1.723-10.818-2.212
	c-3.161-0.527-6.21-0.786-8.901-1.015c-4.549-0.387-8.479-0.72-11.621-2.168c-4.999-2.305-6.317-3.945-8.135-7.14
	c-1.626-2.855-2.333-6.56-2.16-11.322c0.092-2.57,0.899-5.004,1.679-7.357c0.413-1.246,0.803-2.424,1.044-3.507
	c0.212-0.956,0.454-1.87,0.691-2.767c0.562-2.12,1.047-3.951,1.007-5.962c-0.032-1.661-0.263-2.434-0.819-4.3
	c-0.364-1.222-0.863-2.896-1.458-5.382c-0.407-1.698-0.953-3.687-1.531-5.792c-1.516-5.52-3.402-12.389-4.068-18.811
	c-0.119-1.15-0.232-2.172-0.336-3.114c-0.688-6.242-1.002-9.091-0.336-21.509c0.754-14.083,3.005-47.115,5.032-63.323
	c1.716-13.725,2.818-19.3,4.094-25.755c0.213-1.08,0.431-2.181,0.656-3.344c1.238-6.4,1.597-7.949,2.934-13.713l1.217-5.265
	c1.694-7.361,6.042-19.271,10.646-31.88c2.099-5.749,4.27-11.694,6.255-17.391c3.018-8.672,4.396-13.243,5.728-17.662
	c1.396-4.631,2.715-9.005,5.781-17.476"/>
<path id="sector02" fill="none" stroke="#696969" stroke-width="2" d="M159.39,238.647
	c-6.007,7.209-12.451,16.842-17.695,24.773c-5.244,7.931-9.197,13.215-11.776,18.538c-2.579,5.322-4.386,13.383-4.862,15.643
	c-0.476,2.26-1.646,5.207-1.251,12.805c0.395,7.596,4.172,12.037,5.848,16.018c6.151,12.413,6.256,15.866,3.396,28.274
	c-1.022,4.552-0.8,4.956-3.122,12.424c-2.322,7.469-22.443,76.199-22.443,76.199s-1.427,7.093-2.949,8.847
	c-1.522,1.756-1.81,1.48-4.129,2.065c-2.32,0.584-6.92-0.097-9.732,0.295c-2.812,0.39-4.944,0.297-7.078,1.769
	c-2.134,1.476-2.95,2.998-4.718,6.783c-1.769,3.787-3.419,8.718-4.424,16.221c-1.004,7.503-0.361,19.51,0,28.607
	c0.362,9.1,0.364,16.649,2.064,25.953c1.7,9.303,5.381,21.86,8.553,29.492c3.172,7.631,5.91,12.44,9.143,16.515
	c3.232,4.073,7.132,6.181,9.143,8.258c2.01,2.076,2.293,1.812,3.244,3.834c0.951,2.022,1.389,5.229,1.475,8.258
	c0.084,3.03-0.1,7.515-1.18,9.732s-1.285,2.406-3.539,3.538c-2.255,1.134-3.191,1.6-10.027,1.476
	c-6.836-0.125-22.014-4.209-30.376-5.604c-8.362-1.396-15.375-0.928-19.76-2.948c-4.385-2.021-5.227-3.164-6.783-5.898
	c-1.556-2.733-1.893-6.31-1.769-9.73c0.123-3.422,1.922-7.026,2.654-10.322c0.732-3.297,1.835-6.072,1.769-9.438
	c-0.066-3.364-0.864-4.072-2.359-10.321c-1.496-6.25-4.643-15.644-5.532-24.214c-0.889-8.57-1.415-10.081-0.661-24.153
	c0.754-14.072,3.017-47.147,5.013-63.111s3.181-20.948,4.719-28.902c1.538-7.952,1.717-8.389,4.129-18.875
	c2.413-10.485,10.49-30.822,16.811-48.956c6.314-18.144,5.638-18.921,11.497-35.104l0,0"/>
<path id="sector11" fill="none" stroke="#696969" stroke-width="2" d="M769.113,23.492c1.156-0.433,2.174-0.818,3.075-1.16
	c6.43-2.436,7.767-2.941,11.519-2.22c3.466,0.667,6.593,2.531,9.842,5.867c2.461,2.528,4.082,5.343,5.421,9.413
	c0.941,2.867,2.4,8.503,1.594,14.051c-0.438,3.009-1.845,5.613-3.204,8.13c-0.891,1.65-1.732,3.208-2.212,4.728
	c-1.267,4.011-2.126,7.014-2.527,12.019c-0.316,3.977,0.13,9.283,0.562,14.414c0.113,1.347,0.226,2.685,0.324,3.995
	c0.232,3.057,0.659,6.62,1.072,10.066c0.446,3.715,0.867,7.225,0.999,9.763c0.139,2.67-0.067,4.605-0.233,6.161
	c-0.132,1.245-0.229,2.145-0.097,2.951c0.357,2.211,0.664,2.803,1.535,3.689c0.687,0.697,2.191,1.167,3.743,1.167
	c0.004,0,0.008,0,0.012,0c1.18-0.001,2.033-0.316,3.265-1.204c1.175-0.848,1.862-3.588,2.088-4.489
	c0.381-1.521-0.078-3.173-1.152-6.767c-0.186-0.621-0.383-1.281-0.588-1.989c-1.34-4.606-6.367-28.335-6.311-36.835
	c0.042-6.402,0.49-7.81,1.665-9.934c0.216-0.391,0.42-0.76,0.654-1.289c1.509-3.4,3.276-6.897,6.797-9.021
	c3.096-1.867,6.178-1.878,9.746-1.892c0.569-0.002,1.162-0.004,1.783-0.014c4.491-0.074,15.412,1.733,15.875,1.81l0.258,0.054
	c1.104,0.285,27.104,7.008,33.712,10.59c5.376,2.914,6.284,3.629,7.475,5.887c0.12,0.228,0.256,0.489,0.446,0.804
	c1.822,3.019,1.941,5.821,1.907,8.665c-0.038,3.284-0.324,4.886-2.268,9.895c-1.968,5.078-10.783,19.352-11.157,19.957l-0.122,0.182
	l-66.65,92.015c-0.485,0.703-12.853,18.558-19.694,25.938c-7.054,7.613-12.373,12.324-21.077,18.669
	c-8.213,5.987-19.977,12.96-32.274,19.132c-11.385,5.716-22.931,10.534-34.314,14.323c-11.062,3.681-18.974,6.12-35.537,8.958
	c-16.045,2.749-41.937,4.717-60.817,5.643c-10.76,0.527-21.889,0.969-32.76,0.969c-7.166,0-14.22-0.192-20.983-0.679
	c-16.918-1.218-26.173-2.975-45.493-6.833c-9.749-1.946-26.944-6.582-42.116-10.672c-11.985-3.231-25.492-6.873-28.583-7.266
	c-1.226,0.571-1.292,0.66-2.1,1.746c-0.367,0.495-0.857,2.248-1.182,3.408c-0.561,2.006-1.091,3.9-2.102,5.198
	c-1.284,1.649-1.752,2.097-3.409,2.705c-0.208,0.076-0.463,0.169-0.788,0.3c-3.528,1.416-18.903-2.93-22.563-4.843
	c-3.404-1.781-4.588-3.16-5.782-4.778c-0.303-0.41-0.565-0.765-0.914-1.137c-0.911-0.972-1.573-1.994-2.156-2.896
	c-0.598-0.924-1.12-1.73-1.767-2.269c-3.204-1.544-32.903-11.037-51.114-16.733l-121.348-35.933
	c-3.927-0.828-10.905-2.088-13.295-1.977c-3.364,0.137-3.784,0.278-6.576,1.515c-2.025,0.896-7.074,4.667-9.858,6.893
	c-1.111,1.059-12.105,11.571-17.66,18.238"/>
<path id="sector01" fill="none" stroke="#696969" stroke-width="2" d="M770.165,26.302
	c9.119-3.415,9.633-3.888,12.975-3.244c3.346,0.644,6.029,2.724,8.26,5.014c2.229,2.289,3.561,4.729,4.721,8.257
	c1.158,3.527,2.104,8.354,1.475,12.682c-0.631,4.328-3.982,8.185-5.309,12.387c-1.326,4.201-2.232,7.39-2.656,12.682
	c-0.422,5.292,0.398,12.433,0.885,18.875c0.488,6.442,1.82,15.029,2.066,19.759s-0.699,6.957-0.295,9.438
	c0.4,2.481,0.865,3.792,2.355,5.309c1.496,1.517,3.975,2.067,5.9,2.064c1.928-0.002,3.385-0.596,5.014-1.77
	c1.627-1.174,2.547-3.413,3.244-6.193c0.695-2.78-0.34-5.398-1.77-10.322c-1.432-4.924-6.244-28.018-6.191-35.979
	c0.053-7.963,0.73-7.021,2.062-10.027c1.334-3.007,2.803-5.978,5.604-7.668c2.803-1.69,5.766-1.408,10.027-1.475
	c4.262-0.067,15.336,1.77,15.336,1.77s26.672,6.875,33.031,10.322c6.359,3.447,5.402,3.316,6.781,5.603
	c1.381,2.288,1.51,4.359,1.477,7.079c-0.031,2.719-0.172,3.968-2.064,8.847c-1.891,4.879-10.912,19.464-10.912,19.464l-66.65,92.015
	c0,0-12.689,18.35-19.465,25.658c-6.771,7.308-11.943,11.942-20.645,18.285c-8.701,6.343-20.861,13.359-31.852,18.875
	c-10.988,5.516-22.38,10.318-33.916,14.157c-11.534,3.838-19.176,6.12-35.096,8.847s-41.465,4.672-60.458,5.603
	c-18.994,0.931-36.92,1.479-53.381,0.295c-16.458-1.185-25.541-2.873-45.121-6.783c-19.582-3.91-69.979-18.906-71.961-17.99
	c-1.979,0.916-2.441,1.079-3.833,2.949c-1.389,1.871-1.938,6.876-3.244,8.553c-1.305,1.677-1.052,1.303-2.947,2.064
	c-1.897,0.761-15.842-2.514-20.056-4.718c-4.215-2.205-4.18-3.477-5.899-5.309c-1.718-1.833-2.473-4.124-4.424-5.604
	c-1.95-1.479-51.905-17.105-51.905-17.105l-121.506-35.98c0,0-10.463-2.216-14.156-2.064c-3.693,0.151-4.499,0.366-7.668,1.77
	c-3.169,1.403-10.617,7.373-10.617,7.373s-11.982,11.37-17.99,18.58"/>
<path id="sector10" fill="none" stroke="#696969" stroke-width="2" d="M69.862,316.364c5.842-16.136,17.531-46.584,24.024-59.596
	c1.488-2.981,2.533-5.138,3.342-6.808c2.809-5.796,3.036-6.17,8.098-13.342c4.426-6.271,11.692-14.946,18.103-22.6
	c3.163-3.776,6.15-7.342,8.249-9.979c1.266-1.589,2.337-2.925,3.26-4.075c3.615-4.506,4.833-6.024,6.542-8.872
	c0.93-1.548,2.048-3.963,3.13-6.298c1.53-3.302,2.975-6.42,4.385-8.368c2.509-3.465,4.657-5.375,7.413-6.59
	c3.163-1.394,5.123-1.07,7.546-0.459c1.583,0.398,2.977,1.265,4.59,2.268c1.331,0.828,2.839,1.765,4.751,2.622l1.14,0.512
	c3.31,1.489,4.548,2.046,9.15,3.493c4.916,1.545,53.897,12.005,72.792,15.544c10.674,1.999,17.203,2.817,23.516,3.609
	c4.693,0.588,9.546,1.197,15.952,2.279c4.952,0.836,9.789,1.48,14.91,2.163c9.927,1.322,20.192,2.689,31.344,5.557
	c8.069,2.076,17.542,5.61,26.704,9.028c9.965,3.718,19.376,7.229,26.236,8.633c10.839,2.217,13.057,2.269,20.406,2.437
	c1.671,0.039,3.596,0.083,5.928,0.159c4.76,0.156,11.19,0.087,17.997,0.014c11.199-0.119,23.894-0.254,32.625,0.587
	c10.758,1.038,17.838,2.889,26.036,5.032c2.601,0.68,5.29,1.383,8.302,2.118c5.005,1.222,10.317,2.925,15.94,4.728
	c8.693,2.788,17.683,5.67,25.617,6.714c13.595,1.788,25.906,0.315,35.112-1.167c10.054-1.619,17.604-3.896,24.482-7.381
	c6.589-3.339,10.617-7.396,14.637-12.46c4-5.038,6.228-11.927,7.393-16.819c1.273-5.332,1.604-10.617,1.108-17.675
	c-0.388-5.516-1.802-10.951-3.44-17.244c-0.391-1.502-0.793-3.047-1.196-4.649c-0.818-3.25-2.091-6.559-3.323-9.759
	c-1.9-4.939-3.866-10.046-4.421-15.438c-0.847-8.242,0.125-18.437,2.478-25.974c1.677-5.365,4.958-10.827,10.032-16.698l0.47-0.551
	c2.844-3.366,5.785-6.846,37.456-25.152c33.475-19.349,91.042-48.898,100.429-52.414"/>
<path id="sector00" fill="none" stroke="#696969" stroke-width="2" d="M72.683,317.386
	c5.858-16.18,17.435-46.349,23.888-59.278c6.454-12.93,4.613-10.417,11.207-19.76c6.594-9.342,19.999-24.591,26.248-32.441
	c6.249-7.85,7.754-9.484,10.027-13.271c2.273-3.787,5.137-11.363,7.373-14.451c2.236-3.088,3.971-4.624,6.193-5.604
	c2.222-0.979,3.395-0.851,5.603-0.295c2.208,0.556,4.555,2.795,8.848,4.719s5.348,2.473,10.617,4.129
	c5.269,1.656,54.348,12.111,73.139,15.631c18.792,3.519,24.676,3.39,39.52,5.898c14.844,2.508,29.445,3.408,46.007,7.667
	c16.562,4.261,39.508,14.918,53.086,17.695c13.578,2.778,14.104,2.24,26.837,2.655c12.731,0.415,36.629-0.742,50.432,0.589
	s21.15,3.963,33.915,7.078c12.766,3.115,28.562,9.75,41.878,11.502c13.315,1.751,25.594,0.493,35.98-1.18
	c10.386-1.673,18.216-4.046,25.361-7.667c7.147-3.622,11.521-8.095,15.631-13.271c4.11-5.177,6.578-12.178,7.962-17.99
	c1.388-5.812,1.685-11.435,1.183-18.58c-0.503-7.146-2.603-13.997-4.719-22.414c-2.119-8.417-6.802-16.348-7.669-24.773
	c-0.866-8.425,0.282-18.125,2.357-24.773c2.077-6.647,6.544-12.281,9.438-15.63c2.895-3.35,4.023-5.916,37.157-25.068
	c33.135-19.152,90.86-48.786,99.979-52.201"/>
</svg>
