<?xml version="1.0" encoding="utf-8"?>
<!-- Generator: Adobe Illustrator 16.0.4, SVG Export Plug-In . SVG Version: 6.00 Build 0)  -->
<!DOCTYPE svg PUBLIC "-//W3C//DTD SVG 1.1//EN" "http://www.w3.org/Graphics/SVG/1.1/DTD/svg11.dtd">
<svg version="1.1"
	 id="tracksvg" xmlns:dc="http://purl.org/dc/elements/1.1/" xmlns:cc="http://creativecommons.org/ns#" xmlns:rdf="http://www.w3.org/1999/02/22-rdf-syntax-ns#" xmlns:svg="http://www.w3.org/2000/svg" xmlns:sodipodi="http://sodipodi.sourceforge.net/DTD/sodipodi-0.dtd" xmlns:inkscape="http://www.inkscape.org/namespaces/inkscape" sodipodi:docname="Monte_Carlo_Formula_1_track_map.svg" inkscape:version="0.48.0 r9654" inkscape:export-filename="E:\Images\Race Tracks\Monte Carlo Formula 1 track map.png" inkscape:export-ydpi="90" inkscape:export-xdpi="90"
	 xmlns="http://www.w3.org/2000/svg" xmlns:xlink="http://www.w3.org/1999/xlink" x="0px" y="0px" width="1000px" height="800px"
	 viewBox="0 0 1000 800" enable-background="new 0 0 1000 800" xml:space="preserve">
<path id="background" inkscape:connector-curvature="0" fill="none" stroke="#000000" stroke-width="2" d="M60.43,447.393
	c6.801-18.784,20.242-53.809,27.733-68.82c7.493-15.011,5.356-12.094,13.011-22.941c7.656-10.846,23.219-28.55,30.474-37.663
	c7.255-9.114,9.002-11.011,11.642-15.408c2.639-4.396,5.964-13.192,8.56-16.777c2.596-3.585,4.61-5.369,7.19-6.506
	c2.579-1.137,3.941-0.988,6.505-0.342c2.563,0.645,5.288,3.245,10.272,5.478c4.985,2.234,6.209,2.872,12.326,4.794
	c6.118,1.923,63.098,14.061,84.914,18.147c21.817,4.086,28.648,3.936,45.882,6.848c17.233,2.912,34.185,3.956,53.413,8.901
	c19.229,4.946,45.868,17.319,61.633,20.543c15.763,3.226,16.374,2.601,31.157,3.083c14.778,0.481,42.526-0.861,58.55,0.684
	c16.024,1.545,24.556,4.601,39.375,8.218c14.82,3.616,33.16,11.319,48.62,13.354c15.458,2.033,29.714,0.573,41.771-1.371
	c12.059-1.941,21.149-4.696,29.442-8.9c8.299-4.206,13.376-9.399,18.146-15.408c4.773-6.01,7.638-14.139,9.245-20.886
	c1.614-6.748,1.959-13.276,1.376-21.571c-0.585-8.296-3.024-16.25-5.48-26.022c-2.458-9.772-7.897-18.98-8.902-28.761
	c-1.004-9.782,0.324-21.042,2.734-28.761c2.411-7.717,7.597-14.258,10.957-18.147s4.669-6.868,43.136-29.103
	c38.472-22.235,105.489-56.64,116.076-60.605c10.585-3.965,11.184-4.514,15.063-3.766c3.889,0.748,7,3.163,9.587,5.82
	c2.59,2.658,4.136,5.492,5.487,9.587c1.345,4.095,2.442,9.699,1.712,14.723c-0.732,5.025-4.623,9.503-6.163,14.381
	c-1.54,4.877-2.592,8.58-3.084,14.724c-0.489,6.144,0.463,14.435,1.027,21.914c0.567,7.479,2.113,17.448,2.399,22.939
	c0.285,5.491-0.812,8.077-0.343,10.958c0.46,2.88,0.998,4.402,2.732,6.164c1.737,1.761,4.617,2.399,6.851,2.396
	c2.237-0.002,3.93-0.692,5.82-2.055c1.889-1.363,2.957-3.962,3.767-7.19c0.808-3.227-0.395-6.267-2.055-11.983
	c-1.664-5.717-7.249-32.528-7.188-41.771c0.061-9.245,0.846-8.151,2.392-11.641c1.549-3.491,3.259-6.94,6.508-8.902
	c3.254-1.962,6.694-1.634,11.642-1.713c4.948-0.078,17.805,2.055,17.805,2.055s30.966,7.982,38.345,11.984
	c7.386,4.002,6.274,3.85,7.875,6.505c1.604,2.656,1.751,5.061,1.717,8.219c-0.036,3.156-0.202,4.606-2.396,10.271
	c-2.195,5.665-12.669,22.597-12.669,22.597l-77.378,106.829c0,0-14.73,21.304-22.601,29.789
	c-7.859,8.484-13.861,13.865-23.968,21.228c-10.103,7.365-24.22,15.51-36.981,21.914c-12.756,6.405-25.982,11.979-39.379,16.438
	c-13.388,4.456-22.261,7.104-40.743,10.271c-18.482,3.166-48.14,5.424-70.192,6.504c-22.052,1.082-42.863,1.718-61.974,0.343
	c-19.106-1.376-29.652-3.336-52.385-7.875c-22.734-4.54-81.245-21.949-83.545-20.886c-2.298,1.063-2.836,1.253-4.45,3.423
	c-1.613,2.172-2.25,7.984-3.767,9.931c-1.515,1.946-1.221,1.513-3.423,2.396c-2.201,0.885-18.391-2.918-23.283-5.477
	c-4.893-2.559-4.853-4.036-6.849-6.163c-1.994-2.128-2.871-4.788-5.136-6.507c-2.264-1.716-60.261-19.858-60.261-19.858
	l-141.067-41.772c0,0-12.147-2.573-16.435-2.396c-4.287,0.176-5.223,0.425-8.902,2.055c-3.679,1.629-12.326,8.56-12.326,8.56
	s-13.911,13.201-20.886,21.571c-6.974,8.37-14.456,19.553-20.544,28.762c-6.088,9.207-10.677,15.342-13.671,21.521
	c-2.994,6.18-5.092,15.537-5.645,18.162s-1.911,6.045-1.453,14.867c0.459,8.818,4.844,13.975,6.789,18.596
	c7.142,14.411,7.264,18.42,3.943,32.825c-1.187,5.286-0.929,5.755-3.624,14.424c-2.696,8.672-26.057,88.467-26.057,88.467
	s-1.656,8.235-3.423,10.271c-1.767,2.039-2.102,1.719-4.793,2.397c-2.694,0.678-8.035-0.116-11.299,0.342
	c-3.265,0.454-5.74,0.345-8.217,2.055c-2.478,1.717-3.425,3.48-5.478,7.875c-2.054,4.396-3.969,10.12-5.136,18.832
	c-1.165,8.71-0.418,22.653,0,33.213c0.42,10.564,0.422,19.331,2.396,30.131c1.974,10.801,6.247,25.379,9.93,34.24
	c3.683,8.859,6.861,14.439,10.614,19.172c3.753,4.73,8.281,7.177,10.615,9.588c2.333,2.41,2.662,2.104,3.766,4.451
	c1.104,2.349,1.613,6.072,1.713,9.587c0.097,3.52-0.116,8.728-1.37,11.299c-1.254,2.576-1.492,2.794-4.109,4.109
	c-2.618,1.314-3.705,1.856-11.641,1.712c-7.937-0.146-25.558-4.887-35.266-6.506c-9.708-1.621-17.85-1.075-22.941-3.422
	c-5.091-2.347-6.068-3.673-7.875-6.848c-1.807-3.17-2.198-7.326-2.054-11.295c0.143-3.973,2.231-8.158,3.081-11.983
	c0.85-3.828,2.13-7.048,2.054-10.957c-0.077-3.907-1.003-4.729-2.739-11.984c-1.737-7.256-5.391-18.161-6.423-28.11
	c-1.032-9.95-1.642-11.705-0.767-28.043c0.875-16.336,3.503-54.734,5.82-73.267c2.317-18.537,3.693-24.322,5.479-33.556
	s1.993-9.739,4.793-21.913c2.802-12.175,12.179-35.784,19.518-56.839C54.413,467.084,53.628,466.18,60.43,447.393L60.43,447.393z"/>
<path id="sector12" fill="none" stroke="#000000" stroke-width="2" d="M163.767,358.208c-6.709,8.052-14.004,18.909-20.314,28.453
	c-1.62,2.447-3.132,4.679-4.538,6.753c-3.808,5.613-6.813,10.047-8.905,14.366c-2.235,4.612-4.24,11.991-5.371,17.361
	c-0.096,0.46-0.218,0.945-0.347,1.473c-0.587,2.369-1.392,5.615-1.035,12.495c0.295,5.681,2.486,9.701,4.418,13.249
	c0.761,1.397,1.481,2.72,2.06,4.073c7.587,15.331,7.561,20.351,4.17,35.062c-0.307,1.365-0.516,2.411-0.707,3.363
	c-0.535,2.68-0.958,4.793-2.985,11.312c-2.604,8.372-24.881,84.457-25.998,88.27c-0.577,2.829-2.077,9.297-4.178,11.716
	c-1.979,2.283-3.155,2.734-5.368,3.218c-0.339,0.07-0.731,0.159-1.205,0.274c-1.084,0.274-2.397,0.396-4.255,0.396
	c-0.844,0-1.734-0.024-2.628-0.05c-0.837-0.024-1.678-0.048-2.482-0.048c-0.985,0-1.739,0.037-2.303,0.118
	c-0.715,0.098-1.392,0.173-2.04,0.243c-2.262,0.244-3.499,0.41-4.682,1.227c-1.705,1.184-2.338,2.285-4.299,6.482
	c-2.346,5.023-3.884,10.685-4.84,17.823c-1.009,7.54-0.509,19.64-0.104,29.358l0.133,3.254c0.067,1.673,0.123,3.304,0.177,4.902
	c0.294,8.532,0.548,15.896,2.164,24.743c1.886,10.324,6.066,24.736,9.72,33.528c3.416,8.218,6.445,13.702,10.127,18.347
	c2.117,2.666,4.564,4.56,6.722,6.227c1.357,1.05,2.639,2.041,3.666,3.102c0.663,0.686,1.148,1.127,1.533,1.479
	c1.169,1.07,1.879,1.778,2.883,3.912c1.602,3.408,1.968,8.338,2.042,10.97c0.092,3.32-0.009,9.411-1.721,12.926
	c-1.575,3.233-2.371,4.036-5.677,5.691c-2.828,1.426-4.475,2.106-10.933,2.106c-0.708,0-1.483-0.007-2.335-0.025
	c-5.425-0.1-14.469-2.074-23.215-3.983c-4.708-1.03-9.153-2.003-12.56-2.569c-3.67-0.612-7.21-0.912-10.333-1.18
	c-5.283-0.448-9.844-0.836-13.493-2.517c-5.801-2.674-7.333-4.576-9.445-8.29c-1.886-3.312-2.708-7.612-2.507-13.143
	c0.107-2.984,1.044-5.812,1.95-8.542c0.479-1.446,0.933-2.812,1.212-4.07c0.247-1.108,0.527-2.17,0.803-3.213
	c0.652-2.461,1.214-4.588,1.169-6.921c-0.037-1.93-0.306-2.827-0.951-4.993c-0.423-1.419-1.002-3.362-1.693-6.249
	c-0.471-1.971-1.105-4.281-1.776-6.724c-1.76-6.41-3.95-14.385-4.723-21.841c-0.139-1.331-0.27-2.517-0.389-3.607
	c-0.799-7.25-1.164-10.561-0.391-24.979c0.875-16.347,3.488-54.688,5.842-73.512c1.992-15.938,3.271-22.413,4.753-29.907
	c0.247-1.251,0.5-2.53,0.761-3.882c1.434-7.412,1.85-9.206,3.396-15.875l1.421-6.156c1.967-8.547,7.016-22.374,12.361-37.016
	c2.437-6.674,4.958-13.573,7.262-20.19c3.507-10.074,5.108-15.383,6.656-20.517"/>
<path id="sector02" fill="none" stroke="#000000" stroke-width="2" d="M872.533,104.843c5.623-2.13,7.726-2.927,10.301-2.927
	c1.118,0,2.141,0.167,3.077,0.348c4.025,0.775,7.655,2.939,11.424,6.812c2.857,2.931,4.742,6.199,6.3,10.926
	c1.093,3.33,2.787,9.873,1.851,16.313c-0.509,3.494-2.144,6.517-3.717,9.439c-1.039,1.916-2.012,3.725-2.571,5.489
	c-1.472,4.657-2.47,8.145-2.933,13.954c-0.367,4.618,0.152,10.778,0.651,16.736c0.131,1.563,0.266,3.119,0.376,4.638
	c0.268,3.549,0.765,7.686,1.245,11.687c0.518,4.313,1.007,8.388,1.159,11.335c0.16,3.1-0.077,5.346-0.271,7.153
	c-0.154,1.445-0.265,2.49-0.113,3.426c0.413,2.569,0.769,3.255,1.778,4.282c0.798,0.81,2.546,1.355,4.349,1.355
	c1.381-0.001,2.374-0.367,3.801-1.397c1.367-0.985,2.163-4.167,2.426-5.212c0.442-1.766-0.091-3.684-1.338-7.855
	c-0.215-0.721-0.444-1.488-0.683-2.309c-1.556-5.347-7.39-32.896-7.326-42.766c0.048-7.433,0.569-9.066,1.932-11.534
	c0.252-0.454,0.488-0.882,0.76-1.497c1.753-3.947,3.801-8.007,7.892-10.473c3.594-2.167,7.172-2.18,11.317-2.197
	c0.657-0.002,1.347-0.004,2.065-0.016l0.329-0.002c5.354,0,17.585,2.018,18.102,2.104l0.154,0.024l0.147,0.039
	c1.281,0.33,31.467,8.136,39.138,12.295c6.242,3.383,7.297,4.213,8.681,6.836c0.138,0.265,0.297,0.567,0.517,0.934
	c2.108,3.498,2.249,6.753,2.216,10.056c-0.046,3.816-0.377,5.676-2.638,11.49c-2.283,5.896-12.517,22.467-12.952,23.17l-0.068,0.108
	l-77.452,106.931c-0.562,0.816-14.921,21.545-22.868,30.114c-8.187,8.836-14.36,14.306-24.47,21.674
	c-9.537,6.951-23.194,15.047-37.467,22.211c-13.213,6.635-26.618,12.23-39.841,16.63c-12.839,4.271-22.022,7.104-41.256,10.399
	c-18.628,3.191-48.688,5.477-70.606,6.551c-11.415,0.56-24.864,1.132-38.061,1.132c-8.948,0-16.909-0.261-24.333-0.794
	c-19.642-1.415-30.388-3.454-52.818-7.934c-11.317-2.259-31.279-7.642-48.892-12.39c-13.915-3.751-29.602-7.98-33.19-8.436
	c-1.423,0.662-1.5,0.766-2.438,2.027c-0.428,0.576-0.998,2.612-1.376,3.959c-0.651,2.326-1.267,4.524-2.439,6.03
	c-1.491,1.916-2.035,2.437-3.959,3.142c-0.242,0.089-0.538,0.196-0.915,0.35c-0.647,0.258-1.398,0.38-2.361,0.38
	c-4.693,0-18.765-3.354-23.831-6.005c-3.954-2.066-5.328-3.669-6.714-5.547c-0.352-0.476-0.655-0.888-1.061-1.32
	c-1.058-1.128-1.827-2.315-2.503-3.363c-0.694-1.073-1.299-2.007-2.05-2.633c-3.717-1.791-38.2-12.814-59.344-19.426
	l-140.883-41.718c-3.172-0.667-11.682-2.301-15.126-2.301c-0.109,0-0.213,0.001-0.311,0.006c-3.905,0.159-4.393,0.323-7.634,1.759
	c-2.347,1.041-8.209,5.417-11.443,8.001c-1.287,1.227-14.054,13.434-20.504,21.174"/>
<path id="sector10" fill="none" stroke="#000000" stroke-width="2" d="M50.446,466.488c1.621-5.374,3.151-10.451,6.709-20.279
	c6.783-18.734,20.353-54.083,27.892-69.19c1.728-3.461,2.941-5.965,3.881-7.904c3.261-6.728,3.525-7.163,9.402-15.49
	c5.138-7.281,13.574-17.352,21.018-26.239c3.671-4.384,7.14-8.525,9.578-11.586c1.469-1.846,2.713-3.396,3.784-4.732
	c4.197-5.231,5.611-6.993,7.595-10.299c1.08-1.798,2.377-4.601,3.634-7.312c1.777-3.832,3.454-7.453,5.091-9.715
	c2.913-4.023,5.406-6.24,8.606-7.65c1.785-0.787,3.274-1.138,4.826-1.138c1.279,0,2.453,0.232,3.935,0.605
	c1.838,0.462,3.456,1.469,5.329,2.633c1.545,0.961,3.296,2.049,5.516,3.044l1.326,0.595c3.842,1.729,5.278,2.376,10.62,4.055
	c5.708,1.793,62.574,13.938,84.51,18.046c12.392,2.321,19.973,3.271,27.302,4.19c5.449,0.683,11.083,1.39,18.521,2.646
	c5.749,0.97,11.364,1.718,17.309,2.511c11.525,1.535,23.442,3.122,36.392,6.451c9.368,2.41,20.366,6.514,31.001,10.481
	c11.57,4.316,22.497,8.394,30.461,10.021c12.583,2.575,15.159,2.635,23.69,2.831c1.94,0.045,4.175,0.097,6.883,0.185
	c2.244,0.073,4.976,0.109,8.353,0.109c3.869,0,8.125-0.045,12.541-0.093c4.794-0.051,9.749-0.104,14.625-0.104
	c10.305,0,17.693,0.25,23.254,0.787c12.489,1.203,20.709,3.352,30.228,5.84c3.018,0.791,6.142,1.605,9.638,2.459
	c5.812,1.418,11.979,3.396,18.508,5.49c10.09,3.236,20.527,6.583,29.738,7.793c4.796,0.63,9.812,0.951,14.904,0.951
	c10.345,0,19.712-1.315,25.859-2.305c11.674-1.882,20.439-4.524,28.424-8.569c7.65-3.877,12.324-8.587,16.993-14.466
	c4.644-5.849,7.231-13.847,8.583-19.527c1.479-6.189,1.863-12.325,1.288-20.521c-0.449-6.398-2.089-12.701-3.989-20.001
	c-0.455-1.75-0.925-3.55-1.393-5.416c-0.949-3.773-2.428-7.614-3.859-11.329c-2.206-5.734-4.487-11.665-5.131-17.925
	c-0.986-9.57,0.145-21.407,2.875-30.156c1.948-6.229,5.755-12.57,11.648-19.386l0.544-0.64c3.304-3.908,6.717-7.949,43.485-29.201
	c38.868-22.465,105.701-56.771,116.598-60.852c1.338-0.502,2.519-0.949,3.562-1.345"/>
<path id="sector11" fill="none" stroke="#000000" stroke-width="2" d="M158.417,353.75c-6.938,8.325-14.361,19.372-20.774,29.07
	c-1.602,2.423-3.101,4.633-4.493,6.686c-3.965,5.848-7.096,10.466-9.409,15.238c-3.157,6.518-5.328,16.16-5.918,18.962
	c-0.082,0.387-0.183,0.791-0.292,1.233c-0.654,2.636-1.642,6.619-1.231,14.534c0.378,7.262,3.083,12.228,5.257,16.219
	c0.694,1.274,1.352,2.479,1.8,3.549l0.09,0.192c6.805,13.736,6.8,16.918,3.67,30.501c-0.33,1.467-0.549,2.562-0.749,3.558
	c-0.515,2.578-0.889,4.438-2.808,10.614c-2.674,8.597-25.12,85.26-26.074,88.521l-0.042,0.146l-0.029,0.147
	c-0.761,3.767-2.003,7.832-2.66,8.696c-0.521,0.601-0.708,0.739-0.741,0.757c-0.079,0.029-0.494,0.122-0.828,0.192
	c-0.4,0.089-0.867,0.19-1.427,0.331c-0.482,0.121-1.34,0.185-2.552,0.185c-0.78,0-1.604-0.025-2.433-0.048
	c-0.902-0.025-1.811-0.05-2.678-0.05c-1.329,0-2.367,0.059-3.266,0.181c-0.637,0.089-1.246,0.157-1.828,0.221
	c-2.555,0.276-5.196,0.562-7.886,2.417c-3.286,2.274-4.542,4.741-6.656,9.27c-2.654,5.683-4.38,11.986-5.433,19.844
	c-1.089,8.145-0.575,20.58-0.16,30.573l0.132,3.24c0.066,1.662,0.122,3.276,0.176,4.864c0.291,8.439,0.565,16.407,2.273,25.754
	c1.995,10.916,6.26,25.614,10.14,34.95c3.677,8.844,6.996,14.827,11.103,20.002c2.644,3.333,5.568,5.592,7.918,7.41
	c1.204,0.93,2.243,1.735,2.922,2.436c0.795,0.821,1.375,1.354,1.836,1.773c0.785,0.719,0.815,0.746,1.282,1.737
	c0.767,1.628,1.283,4.698,1.383,8.201c0.117,4.227-0.303,8.204-1.02,9.676c-0.802,1.648-0.802,1.648-2.54,2.521
	c-2.032,1.022-2.715,1.367-7.807,1.367c-0.669,0-1.402-0.009-2.208-0.024c-4.738-0.087-13.832-2.073-21.855-3.826
	c-4.794-1.045-9.323-2.036-12.901-2.632c-3.946-0.66-7.635-0.973-10.89-1.25c-4.628-0.392-8.627-0.729-11.167-1.902
	c-4.377-2.016-4.824-2.803-6.306-5.408c-1.212-2.127-1.751-5.306-1.6-9.448c0.072-1.991,0.814-4.231,1.602-6.604
	c0.513-1.547,1.043-3.147,1.399-4.751c0.226-1.016,0.484-1.986,0.736-2.938c0.72-2.719,1.466-5.53,1.4-8.844
	c-0.056-2.872-0.527-4.453-1.24-6.843c-0.422-1.42-0.947-3.18-1.594-5.88c-0.498-2.084-1.147-4.446-1.834-6.945
	c-1.78-6.483-3.797-13.828-4.512-20.717c-0.141-1.349-0.271-2.546-0.394-3.653c-0.757-6.858-1.102-9.988-0.36-23.841
	c0.844-15.75,3.495-54.6,5.798-73.021c1.96-15.691,3.219-22.05,4.675-29.417c0.25-1.263,0.504-2.547,0.768-3.911
	c1.409-7.286,1.819-9.053,3.342-15.624l1.426-6.168c1.869-8.124,6.847-21.755,12.115-36.186c2.445-6.698,4.975-13.623,7.297-20.285
	c3.556-10.22,5.252-15.841,6.748-20.8"/>
<path id="sector01" fill="none" stroke="#000000" stroke-width="2" d="M875.002,111.355c4.621-1.75,6.533-2.475,7.832-2.475
	c0.432,0,0.943,0.065,1.765,0.221c2.556,0.492,5.018,2.027,7.75,4.83c2.127,2.183,3.436,4.496,4.669,8.248
	c0.726,2.207,2.336,7.913,1.574,13.132c-0.331,2.271-1.607,4.632-2.957,7.132c-1.143,2.117-2.326,4.306-3.082,6.702
	c-1.564,4.955-2.712,8.966-3.233,15.494c-0.41,5.188,0.13,11.638,0.653,17.875c0.129,1.543,0.259,3.078,0.372,4.58
	c0.278,3.702,0.786,7.916,1.274,11.991c0.503,4.194,0.979,8.155,1.12,10.867c0.131,2.549-0.066,4.411-0.24,6.053
	c-0.188,1.76-0.363,3.421-0.062,5.283c0.533,3.329,1.281,5.6,3.688,8.046c3.145,3.189,7.925,3.437,9.314,3.437
	c2.855-0.002,5.276-0.839,7.873-2.712c3.041-2.193,4.329-6.051,5.108-9.167c0.926-3.698-0.059-6.99-1.419-11.545
	c-0.216-0.703-0.436-1.453-0.669-2.257c-1.701-5.854-7.106-32.071-7.05-40.777c0.043-6.361,0.383-6.979,1.063-8.208
	c0.283-0.513,0.637-1.152,1.034-2.045c1.405-3.168,2.762-5.908,5.12-7.331c1.859-1.121,3.934-1.18,7.743-1.195
	c0.688-0.002,1.404-0.005,2.154-0.018l0.218-0.001c4.494,0,15.408,1.757,16.812,1.985c8.621,2.227,31.696,8.538,37.405,11.634
	c5.25,2.845,5.399,3.125,5.837,3.96c0.193,0.363,0.41,0.779,0.717,1.281c1.088,1.804,1.245,3.358,1.213,6.381
	c-0.029,2.61-0.041,3.586-2.161,9.051c-1.691,4.367-9.396,17.191-12.314,21.916l-77.306,106.727
	c-0.188,0.272-14.726,21.26-22.333,29.463c-7.844,8.468-13.764,13.713-23.465,20.781c-9.106,6.637-22.748,14.719-36.491,21.617
	c-12.919,6.485-26.007,11.95-38.914,16.244c-12.528,4.169-21.484,6.933-40.232,10.144c-18.324,3.139-48.057,5.395-69.775,6.458
	c-11.333,0.557-24.673,1.123-37.718,1.123c-8.78,0-16.578-0.252-23.837-0.776c-19.222-1.383-29.818-3.396-51.952-7.815
	c-11.091-2.215-30.935-7.565-48.442-12.285c-22.972-6.193-32.609-8.715-35.437-8.715c-0.681,0-1.273,0.12-1.809,0.367l-0.266,0.123
	c-2.445,1.129-3.518,1.695-5.521,4.383c-1.198,1.617-1.856,3.966-2.491,6.24c-0.329,1.173-0.876,3.136-1.235,3.641
	c-0.174,0.226-0.451,0.579-0.625,0.788c-0.067,0.024-0.143,0.051-0.225,0.081c-0.226,0.082-0.489,0.179-0.807,0.303
	c-0.023,0-0.048,0-0.073,0c-3.662,0-16.596-3.114-20.604-5.212c-2.844-1.487-3.471-2.335-4.338-3.51
	c-0.422-0.572-0.899-1.218-1.585-1.95c-0.629-0.671-1.166-1.501-1.736-2.381c-0.957-1.479-2.041-3.155-3.836-4.517
	c-1.824-1.383-22.458-8.25-61.326-20.408l-141.25-41.827l-0.135-0.029c-1.198-0.253-11.851-2.479-16.705-2.479
	c-0.21,0-0.408,0.003-0.597,0.011c-4.658,0.19-5.989,0.499-10.17,2.352c-3.977,1.761-12.171,8.288-13.093,9.026l-0.114,0.092
	l-0.105,0.1c-0.575,0.544-14.14,13.438-21.165,21.867"/>
<path id="sector00" fill="none" stroke="#000000" stroke-width="2" d="M57.116,468.499c1.661-5.512,3.096-10.271,6.589-19.92
	c6.729-18.587,20.167-53.607,27.575-68.451c1.744-3.493,2.969-6.021,3.917-7.975c3.048-6.29,3.107-6.41,8.825-14.512
	c4.973-7.045,13.31-17,20.666-25.783c3.7-4.419,7.196-8.591,9.688-11.72c1.462-1.838,2.702-3.382,3.769-4.713
	c4.298-5.357,5.906-7.361,8.134-11.073c1.271-2.117,2.588-4.958,3.982-7.969c1.558-3.363,3.169-6.843,4.412-8.559
	c2.495-3.444,4.06-4.605,5.775-5.361c1.088-0.48,1.611-0.546,2.015-0.546c0.559,0,1.268,0.151,2.234,0.393
	c0.784,0.198,1.974,0.938,3.353,1.794c1.646,1.022,3.696,2.297,6.344,3.485l1.317,0.59c4,1.799,5.655,2.544,11.391,4.347
	c6.46,2.032,64.41,14.332,85.316,18.248c12.6,2.359,20.285,3.323,27.717,4.255c5.625,0.705,10.936,1.372,18.226,2.604
	c5.87,0.991,11.808,1.782,17.55,2.547c11.322,1.508,23.03,3.067,35.576,6.292c9.012,2.318,19.834,6.357,30.302,10.262
	c11.831,4.414,23.003,8.583,31.5,10.32c13.196,2.701,16.152,2.768,24.926,2.969c1.922,0.044,4.136,0.095,6.816,0.183
	c2.321,0.075,5.127,0.112,8.582,0.112c3.891,0,8.173-0.045,12.613-0.093c4.775-0.051,9.713-0.104,14.551-0.104
	c10.076,0,17.253,0.24,22.585,0.753c11.937,1.152,19.525,3.136,29.133,5.648c3.047,0.796,6.196,1.619,9.75,2.485
	c5.571,1.36,11.623,3.3,18.031,5.356c10.385,3.331,21.124,6.773,30.961,8.067c5.095,0.671,10.417,1.01,15.812,1.01
	c8.254,0,16.823-0.759,26.968-2.395c12.415-2,21.812-4.846,30.465-9.233c9.294-4.709,14.769-10.642,19.301-16.349
	c5.438-6.85,8.388-15.877,9.902-22.244c1.653-6.913,2.091-13.679,1.463-22.622c-0.499-7.042-2.211-13.634-4.197-21.268
	c-0.451-1.73-0.914-3.513-1.381-5.36c-1.05-4.184-2.607-8.225-4.111-12.132c-2.138-5.554-4.154-10.799-4.705-16.136
	c-0.894-8.705,0.125-19.447,2.597-27.367c2.46-7.873,8.338-14.672,10.27-16.906l0.594-0.699c2.782-3.291,5.935-7.022,41.65-27.666
	c37.784-21.838,105.112-56.449,115.553-60.359c1.352-0.506,2.542-0.956,3.592-1.355"/>
</svg>
