<?xml version="1.0" encoding="utf-8"?>
<!-- Generator: Adobe Illustrator 16.0.4, SVG Export Plug-In . SVG Version: 6.00 Build 0)  -->
<!DOCTYPE svg PUBLIC "-//W3C//DTD SVG 1.1//EN" "http://www.w3.org/Graphics/SVG/1.1/DTD/svg11.dtd">
<svg version="1.1"
	 id="svg2" xmlns:dc="http://purl.org/dc/elements/1.1/" xmlns:cc="http://creativecommons.org/ns#" xmlns:rdf="http://www.w3.org/1999/02/22-rdf-syntax-ns#" xmlns:svg="http://www.w3.org/2000/svg" xmlns:sodipodi="http://sodipodi.sourceforge.net/DTD/sodipodi-0.dtd" xmlns:inkscape="http://www.inkscape.org/namespaces/inkscape" inkscape:export-xdpi="90" inkscape:export-ydpi="90" inkscape:export-filename="E:\Images\Maps\Race Tracks\Asia\Japan\Suzuka circuit map-2005.png" inkscape:version="0.47 r22583" sodipodi:docname="Suzuka circuit map--2005.svg"
	 xmlns="http://www.w3.org/2000/svg" xmlns:xlink="http://www.w3.org/1999/xlink" x="0px" y="0px" width="1272.682px"
	 height="983.406px" viewBox="0 0 1272.682 983.406" enable-background="new 0 0 1272.682 983.406" xml:space="preserve">
<title  id="title4362">2005 Track map for Suzuka in Japan</title>
<path id="background" fill="none" stroke="#000000" stroke-width="2" d="M272.029,707.034c-18.762,2.772-37.806,5.865-56.223,8.855
	c-16.786,2.727-34.144,5.544-51.252,8.114l-6.97,1.049c-23.112,3.479-47.011,7.081-70.587,9.783
	c-1.93,0.221-3.865,0.311-5.782,0.311c-3.234,0-6.422-0.253-9.472-0.553c-4.088-0.401-8.87-1.022-13.334-2.58
	c-5.393-1.882-10.061-4.219-13.874-6.948c-5.623-4.022-11.031-8.908-15.643-14.127c-4.872-5.515-8.632-10.991-11.179-16.277
	c-1.48-3.075-2.199-6.948-2.199-11.842c0-5.274,0.72-9.713,2.142-13.187c1.607-3.928,4.637-7.312,7.389-10.105
	c3.023-3.069,6.375-5.602,9.692-7.324c3.16-1.641,6.987-2.827,11.067-3.438c4.549-0.676,9.208-0.786,13.712-0.892
	c1.421-0.032,2.843-0.065,4.259-0.114c9.003-0.322,18.168-0.506,27.031-0.68c14.62-0.29,29.738-0.59,44.474-1.53
	c2.429-0.155,5.185-1.037,8.423-2.698c3.912-2.005,7.201-4.272,9.776-6.738c2.721-2.605,4.909-6.068,6.747-9.109
	c1.13-1.872,2.032-3.91,2.985-6.07c1.208-2.734,2.458-5.562,4.238-8.088c2.172-3.085,5.287-6.014,8.768-8.246
	c3.725-2.395,8.159-4.333,12.48-5.462c3.212-0.841,6.528-0.715,9.737-0.597l0.778,0.028c3.743,0.133,7.731,0.382,11.533,1.294
	c5.601,1.345,11.191,3.051,16.597,4.701c5.035,1.539,10.242,3.128,15.393,4.401l0.249,0.062c4.297,1.063,8.739,2.162,12.914,2.084
	c3.386-0.064,7.361-0.945,11.493-2.547c3.864-1.499,7.75-3.686,11.235-6.324c2.331-1.761,4.647-4.238,6.887-7.363
	c2.506-3.497,4.8-7.313,7.019-11.005c2.491-4.145,5.066-8.431,8.007-12.392c2.749-3.703,6.069-7.021,9.602-9.6
	c4.142-3.02,9.016-5.116,12.323-6.433c3.685-1.466,7.698-2.535,11.606-3.093c4.168-0.599,9.056-1.122,13.682-0.495
	c3.967,0.538,7.771,2.194,11.287,3.903c2.864,1.392,5.537,3.236,7.731,5.335c3.187,3.05,5.993,6.523,8.706,9.885l1.329,1.646
	c1.873,2.302,3.657,4.704,5.385,7.028c1.975,2.655,4.015,5.401,6.153,7.947c0.799,0.955,1.589,1.933,2.384,2.914
	c2.709,3.352,5.511,6.819,8.781,9.256c3.908,2.914,8.977,4.869,13.868,6.547c2.736,0.938,6.062,1.477,9.886,1.596
	c4.569,0.146,8.65,0.176,12.304-0.892c5.732-1.672,11.281-4.679,15.955-7.398c7.507-4.37,13.762-8.644,19.117-13.062
	c4.829-3.985,9.743-8.9,15.464-15.471c2.971-3.413,5.868-7.49,8.858-12.458c3.231-5.371,6.583-11.115,8.925-17.106
	c1.566-4.006,2.397-8.497,3.198-12.84c0.123-0.665,0.245-1.328,0.372-1.989c1.119-5.919,1.832-11.063,2.179-15.724
	c0.491-6.586,0.57-11.872,0.245-16.637c-0.386-5.666-1-12.326-2.638-18.764c-1.469-5.773-3.667-11.547-5.792-17.133
	c-0.763-2.001-1.523-4-2.253-6.004c-2.765-7.575-5.779-15.259-8.695-22.686c-5.075-12.937-10.324-26.314-14.463-39.649
	c-1.262-4.069,0.121-8.452,1.06-10.701c10.07-24.154,20.357-46.551,30.574-66.571c1.648-3.228,5.118-5.144,7.041-5.999
	c2.369-1.052,5.862-2.093,9.049-1.075c9.645,3.085,22.354,7.156,35.126,11.305l15.508,5.067 M574.396,317.43
	c-9.579,8.473-19.098,17.058-28.345,25.726c-2.291,2.147-4.118,5.085-5.013,8.062c-3.259,10.844-5.632,21.972-7.052,33.069
	c-1.127,8.825-2.127,19.223-0.979,29.444c2.214,19.721,6.519,39.687,10.682,58.993l0.595,2.754
	c1.673,7.769,3.914,15.611,6.083,23.196c2.815,9.849,5.727,20.033,7.464,30.279c1.669,9.837,1.234,20.152,0.518,29.835
	c-0.18,2.447-2.08,5.003-4.42,5.942c-3.074,1.236-6.474,1.871-9.762,2.485c-3.582,0.669-6.965,1.3-9.792,2.627
	c-1.497,0.702-3.02,2.741-3.077,4.116c-0.125,3.091,0.48,6.426,1.123,9.959c0.458,2.515,0.931,5.115,1.139,7.712
	c0.709,8.771,0.625,15.812-0.26,22.156c-0.658,4.704-1.747,8.656-3.433,12.438c-1.644,3.688-3.489,7.592-5.842,11.159
	c-2.841,4.309-6.008,8.827-9.902,12.675c-3.203,3.166-7.136,6.099-12.023,8.964c-10.401,6.1-19.73,10.965-28.519,14.876
	c-5.921,2.635-12.123,4.397-19.034,6.27c-5.361,1.453-11.08,2.63-16.995,3.5c-27.094,3.986-54.678,7.792-81.353,11.477
	c-27.602,3.809-56.144,7.749-84.17,11.89 M574.396,322.125c39.215,12.896,70.682,23.964,99.029,34.829
	c5.867,2.248,10.241,7.525,13.758,11.763c5.231,6.308,10.014,13.215,14.64,19.897c5.285,7.638,10.753,15.537,16.793,22.348
	c1.426,1.611,4.609,2.369,7.131,2.406c0.023,0,0.049,0,0.074,0c1.82,0,4.327-1.013,5.626-2.282c1.445-1.414,2.707-4.139,3.001-6.481
	c0.216-1.744-0.344-4.189-1.5-6.545c-1.878-3.823-4.295-7.578-6.633-11.209c-1.636-2.539-3.327-5.165-4.857-7.844
	c-5.851-10.241-11.097-19.499-16.036-29.114c-0.644-1.251-1.293-2.502-1.944-3.755c-3.528-6.786-7.176-13.802-9.744-21.138
	c-2.805-8.016-4.801-16.697-5.773-25.102c-0.715-6.183-0.065-12.564,0.744-18.539c0.684-5.043,1.965-10.171,3.808-15.246
	c2.657-7.3,5.858-15.738,10.249-23.477c4.908-8.644,11.043-16.783,16.908-24.379c4.03-5.218,8.576-10.27,13.513-15.016
	c7.061-6.783,15.525-14.68,24.791-21.811c9.663-7.437,17.894-12.896,25.904-17.181c8.705-4.656,18.033-8.522,27.723-11.489
	c8.148-2.496,16.606-3.646,24.534-4.516c6.312-0.693,13.764-1.293,21.169-0.492c12.962,1.402,26.096,3.537,38.794,5.601
	c14.781,2.403,30.065,4.887,45.028,6.199c3.854,0.343,8.477-0.713,13.015-2.961c4.575-2.268,9.045-5.81,12.265-9.718
	c4.012-4.872,7.717-11.218,10.715-18.355c3.115-7.414,5.271-15.035,6.233-22.037c0.59-4.292,0.918-10.487-0.875-15.631
	c-1.727-4.955-5.289-10.368-9.772-14.852c-2.399-2.4-6.342-3.749-9.85-4.826c-5.084-1.561-9.415-2.254-13.241-2.112
	c-5.712,0.209-11.966,1.306-19.116,3.354c-7.912,2.266-15.812,5.349-23.451,8.328c-1.874,0.731-3.747,1.463-5.622,2.182
	c-9.792,3.76-21.157,8.175-32.116,12.993c-10.51,4.62-19.873,9.102-28.627,13.702l-2.573,1.352
	c-11.982,6.29-24.375,12.795-35.863,20.188c-15.607,10.044-30.309,21.119-42.629,30.628c-9.12,7.036-18.097,14.616-26.775,21.945
	c-5.049,4.264-10.271,8.673-15.475,12.937c-6.656,5.454-13.461,10.949-20.039,16.263c-9.51,7.68-19.345,15.622-28.891,23.569
	c-17.677,14.716-33.834,28.461-49.396,42.022c-4.989,4.349-9.995,8.69-15.002,13.03c-9.788,8.487-19.744,17.122-29.636,25.873"/>
<path id="sector10" fill="none" stroke="#000000" stroke-width="2" d="M272.029,707.034c-18.762,2.772-37.806,5.865-56.223,8.855
	c-16.786,2.727-34.144,5.544-51.252,8.114l-6.97,1.049c-23.112,3.479-47.011,7.081-70.587,9.783
	c-1.93,0.221-3.865,0.311-5.782,0.311c-3.234,0-6.422-0.253-9.472-0.553c-4.088-0.401-8.87-1.022-13.334-2.58
	c-5.393-1.882-10.061-4.219-13.874-6.948c-5.623-4.022-11.031-8.908-15.643-14.127c-4.872-5.515-8.632-10.991-11.179-16.277
	c-1.48-3.075-2.199-6.948-2.199-11.842c0-5.274,0.72-9.713,2.142-13.187c1.607-3.928,4.637-7.312,7.389-10.105
	c3.023-3.069,6.375-5.602,9.692-7.324c3.16-1.641,6.987-2.827,11.067-3.438c4.549-0.676,9.208-0.786,13.712-0.892
	c1.421-0.032,2.843-0.065,4.259-0.114c9.003-0.322,18.168-0.506,27.031-0.68c14.62-0.29,29.738-0.59,44.474-1.53
	c2.429-0.155,5.185-1.037,8.423-2.698c3.912-2.005,7.201-4.272,9.776-6.738c2.721-2.605,4.909-6.068,6.747-9.109
	c1.13-1.872,2.032-3.91,2.985-6.07c1.208-2.734,2.458-5.562,4.238-8.088c2.172-3.085,5.287-6.014,8.768-8.246
	c3.725-2.395,8.159-4.333,12.48-5.462c3.212-0.841,6.528-0.715,9.737-0.597l0.778,0.028c3.743,0.133,7.731,0.382,11.533,1.294
	c5.601,1.345,11.191,3.051,16.597,4.701c5.035,1.539,10.242,3.128,15.393,4.401l0.249,0.062c4.297,1.063,8.739,2.162,12.914,2.084
	c3.386-0.064,7.361-0.945,11.493-2.547c3.864-1.499,7.75-3.686,11.235-6.324c2.331-1.761,4.647-4.238,6.887-7.363
	c2.506-3.497,4.8-7.313,7.019-11.005c2.491-4.145,5.066-8.431,8.007-12.392c2.749-3.703,6.069-7.021,9.602-9.6
	c4.142-3.02,9.016-5.116,12.323-6.433c3.685-1.466,7.698-2.535,11.606-3.093c4.168-0.599,9.056-1.122,13.682-0.495
	c3.967,0.538,7.771,2.194,11.287,3.903c2.864,1.392,5.537,3.236,7.731,5.335c3.187,3.05,5.993,6.523,8.706,9.885l1.329,1.646
	c1.873,2.302,3.657,4.704,5.385,7.028c1.975,2.655,4.015,5.401,6.153,7.947c0.799,0.955,1.589,1.933,2.384,2.914
	c2.709,3.352,5.511,6.819,8.781,9.256c3.908,2.914,8.977,4.869,13.868,6.547c2.736,0.938,6.062,1.477,9.886,1.596
	c4.569,0.146,8.65,0.176,12.304-0.892c5.732-1.672,11.281-4.679,15.955-7.398c7.507-4.37,13.762-8.644,19.117-13.062
	c4.829-3.985,9.743-8.9,15.464-15.471c2.971-3.413,5.868-7.49,8.858-12.458c3.231-5.371,6.583-11.115,8.925-17.106
	c1.566-4.006,2.397-8.497,3.198-12.84c0.123-0.665,0.245-1.328,0.372-1.989c1.119-5.919,1.832-11.063,2.179-15.724
	c0.491-6.586,0.57-11.872,0.245-16.637c-0.386-5.666-1-12.326-2.638-18.764c-1.469-5.773-3.667-11.547-5.792-17.133
	c-0.763-2.001-1.523-4-2.253-6.004c-2.765-7.575-5.779-15.259-8.695-22.686c-5.075-12.937-10.324-26.314-14.463-39.649
	c-1.262-4.069,0.121-8.452,1.06-10.701c10.07-24.154,20.357-46.551,30.574-66.571c1.648-3.228,5.118-5.144,7.041-5.999
	c2.369-1.052,5.862-2.093,9.049-1.075c9.645,3.085,22.354,7.156,35.126,11.305l15.508,5.067"/>
<path id="sector12" fill="none" stroke="#000000" stroke-width="2" d="M574.396,317.43c-9.579,8.473-19.098,17.058-28.345,25.726
	c-2.291,2.147-4.118,5.085-5.013,8.062c-3.259,10.844-5.632,21.972-7.052,33.069c-1.127,8.825-2.127,19.223-0.979,29.444
	c2.214,19.721,6.519,39.687,10.682,58.993l0.595,2.754c1.673,7.769,3.914,15.611,6.083,23.196
	c2.815,9.849,5.727,20.033,7.464,30.279c1.669,9.837,1.234,20.152,0.518,29.835c-0.18,2.447-2.08,5.003-4.42,5.942
	c-3.074,1.236-6.474,1.871-9.762,2.485c-3.582,0.669-6.965,1.3-9.792,2.627c-1.497,0.702-3.02,2.741-3.077,4.116
	c-0.125,3.091,0.48,6.426,1.123,9.959c0.458,2.515,0.931,5.115,1.139,7.712c0.709,8.771,0.625,15.812-0.26,22.156
	c-0.658,4.704-1.747,8.656-3.433,12.438c-1.644,3.688-3.489,7.592-5.842,11.159c-2.841,4.309-6.008,8.827-9.902,12.675
	c-3.203,3.166-7.136,6.099-12.023,8.964c-10.401,6.1-19.73,10.965-28.519,14.876c-5.921,2.635-12.123,4.397-19.034,6.27
	c-5.361,1.453-11.08,2.63-16.995,3.5c-27.094,3.986-54.678,7.792-81.353,11.477c-27.602,3.809-56.144,7.749-84.17,11.89"/>
<path id="sector11" fill="none" stroke="#000000" stroke-width="2" d="M574.396,322.125c39.215,12.896,70.682,23.964,99.029,34.829
	c5.867,2.248,10.241,7.525,13.758,11.763c5.231,6.308,10.014,13.215,14.64,19.897c5.285,7.638,10.753,15.537,16.793,22.348
	c1.426,1.611,4.609,2.369,7.131,2.406c0.023,0,0.049,0,0.074,0c1.82,0,4.327-1.013,5.626-2.282c1.445-1.414,2.707-4.139,3.001-6.481
	c0.216-1.744-0.344-4.189-1.5-6.545c-1.878-3.823-4.295-7.578-6.633-11.209c-1.636-2.539-3.327-5.165-4.857-7.844
	c-5.851-10.241-11.097-19.499-16.036-29.114c-0.644-1.251-1.293-2.502-1.944-3.755c-3.528-6.786-7.176-13.802-9.744-21.138
	c-2.805-8.016-4.801-16.697-5.773-25.102c-0.715-6.183-0.065-12.564,0.744-18.539c0.684-5.043,1.965-10.171,3.808-15.246
	c2.657-7.3,5.858-15.738,10.249-23.477c4.908-8.644,11.043-16.783,16.908-24.379c4.03-5.218,8.576-10.27,13.513-15.016
	c7.061-6.783,15.525-14.68,24.791-21.811c9.663-7.437,17.894-12.896,25.904-17.181c8.705-4.656,18.033-8.522,27.723-11.489
	c8.148-2.496,16.606-3.646,24.534-4.516c6.312-0.693,13.764-1.293,21.169-0.492c12.962,1.402,26.096,3.537,38.794,5.601
	c14.781,2.403,30.065,4.887,45.028,6.199c3.854,0.343,8.477-0.713,13.015-2.961c4.575-2.268,9.045-5.81,12.265-9.718
	c4.012-4.872,7.717-11.218,10.715-18.355c3.115-7.414,5.271-15.035,6.233-22.037c0.59-4.292,0.918-10.487-0.875-15.631
	c-1.727-4.955-5.289-10.368-9.772-14.852c-2.399-2.4-6.342-3.749-9.85-4.826c-5.084-1.561-9.415-2.254-13.241-2.112
	c-5.712,0.209-11.966,1.306-19.116,3.354c-7.912,2.266-15.812,5.349-23.451,8.328c-1.874,0.731-3.747,1.463-5.622,2.182
	c-9.792,3.76-21.157,8.175-32.116,12.993c-10.51,4.62-19.873,9.102-28.627,13.702l-2.573,1.352
	c-11.982,6.29-24.375,12.795-35.863,20.188c-15.607,10.044-30.309,21.119-42.629,30.628c-9.12,7.036-18.097,14.616-26.775,21.945
	c-5.049,4.264-10.271,8.673-15.475,12.937c-6.656,5.454-13.461,10.949-20.039,16.263c-9.51,7.68-19.345,15.622-28.891,23.569
	c-17.677,14.716-33.834,28.461-49.396,42.022c-4.989,4.349-9.995,8.69-15.002,13.03c-9.788,8.487-19.744,17.122-29.636,25.873"/>
<path id="sector00" inkscape:path-effect="#path-effect4364" inkscape:original-d="m -28.87484,911.44041 c -45.786359,6.76483 -91.38624,14.77857 -137.15549,21.65613 -32.90422,4.94438 -65.85991,10.02512 -98.86494,13.8097 -6.22709,0.71404 -12.60683,0.29749 -18.83142,-0.31385 -5.49273,-0.53946 -11.13885,-1.32986 -16.32056,-3.13857 -5.9079,-2.06219 -11.85737,-4.83151 -16.94828,-8.47414 -7.04489,-5.04074 -13.71207,-11.06988 -19.45913,-17.57599 -5.34255,-6.04817 -10.35741,-12.91669 -13.80971,-20.08685 -1.98789,-4.12869 -2.51085,-9.1976 -2.51085,-13.8097 0,-5.22208 0.56161,-10.92803 2.51085,-15.69285 1.81704,-4.44165 5.35878,-8.44458 8.788,-11.92656 3.37101,-3.42287 7.36892,-6.58553 11.6127,-8.788 4.02112,-2.08691 8.66463,-3.4065 13.182,-4.08014 7.4092,-1.10488 15.05871,-0.98544 22.5977,-1.25543 30.4377,-1.09006 61.05671,-0.89222 91.33237,-2.82471 4.14399,-0.26451 8.257,-1.88563 11.92657,-3.76628 4.69995,-2.40873 9.37711,-5.45775 13.18199,-9.10186 3.62307,-3.46998 6.48174,-7.90369 9.10185,-12.24042 3.44779,-5.70669 5.30414,-12.49954 9.10185,-17.88984 2.68867,-3.81617 6.42891,-7.20765 10.35728,-9.72957 4.54577,-2.91827 9.84729,-5.22724 15.06514,-6.591 3.98862,-1.04248 8.38034,-0.77503 12.55428,-0.62771 4.71868,0.16654 9.52954,0.46671 14.12356,1.56928 13.714299,3.29143 27.094234,8.22276 40.801404,11.61271 5.751961,1.42253 11.747408,2.93468 17.57599,2.82471 5.261031,-0.0993 10.753541,-1.53718 15.692848,-3.45242 5.313354,-2.06028 10.522722,-5.03821 15.065134,-8.47414 3.617869,-2.73659 6.751829,-6.3257 9.4157091,-10.04342 6.8564477,-9.56889 12.139597,-20.38019 19.1452749,-29.81641 3.246983,-4.37349 7.241351,-8.42419 11.612707,-11.61271 4.521257,-3.29786 9.835697,-5.7659 15.065134,-7.84643 4.500129,-1.79037 9.329958,-3.08148 14.123564,-3.76628 5.459055,-0.77986 11.230826,-1.35945 16.634419,-0.62771 4.63983,0.62831 9.248651,2.64324 13.495849,4.70785 3.285369,1.59705 6.458044,3.74828 9.101852,6.27714 4.574901,4.37599 8.532692,9.49133 12.554275,14.43742 5.08027,6.24815 9.5771,12.9803 14.75128,19.14528 4.66001,5.55235 9.03983,11.75005 14.75128,16.0067 5.37816,4.00825 12.11653,6.59157 18.51756,8.788 4.2701,1.46523 8.97179,2.05561 13.49585,2.19699 5.51937,0.17248 11.37929,0.27733 16.63442,-1.25542 7.29915,-2.12892 14.37645,-5.85685 21.02841,-9.72957 8.62241,-5.0199 17.10624,-10.60396 24.7947,-16.94828 7.27206,-6.00072 13.88991,-12.96956 20.08685,-20.08684 4.36958,-5.01852 8.17878,-10.61281 11.61271,-16.32056 4.30787,-7.16039 8.58488,-14.53963 11.6127,-22.28385 2.41237,-6.17011 3.4702,-12.90984 4.70786,-19.45913 1.2732,-6.73732 2.31478,-13.56758 2.82471,-20.4007 0.53626,-7.18583 0.80239,-14.47472 0.31386,-21.65613 -0.55766,-8.19758 -1.43055,-16.53116 -3.45243,-24.48084 -2.58135,-10.1494 -6.75044,-19.93311 -10.35728,-29.81642 -9.67977,-26.5241 -21.22782,-52.7428 -29.50255,-79.40581 -1.14098,-3.67649 -0.23522,-8.0375 1.25542,-11.6127 11.90059,-28.54283 24.90784,-57.2885 38.91827,-84.74138 1.47318,-2.88663 4.66305,-5.0018 7.53256,-6.27714 2.77991,-1.23552 6.41341,-2.21541 9.41571,-1.25543 63.74462,20.38229 128.45146,41.37238 190.82504,65.28225 6.67495,2.55873 11.74735,8.6103 16.32056,14.12356 14.2582,17.18906 25.61519,37.5607 40.17369,53.9834 2.59901,2.93181 7.5547,4.02341 11.29885,4.08014 3.16071,0.0479 7.16722,-1.56776 9.41571,-3.76629 2.45936,-2.40471 4.27349,-6.56855 4.70785,-10.04342 0.40259,-3.22075 -0.70247,-6.99901 -2.197,-10.04342 -4.1549,-8.46368 -10.0253,-16.21039 -14.75127,-24.48084 -6.99136,-12.23487 -13.96329,-24.50513 -20.40071,-37.03512 -5.2799,-10.27695 -10.95415,-20.53678 -14.75127,-31.3857 -3.52621,-10.07488 -5.99654,-20.81396 -7.21871,-31.3857 -0.87021,-7.52735 -0.0783,-15.37604 0.94157,-22.91156 0.8633,-6.37881 2.50383,-12.77036 4.70785,-18.83141 3.65465,-10.05028 7.59638,-20.21652 12.86814,-29.50256 6.13171,-10.80081 13.73015,-20.89965 21.34227,-30.75798 5.15139,-6.67147 10.86898,-12.98898 16.94828,-18.83142 10.03202,-9.64117 20.36719,-19.13949 31.38569,-27.61941 10.32378,-7.94526 21.18093,-15.52625 32.64113,-21.65613 11.03288,-5.90131 22.88502,-10.77714 34.83812,-14.43742 9.91227,-3.03534 20.42821,-4.51429 30.75798,-5.64943 8.71089,-0.95724 17.64297,-1.57163 26.36399,-0.62771 35.74205,3.86855 71.42677,11.94246 107.02522,15.06513 6.14452,0.53899 12.77137,-1.38845 18.2037,-4.08014 6.18038,-3.06235 12.21296,-7.81307 16.63442,-13.18199 5.8312,-7.08074 10.53859,-15.63372 14.12357,-24.16698 3.84297,-9.14735 6.81627,-19.10023 8.16028,-28.87484 0.95761,-6.96443 1.01054,-14.83993 -1.25543,-21.34228 -2.5465,-7.30735 -7.70465,-14.6095 -13.18199,-20.08684 -3.51989,-3.51989 -8.94717,-5.4124 -13.80971,-6.90486 -5.70398,-1.750726 -11.93621,-3.041996 -17.88985,-2.824709 -8.37916,0.30581 -16.96956,2.062731 -25.10855,4.393999 -12.68019,3.63202 -24.99345,8.75133 -37.34898,13.49585 -13.79922,5.2989 -27.58708,10.68856 -41.11526,16.63442 -12.41733,5.45761 -24.71498,11.26611 -36.72127,17.57599 -16.65931,8.75526 -33.46601,17.4459 -49.27554,27.61941 -18.81935,12.11034 -36.87615,25.54647 -54.61111,39.23212 -18.46321,14.24762 -35.93445,29.77825 -53.9834,44.56769 -20.76469,17.01474 -41.82698,33.6699 -62.45753,50.84483 -21.21705,17.66319 -42.27235,35.53139 -63.08525,53.66954 -31.28736,27.26649 -63.05016,54.26436 -93.21552,82.54438 -3.31272,3.10567 -5.92092,7.29505 -7.21871,11.6127 -4.1424,13.78143 -7.26331,28.31049 -9.10185,42.68455 -1.61388,12.61764 -2.6735,25.66298 -1.25543,38.29055 2.97593,26.49993 8.79863,52.90789 14.43742,79.09195 4.92773,22.88224 13.36877,45.15661 17.26213,68.10696 2.06992,12.20163 1.5234,25.25734 0.62772,37.34898 -0.15051,2.03192 -1.8921,4.26796 -3.76629,5.02171 -7.75075,3.11715 -17.63824,3.08453 -25.10855,6.591 -2.78235,1.306 -5.52681,4.8423 -5.64943,7.84642 -0.29586,7.24854 2.27126,15.19919 2.894,22.91156 0.73731,9.13129 0.94222,18.6285 -0.31386,27.61941 -0.73168,5.23728 -1.9704,10.17563 -4.14942,15.06514 -2.11036,4.73544 -4.37031,9.49117 -7.21871,13.80971 -3.63798,5.51564 -7.56443,11.07121 -12.24043,15.69284 -4.32123,4.27099 -9.47717,7.89216 -14.75127,10.985 -11.67417,6.84596 -23.73445,13.33129 -36.09355,18.83141 -7.62313,3.39249 -15.78725,5.66192 -23.85313,7.84643 -6.99925,1.89563 -14.1575,3.33713 -21.34228,4.394 -70.33789,10.3466 -140.885016,19.42373 -211.22573,29.81641 z" sodipodi:nodetypes="cssssssssssssssssssssssssssssssssssssssssssssssssssssssssssssssssssssssssssssssssssssssssssssssssssssssssssssssssss" fill="none" stroke="#000000" stroke-width="2" d="
	M271.686,704.709c-35.88,5.302-71.614,11.581-107.48,16.971c-25.785,3.873-51.609,7.854-77.474,10.822
	c-4.879,0.56-9.878,0.232-14.756-0.246c-4.305-0.422-8.729-1.041-12.789-2.46c-4.63-1.615-9.292-3.786-13.281-6.641
	c-5.521-3.95-10.745-8.675-15.249-13.773c-4.187-4.739-8.116-10.122-10.823-15.74c-1.557-3.235-1.967-7.207-1.967-10.823
	c0-4.093,0.439-8.563,1.967-12.297c1.424-3.48,4.199-6.617,6.887-9.345c2.642-2.685,5.775-5.161,9.1-6.887
	c3.151-1.636,6.79-2.67,10.331-3.197c5.805-0.866,11.801-0.773,17.709-0.984c23.852-0.855,47.846-0.701,71.571-2.213
	c3.248-0.209,6.47-1.479,9.346-2.953c3.683-1.887,7.348-4.277,10.331-7.134c2.839-2.719,5.079-6.193,7.133-9.592
	c2.702-4.472,4.156-9.795,7.133-14.019c2.106-2.991,5.038-5.648,8.116-7.625c3.562-2.286,7.716-4.096,11.805-5.164
	c3.125-0.817,6.567-0.608,9.838-0.492c3.698,0.131,7.467,0.365,11.067,1.229c10.748,2.58,21.232,6.443,31.974,9.099
	c4.508,1.114,9.206,2.302,13.773,2.214c4.123-0.078,8.427-1.205,12.297-2.705c4.164-1.615,8.246-3.948,11.805-6.642
	c2.836-2.144,5.291-4.956,7.378-7.87c5.374-7.498,9.515-15.971,15.004-23.365c2.544-3.428,5.674-6.602,9.099-9.099
	c3.543-2.586,7.708-4.52,11.806-6.149c3.526-1.404,7.311-2.416,11.068-2.952c4.278-0.611,8.799-1.065,13.035-0.492
	c3.637,0.493,7.248,2.072,10.576,3.689c2.574,1.251,5.061,2.938,7.133,4.918c3.584,3.429,6.686,7.438,9.839,11.314
	c3.979,4.896,7.503,10.17,11.56,15.003c3.651,4.353,7.084,9.208,11.56,12.544c4.214,3.142,9.493,5.166,14.511,6.886
	c3.348,1.15,7.031,1.612,10.576,1.722c4.327,0.136,8.917,0.218,13.036-0.984c5.719-1.668,11.266-4.588,16.479-7.623
	c6.757-3.936,13.403-8.311,19.43-13.281c5.697-4.702,10.884-10.164,15.741-15.741c3.424-3.935,6.409-8.316,9.1-12.789
	c3.376-5.611,6.728-11.394,9.099-17.463c1.89-4.835,2.721-10.116,3.688-15.249c0.998-5.277,1.814-10.63,2.214-15.984
	c0.42-5.633,0.629-11.345,0.246-16.971c-0.439-6.424-1.122-12.955-2.706-19.184c-2.022-7.952-5.29-15.621-8.116-23.364
	c-7.585-20.786-16.635-41.332-23.119-62.226c-0.895-2.881-0.183-6.298,0.983-9.1c9.326-22.367,19.519-44.893,30.499-66.405
	c1.156-2.264,3.654-3.919,5.902-4.919c2.178-0.968,5.026-1.736,7.379-0.984c11.675,3.733,23.393,7.493,35.117,11.301l15.498,5.065"
	/>
<path id="sector02" inkscape:path-effect="#path-effect4364" inkscape:original-d="m -28.87484,911.44041 c -45.786359,6.76483 -91.38624,14.77857 -137.15549,21.65613 -32.90422,4.94438 -65.85991,10.02512 -98.86494,13.8097 -6.22709,0.71404 -12.60683,0.29749 -18.83142,-0.31385 -5.49273,-0.53946 -11.13885,-1.32986 -16.32056,-3.13857 -5.9079,-2.06219 -11.85737,-4.83151 -16.94828,-8.47414 -7.04489,-5.04074 -13.71207,-11.06988 -19.45913,-17.57599 -5.34255,-6.04817 -10.35741,-12.91669 -13.80971,-20.08685 -1.98789,-4.12869 -2.51085,-9.1976 -2.51085,-13.8097 0,-5.22208 0.56161,-10.92803 2.51085,-15.69285 1.81704,-4.44165 5.35878,-8.44458 8.788,-11.92656 3.37101,-3.42287 7.36892,-6.58553 11.6127,-8.788 4.02112,-2.08691 8.66463,-3.4065 13.182,-4.08014 7.4092,-1.10488 15.05871,-0.98544 22.5977,-1.25543 30.4377,-1.09006 61.05671,-0.89222 91.33237,-2.82471 4.14399,-0.26451 8.257,-1.88563 11.92657,-3.76628 4.69995,-2.40873 9.37711,-5.45775 13.18199,-9.10186 3.62307,-3.46998 6.48174,-7.90369 9.10185,-12.24042 3.44779,-5.70669 5.30414,-12.49954 9.10185,-17.88984 2.68867,-3.81617 6.42891,-7.20765 10.35728,-9.72957 4.54577,-2.91827 9.84729,-5.22724 15.06514,-6.591 3.98862,-1.04248 8.38034,-0.77503 12.55428,-0.62771 4.71868,0.16654 9.52954,0.46671 14.12356,1.56928 13.714299,3.29143 27.094234,8.22276 40.801404,11.61271 5.751961,1.42253 11.747408,2.93468 17.57599,2.82471 5.261031,-0.0993 10.753541,-1.53718 15.692848,-3.45242 5.313354,-2.06028 10.522722,-5.03821 15.065134,-8.47414 3.617869,-2.73659 6.751829,-6.3257 9.4157091,-10.04342 6.8564477,-9.56889 12.139597,-20.38019 19.1452749,-29.81641 3.246983,-4.37349 7.241351,-8.42419 11.612707,-11.61271 4.521257,-3.29786 9.835697,-5.7659 15.065134,-7.84643 4.500129,-1.79037 9.329958,-3.08148 14.123564,-3.76628 5.459055,-0.77986 11.230826,-1.35945 16.634419,-0.62771 4.63983,0.62831 9.248651,2.64324 13.495849,4.70785 3.285369,1.59705 6.458044,3.74828 9.101852,6.27714 4.574901,4.37599 8.532692,9.49133 12.554275,14.43742 5.08027,6.24815 9.5771,12.9803 14.75128,19.14528 4.66001,5.55235 9.03983,11.75005 14.75128,16.0067 5.37816,4.00825 12.11653,6.59157 18.51756,8.788 4.2701,1.46523 8.97179,2.05561 13.49585,2.19699 5.51937,0.17248 11.37929,0.27733 16.63442,-1.25542 7.29915,-2.12892 14.37645,-5.85685 21.02841,-9.72957 8.62241,-5.0199 17.10624,-10.60396 24.7947,-16.94828 7.27206,-6.00072 13.88991,-12.96956 20.08685,-20.08684 4.36958,-5.01852 8.17878,-10.61281 11.61271,-16.32056 4.30787,-7.16039 8.58488,-14.53963 11.6127,-22.28385 2.41237,-6.17011 3.4702,-12.90984 4.70786,-19.45913 1.2732,-6.73732 2.31478,-13.56758 2.82471,-20.4007 0.53626,-7.18583 0.80239,-14.47472 0.31386,-21.65613 -0.55766,-8.19758 -1.43055,-16.53116 -3.45243,-24.48084 -2.58135,-10.1494 -6.75044,-19.93311 -10.35728,-29.81642 -9.67977,-26.5241 -21.22782,-52.7428 -29.50255,-79.40581 -1.14098,-3.67649 -0.23522,-8.0375 1.25542,-11.6127 11.90059,-28.54283 24.90784,-57.2885 38.91827,-84.74138 1.47318,-2.88663 4.66305,-5.0018 7.53256,-6.27714 2.77991,-1.23552 6.41341,-2.21541 9.41571,-1.25543 63.74462,20.38229 128.45146,41.37238 190.82504,65.28225 6.67495,2.55873 11.74735,8.6103 16.32056,14.12356 14.2582,17.18906 25.61519,37.5607 40.17369,53.9834 2.59901,2.93181 7.5547,4.02341 11.29885,4.08014 3.16071,0.0479 7.16722,-1.56776 9.41571,-3.76629 2.45936,-2.40471 4.27349,-6.56855 4.70785,-10.04342 0.40259,-3.22075 -0.70247,-6.99901 -2.197,-10.04342 -4.1549,-8.46368 -10.0253,-16.21039 -14.75127,-24.48084 -6.99136,-12.23487 -13.96329,-24.50513 -20.40071,-37.03512 -5.2799,-10.27695 -10.95415,-20.53678 -14.75127,-31.3857 -3.52621,-10.07488 -5.99654,-20.81396 -7.21871,-31.3857 -0.87021,-7.52735 -0.0783,-15.37604 0.94157,-22.91156 0.8633,-6.37881 2.50383,-12.77036 4.70785,-18.83141 3.65465,-10.05028 7.59638,-20.21652 12.86814,-29.50256 6.13171,-10.80081 13.73015,-20.89965 21.34227,-30.75798 5.15139,-6.67147 10.86898,-12.98898 16.94828,-18.83142 10.03202,-9.64117 20.36719,-19.13949 31.38569,-27.61941 10.32378,-7.94526 21.18093,-15.52625 32.64113,-21.65613 11.03288,-5.90131 22.88502,-10.77714 34.83812,-14.43742 9.91227,-3.03534 20.42821,-4.51429 30.75798,-5.64943 8.71089,-0.95724 17.64297,-1.57163 26.36399,-0.62771 35.74205,3.86855 71.42677,11.94246 107.02522,15.06513 6.14452,0.53899 12.77137,-1.38845 18.2037,-4.08014 6.18038,-3.06235 12.21296,-7.81307 16.63442,-13.18199 5.8312,-7.08074 10.53859,-15.63372 14.12357,-24.16698 3.84297,-9.14735 6.81627,-19.10023 8.16028,-28.87484 0.95761,-6.96443 1.01054,-14.83993 -1.25543,-21.34228 -2.5465,-7.30735 -7.70465,-14.6095 -13.18199,-20.08684 -3.51989,-3.51989 -8.94717,-5.4124 -13.80971,-6.90486 -5.70398,-1.750726 -11.93621,-3.041996 -17.88985,-2.824709 -8.37916,0.30581 -16.96956,2.062731 -25.10855,4.393999 -12.68019,3.63202 -24.99345,8.75133 -37.34898,13.49585 -13.79922,5.2989 -27.58708,10.68856 -41.11526,16.63442 -12.41733,5.45761 -24.71498,11.26611 -36.72127,17.57599 -16.65931,8.75526 -33.46601,17.4459 -49.27554,27.61941 -18.81935,12.11034 -36.87615,25.54647 -54.61111,39.23212 -18.46321,14.24762 -35.93445,29.77825 -53.9834,44.56769 -20.76469,17.01474 -41.82698,33.6699 -62.45753,50.84483 -21.21705,17.66319 -42.27235,35.53139 -63.08525,53.66954 -31.28736,27.26649 -63.05016,54.26436 -93.21552,82.54438 -3.31272,3.10567 -5.92092,7.29505 -7.21871,11.6127 -4.1424,13.78143 -7.26331,28.31049 -9.10185,42.68455 -1.61388,12.61764 -2.6735,25.66298 -1.25543,38.29055 2.97593,26.49993 8.79863,52.90789 14.43742,79.09195 4.92773,22.88224 13.36877,45.15661 17.26213,68.10696 2.06992,12.20163 1.5234,25.25734 0.62772,37.34898 -0.15051,2.03192 -1.8921,4.26796 -3.76629,5.02171 -7.75075,3.11715 -17.63824,3.08453 -25.10855,6.591 -2.78235,1.306 -5.52681,4.8423 -5.64943,7.84642 -0.29586,7.24854 2.27126,15.19919 2.894,22.91156 0.73731,9.13129 0.94222,18.6285 -0.31386,27.61941 -0.73168,5.23728 -1.9704,10.17563 -4.14942,15.06514 -2.11036,4.73544 -4.37031,9.49117 -7.21871,13.80971 -3.63798,5.51564 -7.56443,11.07121 -12.24043,15.69284 -4.32123,4.27099 -9.47717,7.89216 -14.75127,10.985 -11.67417,6.84596 -23.73445,13.33129 -36.09355,18.83141 -7.62313,3.39249 -15.78725,5.66192 -23.85313,7.84643 -6.99925,1.89563 -14.1575,3.33713 -21.34228,4.394 -70.33789,10.3466 -140.885016,19.42373 -211.22573,29.81641 z" sodipodi:nodetypes="cssssssssssssssssssssssssssssssssssssssssssssssssssssssssssssssssssssssssssssssssssssssssssssssssssssssssssssssssss" fill="none" stroke="#000000" stroke-width="2" d="
	M572.549,315.924c-9.493,8.401-18.893,16.883-28.104,25.517c-2.596,2.433-4.639,5.716-5.657,9.101
	c-3.247,10.799-5.692,22.185-7.133,33.449c-1.264,9.888-2.095,20.111-0.983,30.006c2.332,20.766,6.895,41.46,11.314,61.98
	c3.863,17.932,10.476,35.386,13.528,53.37c1.621,9.562,1.192,19.792,0.492,29.268c-0.118,1.593-1.485,3.347-2.954,3.935
	c-6.074,2.443-13.821,2.418-19.674,5.166c-2.181,1.024-4.332,3.794-4.427,6.148c-0.232,5.681,1.78,11.91,2.269,17.954
	c0.576,7.155,0.737,14.598-0.246,21.644c-0.573,4.104-1.544,7.975-3.252,11.806c-1.652,3.71-3.423,7.438-5.657,10.822
	c-2.851,4.323-5.926,8.676-9.592,12.297c-3.385,3.347-7.427,6.185-11.56,8.606c-9.148,5.366-18.598,10.447-28.284,14.757
	c-5.974,2.66-12.372,4.438-18.692,6.15c-5.485,1.485-11.094,2.615-16.726,3.443c-55.119,8.108-110.403,15.222-165.524,23.365"/>
<path id="sector01" inkscape:path-effect="#path-effect4364" inkscape:original-d="m -28.87484,911.44041 c -45.786359,6.76483 -91.38624,14.77857 -137.15549,21.65613 -32.90422,4.94438 -65.85991,10.02512 -98.86494,13.8097 -6.22709,0.71404 -12.60683,0.29749 -18.83142,-0.31385 -5.49273,-0.53946 -11.13885,-1.32986 -16.32056,-3.13857 -5.9079,-2.06219 -11.85737,-4.83151 -16.94828,-8.47414 -7.04489,-5.04074 -13.71207,-11.06988 -19.45913,-17.57599 -5.34255,-6.04817 -10.35741,-12.91669 -13.80971,-20.08685 -1.98789,-4.12869 -2.51085,-9.1976 -2.51085,-13.8097 0,-5.22208 0.56161,-10.92803 2.51085,-15.69285 1.81704,-4.44165 5.35878,-8.44458 8.788,-11.92656 3.37101,-3.42287 7.36892,-6.58553 11.6127,-8.788 4.02112,-2.08691 8.66463,-3.4065 13.182,-4.08014 7.4092,-1.10488 15.05871,-0.98544 22.5977,-1.25543 30.4377,-1.09006 61.05671,-0.89222 91.33237,-2.82471 4.14399,-0.26451 8.257,-1.88563 11.92657,-3.76628 4.69995,-2.40873 9.37711,-5.45775 13.18199,-9.10186 3.62307,-3.46998 6.48174,-7.90369 9.10185,-12.24042 3.44779,-5.70669 5.30414,-12.49954 9.10185,-17.88984 2.68867,-3.81617 6.42891,-7.20765 10.35728,-9.72957 4.54577,-2.91827 9.84729,-5.22724 15.06514,-6.591 3.98862,-1.04248 8.38034,-0.77503 12.55428,-0.62771 4.71868,0.16654 9.52954,0.46671 14.12356,1.56928 13.714299,3.29143 27.094234,8.22276 40.801404,11.61271 5.751961,1.42253 11.747408,2.93468 17.57599,2.82471 5.261031,-0.0993 10.753541,-1.53718 15.692848,-3.45242 5.313354,-2.06028 10.522722,-5.03821 15.065134,-8.47414 3.617869,-2.73659 6.751829,-6.3257 9.4157091,-10.04342 6.8564477,-9.56889 12.139597,-20.38019 19.1452749,-29.81641 3.246983,-4.37349 7.241351,-8.42419 11.612707,-11.61271 4.521257,-3.29786 9.835697,-5.7659 15.065134,-7.84643 4.500129,-1.79037 9.329958,-3.08148 14.123564,-3.76628 5.459055,-0.77986 11.230826,-1.35945 16.634419,-0.62771 4.63983,0.62831 9.248651,2.64324 13.495849,4.70785 3.285369,1.59705 6.458044,3.74828 9.101852,6.27714 4.574901,4.37599 8.532692,9.49133 12.554275,14.43742 5.08027,6.24815 9.5771,12.9803 14.75128,19.14528 4.66001,5.55235 9.03983,11.75005 14.75128,16.0067 5.37816,4.00825 12.11653,6.59157 18.51756,8.788 4.2701,1.46523 8.97179,2.05561 13.49585,2.19699 5.51937,0.17248 11.37929,0.27733 16.63442,-1.25542 7.29915,-2.12892 14.37645,-5.85685 21.02841,-9.72957 8.62241,-5.0199 17.10624,-10.60396 24.7947,-16.94828 7.27206,-6.00072 13.88991,-12.96956 20.08685,-20.08684 4.36958,-5.01852 8.17878,-10.61281 11.61271,-16.32056 4.30787,-7.16039 8.58488,-14.53963 11.6127,-22.28385 2.41237,-6.17011 3.4702,-12.90984 4.70786,-19.45913 1.2732,-6.73732 2.31478,-13.56758 2.82471,-20.4007 0.53626,-7.18583 0.80239,-14.47472 0.31386,-21.65613 -0.55766,-8.19758 -1.43055,-16.53116 -3.45243,-24.48084 -2.58135,-10.1494 -6.75044,-19.93311 -10.35728,-29.81642 -9.67977,-26.5241 -21.22782,-52.7428 -29.50255,-79.40581 -1.14098,-3.67649 -0.23522,-8.0375 1.25542,-11.6127 11.90059,-28.54283 24.90784,-57.2885 38.91827,-84.74138 1.47318,-2.88663 4.66305,-5.0018 7.53256,-6.27714 2.77991,-1.23552 6.41341,-2.21541 9.41571,-1.25543 63.74462,20.38229 128.45146,41.37238 190.82504,65.28225 6.67495,2.55873 11.74735,8.6103 16.32056,14.12356 14.2582,17.18906 25.61519,37.5607 40.17369,53.9834 2.59901,2.93181 7.5547,4.02341 11.29885,4.08014 3.16071,0.0479 7.16722,-1.56776 9.41571,-3.76629 2.45936,-2.40471 4.27349,-6.56855 4.70785,-10.04342 0.40259,-3.22075 -0.70247,-6.99901 -2.197,-10.04342 -4.1549,-8.46368 -10.0253,-16.21039 -14.75127,-24.48084 -6.99136,-12.23487 -13.96329,-24.50513 -20.40071,-37.03512 -5.2799,-10.27695 -10.95415,-20.53678 -14.75127,-31.3857 -3.52621,-10.07488 -5.99654,-20.81396 -7.21871,-31.3857 -0.87021,-7.52735 -0.0783,-15.37604 0.94157,-22.91156 0.8633,-6.37881 2.50383,-12.77036 4.70785,-18.83141 3.65465,-10.05028 7.59638,-20.21652 12.86814,-29.50256 6.13171,-10.80081 13.73015,-20.89965 21.34227,-30.75798 5.15139,-6.67147 10.86898,-12.98898 16.94828,-18.83142 10.03202,-9.64117 20.36719,-19.13949 31.38569,-27.61941 10.32378,-7.94526 21.18093,-15.52625 32.64113,-21.65613 11.03288,-5.90131 22.88502,-10.77714 34.83812,-14.43742 9.91227,-3.03534 20.42821,-4.51429 30.75798,-5.64943 8.71089,-0.95724 17.64297,-1.57163 26.36399,-0.62771 35.74205,3.86855 71.42677,11.94246 107.02522,15.06513 6.14452,0.53899 12.77137,-1.38845 18.2037,-4.08014 6.18038,-3.06235 12.21296,-7.81307 16.63442,-13.18199 5.8312,-7.08074 10.53859,-15.63372 14.12357,-24.16698 3.84297,-9.14735 6.81627,-19.10023 8.16028,-28.87484 0.95761,-6.96443 1.01054,-14.83993 -1.25543,-21.34228 -2.5465,-7.30735 -7.70465,-14.6095 -13.18199,-20.08684 -3.51989,-3.51989 -8.94717,-5.4124 -13.80971,-6.90486 -5.70398,-1.750726 -11.93621,-3.041996 -17.88985,-2.824709 -8.37916,0.30581 -16.96956,2.062731 -25.10855,4.393999 -12.68019,3.63202 -24.99345,8.75133 -37.34898,13.49585 -13.79922,5.2989 -27.58708,10.68856 -41.11526,16.63442 -12.41733,5.45761 -24.71498,11.26611 -36.72127,17.57599 -16.65931,8.75526 -33.46601,17.4459 -49.27554,27.61941 -18.81935,12.11034 -36.87615,25.54647 -54.61111,39.23212 -18.46321,14.24762 -35.93445,29.77825 -53.9834,44.56769 -20.76469,17.01474 -41.82698,33.6699 -62.45753,50.84483 -21.21705,17.66319 -42.27235,35.53139 -63.08525,53.66954 -31.28736,27.26649 -63.05016,54.26436 -93.21552,82.54438 -3.31272,3.10567 -5.92092,7.29505 -7.21871,11.6127 -4.1424,13.78143 -7.26331,28.31049 -9.10185,42.68455 -1.61388,12.61764 -2.6735,25.66298 -1.25543,38.29055 2.97593,26.49993 8.79863,52.90789 14.43742,79.09195 4.92773,22.88224 13.36877,45.15661 17.26213,68.10696 2.06992,12.20163 1.5234,25.25734 0.62772,37.34898 -0.15051,2.03192 -1.8921,4.26796 -3.76629,5.02171 -7.75075,3.11715 -17.63824,3.08453 -25.10855,6.591 -2.78235,1.306 -5.52681,4.8423 -5.64943,7.84642 -0.29586,7.24854 2.27126,15.19919 2.894,22.91156 0.73731,9.13129 0.94222,18.6285 -0.31386,27.61941 -0.73168,5.23728 -1.9704,10.17563 -4.14942,15.06514 -2.11036,4.73544 -4.37031,9.49117 -7.21871,13.80971 -3.63798,5.51564 -7.56443,11.07121 -12.24043,15.69284 -4.32123,4.27099 -9.47717,7.89216 -14.75127,10.985 -11.67417,6.84596 -23.73445,13.33129 -36.09355,18.83141 -7.62313,3.39249 -15.78725,5.66192 -23.85313,7.84643 -6.99925,1.89563 -14.1575,3.33713 -21.34228,4.394 -70.33789,10.3466 -140.885016,19.42373 -211.22573,29.81641 z" sodipodi:nodetypes="cssssssssssssssssssssssssssssssssssssssssssssssssssssssssssssssssssssssssssssssssssssssssssssssssssssssssssssssssss" fill="none" stroke="#000000" stroke-width="2" d="
	M573.662,324.357c33.278,10.943,66.501,22.364,98.921,34.792c5.231,2.005,9.206,6.746,12.79,11.068
	c11.173,13.469,20.072,29.434,31.481,42.302c2.037,2.297,5.92,3.153,8.854,3.197c2.478,0.038,5.617-1.229,7.379-2.951
	c1.928-1.884,3.349-5.147,3.689-7.87c0.315-2.525-0.55-5.485-1.722-7.872c-3.254-6.633-7.854-12.704-11.56-19.183
	c-5.477-9.588-10.941-19.203-15.985-29.022c-4.138-8.054-8.584-16.094-11.56-24.595c-2.763-7.895-4.699-16.31-5.658-24.595
	c-0.681-5.899-0.061-12.049,0.737-17.954c0.678-4.999,1.962-10.008,3.689-14.757c2.864-7.875,5.953-15.842,10.084-23.12
	c4.805-8.464,10.758-16.376,16.725-24.103c4.037-5.228,8.518-10.178,13.281-14.757c7.861-7.556,15.961-14.999,24.596-21.643
	c8.089-6.227,16.598-12.167,25.579-16.971c8.645-4.624,17.935-8.445,27.301-11.314c7.767-2.378,16.009-3.538,24.104-4.426
	c6.826-0.75,13.825-1.232,20.657-0.492c28.009,3.031,55.976,9.358,83.869,11.805c4.816,0.423,10.009-1.088,14.266-3.197
	c4.844-2.399,9.57-6.123,13.035-10.33c4.569-5.549,8.259-12.252,11.067-18.938c3.012-7.167,5.342-14.968,6.395-22.628
	c0.751-5.457,0.793-11.629-0.983-16.724c-1.995-5.726-6.037-11.448-10.33-15.741c-2.76-2.759-7.011-4.241-10.823-5.411
	c-4.47-1.371-9.353-2.383-14.019-2.213c-6.566,0.24-13.3,1.616-19.676,3.445c-9.938,2.846-19.587,6.858-29.269,10.576
	c-10.813,4.153-21.618,8.375-32.22,13.035c-9.73,4.277-19.367,8.83-28.775,13.773c-13.055,6.861-26.226,13.672-38.614,21.644
	c-14.746,9.49-28.897,20.019-42.794,30.744c-14.47,11.165-28.161,23.335-42.303,34.924c-16.272,13.333-32.777,26.385-48.944,39.844
	c-16.627,13.841-33.126,27.844-49.436,42.058c-14.965,13.042-30.069,26.007-44.943,39.167"/>
</svg>
