<?xml version="1.0" encoding="utf-8"?>
<!-- Generator: Adobe Illustrator 16.0.4, SVG Export Plug-In . SVG Version: 6.00 Build 0)  -->
<!DOCTYPE svg PUBLIC "-//W3C//DTD SVG 1.1//EN" "http://www.w3.org/Graphics/SVG/1.1/DTD/svg11.dtd">
<svg version="1.1"
	 id="svg2" xmlns:dc="http://purl.org/dc/elements/1.1/" xmlns:cc="http://creativecommons.org/ns#" xmlns:rdf="http://www.w3.org/1999/02/22-rdf-syntax-ns#" xmlns:svg="http://www.w3.org/2000/svg" xmlns:sodipodi="http://sodipodi.sourceforge.net/DTD/sodipodi-0.dtd" xmlns:inkscape="http://www.inkscape.org/namespaces/inkscape" sodipodi:docname="Suzuka circuit map--2005.svg" inkscape:version="0.47 r22583" inkscape:export-filename="E:\Images\Maps\Race Tracks\Asia\Japan\Suzuka circuit map-2005.png" inkscape:export-ydpi="90" inkscape:export-xdpi="90"
	 xmlns="http://www.w3.org/2000/svg" xmlns:xlink="http://www.w3.org/1999/xlink" x="0px" y="0px" width="1272.682px"
	 height="983.406px" viewBox="0 0 1272.682 983.406" enable-background="new 0 0 1272.682 983.406" xml:space="preserve">
<title  id="title4362">2005 Track map for Suzuka in Japan</title>
<path id="background" fill="none" stroke="#000000" stroke-width="2" d="M271.686,704.709c-35.88,5.302-71.614,11.581-107.48,16.971
	c-25.785,3.873-51.609,7.854-77.474,10.822c-4.879,0.561-9.878,0.232-14.756-0.246c-4.305-0.422-8.729-1.041-12.789-2.46
	c-4.63-1.615-9.292-3.786-13.281-6.641c-5.521-3.95-10.745-8.675-15.249-13.773c-4.187-4.739-8.116-10.122-10.823-15.74
	c-1.557-3.234-1.967-7.206-1.967-10.822c0-4.094,0.439-8.563,1.967-12.297c1.424-3.48,4.199-6.617,6.887-9.346
	c2.642-2.685,5.775-5.161,9.1-6.887c3.151-1.636,6.79-2.67,10.331-3.197c5.805-0.866,11.801-0.772,17.709-0.983
	c23.852-0.855,47.846-0.701,71.571-2.213c3.248-0.209,6.47-1.479,9.346-2.953c3.683-1.888,7.348-4.277,10.331-7.135
	c2.839-2.719,5.079-6.192,7.133-9.592c2.702-4.472,4.156-9.795,7.133-14.019c2.106-2.991,5.038-5.648,8.116-7.625
	c3.562-2.286,7.716-4.097,11.805-5.164c3.125-0.817,6.567-0.608,9.838-0.492c3.698,0.131,7.467,0.365,11.067,1.229
	c10.748,2.58,21.232,6.442,31.974,9.099c4.508,1.114,9.206,2.302,13.773,2.214c4.123-0.078,8.427-1.205,12.297-2.705
	c4.164-1.615,8.246-3.948,11.805-6.642c2.836-2.145,5.291-4.956,7.378-7.87c5.374-7.498,9.515-15.971,15.004-23.365
	c2.544-3.428,5.674-6.602,9.099-9.099c3.543-2.586,7.708-4.521,11.806-6.149c3.526-1.404,7.311-2.416,11.068-2.952
	c4.278-0.61,8.799-1.064,13.035-0.492c3.637,0.493,7.248,2.072,10.576,3.689c2.574,1.251,5.061,2.938,7.133,4.918
	c3.584,3.429,6.686,7.438,9.839,11.314c3.979,4.896,7.503,10.17,11.56,15.003c3.651,4.353,7.084,9.208,11.561,12.544
	c4.214,3.142,9.492,5.166,14.511,6.886c3.348,1.15,7.031,1.612,10.576,1.722c4.326,0.137,8.917,0.219,13.035-0.983
	c5.72-1.668,11.267-4.588,16.479-7.623c6.757-3.937,13.403-8.312,19.43-13.281c5.697-4.702,10.884-10.164,15.741-15.741
	c3.424-3.935,6.409-8.315,9.1-12.789c3.377-5.61,6.729-11.394,9.1-17.463c1.89-4.835,2.721-10.116,3.688-15.249
	c0.998-5.277,1.814-10.63,2.215-15.984c0.42-5.633,0.629-11.345,0.245-16.971c-0.438-6.424-1.122-12.955-2.706-19.184
	c-2.021-7.952-5.289-15.621-8.115-23.364c-7.585-20.786-16.636-41.332-23.119-62.226c-0.896-2.882-0.184-6.299,0.982-9.101
	c9.326-22.367,19.52-44.893,30.499-66.405c1.156-2.264,3.654-3.919,5.902-4.919c2.178-0.968,5.026-1.735,7.379-0.983
	c11.675,3.732,23.394,7.493,35.117,11.301l15.498,5.065 M572.549,315.924c-9.493,8.401-18.893,16.883-28.104,25.518
	c-2.597,2.433-4.64,5.716-5.657,9.101c-3.247,10.799-5.692,22.185-7.133,33.449c-1.265,9.888-2.095,20.11-0.983,30.006
	c2.332,20.766,6.896,41.46,11.314,61.979c3.862,17.933,10.476,35.387,13.527,53.37c1.621,9.562,1.192,19.792,0.492,29.269
	c-0.118,1.593-1.484,3.347-2.954,3.935c-6.073,2.443-13.82,2.418-19.674,5.166c-2.181,1.024-4.332,3.794-4.427,6.148
	c-0.232,5.681,1.78,11.91,2.269,17.954c0.576,7.154,0.737,14.598-0.245,21.644c-0.573,4.104-1.545,7.976-3.253,11.806
	c-1.651,3.711-3.423,7.438-5.656,10.822c-2.852,4.323-5.927,8.676-9.593,12.297c-3.385,3.348-7.427,6.186-11.56,8.606
	c-9.147,5.366-18.598,10.447-28.284,14.757c-5.974,2.66-12.372,4.438-18.691,6.15c-5.485,1.484-11.095,2.615-16.727,3.442
	c-55.119,8.108-110.403,15.223-165.524,23.365 M573.662,324.357c33.278,10.942,66.501,22.363,98.921,34.792
	c5.231,2.005,9.206,6.745,12.79,11.067c11.173,13.469,20.072,29.435,31.48,42.302c2.037,2.298,5.921,3.153,8.854,3.197
	c2.478,0.038,5.617-1.229,7.379-2.951c1.928-1.884,3.349-5.146,3.689-7.87c0.314-2.524-0.55-5.484-1.723-7.871
	c-3.254-6.634-7.854-12.704-11.56-19.184c-5.477-9.588-10.941-19.203-15.985-29.021c-4.138-8.055-8.584-16.095-11.56-24.596
	c-2.763-7.895-4.699-16.31-5.658-24.595c-0.681-5.899-0.061-12.049,0.737-17.954c0.678-4.999,1.962-10.008,3.688-14.757
	c2.864-7.875,5.953-15.842,10.084-23.12c4.806-8.464,10.758-16.376,16.726-24.103c4.037-5.228,8.518-10.178,13.28-14.757
	c7.861-7.556,15.961-14.999,24.597-21.643c8.089-6.227,16.598-12.167,25.579-16.971c8.645-4.624,17.935-8.445,27.301-11.314
	c7.767-2.378,16.009-3.538,24.104-4.426c6.826-0.75,13.825-1.232,20.657-0.492c28.009,3.031,55.977,9.358,83.869,11.805
	c4.815,0.423,10.009-1.088,14.266-3.197c4.845-2.399,9.57-6.123,13.035-10.33c4.569-5.549,8.259-12.252,11.067-18.938
	c3.012-7.167,5.342-14.968,6.395-22.628c0.751-5.457,0.793-11.629-0.982-16.724c-1.995-5.726-6.037-11.448-10.33-15.741
	c-2.76-2.759-7.012-4.241-10.823-5.411c-4.47-1.371-9.353-2.383-14.019-2.213c-6.566,0.24-13.301,1.616-19.677,3.445
	c-9.938,2.846-19.587,6.858-29.269,10.576c-10.813,4.153-21.618,8.375-32.22,13.035c-9.73,4.277-19.367,8.83-28.775,13.773
	c-13.055,6.861-26.226,13.672-38.614,21.644c-14.746,9.49-28.896,20.019-42.794,30.744c-14.47,11.165-28.161,23.335-42.303,34.924
	c-16.272,13.333-32.777,26.385-48.944,39.844c-16.627,13.841-33.126,27.844-49.436,42.058
	c-14.965,13.042-30.069,26.007-44.943,39.167"/>
<path id="sector12" fill="none" stroke="#000000" stroke-width="2" d="M272.125,707.677c-18.764,2.772-37.812,5.865-56.233,8.856
	c-16.781,2.725-34.134,5.543-51.239,8.113l-7.07,1.063c-23.084,3.476-46.955,7.07-70.508,9.772
	c-1.954,0.225-3.912,0.314-5.852,0.314c-3.258,0-6.468-0.254-9.539-0.556c-4.128-0.404-8.958-1.031-13.486-2.613
	c-5.449-1.901-10.172-4.268-14.037-7.033c-5.66-4.049-11.106-8.969-15.751-14.227c-4.91-5.558-8.704-11.083-11.277-16.425
	c-1.523-3.164-2.264-7.13-2.264-12.124c0-5.362,0.737-9.882,2.19-13.434c1.649-4.03,4.73-7.476,7.526-10.314
	c3.064-3.114,6.472-5.688,9.855-7.444c3.223-1.672,7.12-2.883,11.271-3.502c4.589-0.685,9.268-0.793,13.793-0.897
	c1.419-0.033,2.838-0.065,4.251-0.116c9.022-0.323,18.204-0.506,27.083-0.682c14.6-0.29,29.696-0.59,44.405-1.527
	c2.337-0.15,5.009-1.01,8.168-2.629c3.801-1.948,7.129-4.241,9.624-6.631c2.664-2.551,4.824-5.972,6.641-8.978
	c1.109-1.835,2.001-3.854,2.946-5.993c1.222-2.765,2.484-5.623,4.302-8.202c2.217-3.148,5.395-6.14,8.947-8.421
	c3.786-2.43,8.284-4.398,12.668-5.542c3.307-0.865,6.676-0.739,9.936-0.616l0.767,0.028c3.778,0.134,7.806,0.385,11.661,1.311
	c5.621,1.35,11.22,3.059,16.635,4.712c5.027,1.535,10.225,3.122,15.359,4.392l0.281,0.069c4.246,1.05,8.627,2.113,12.714,2.058
	c3.311-0.063,7.208-0.929,11.271-2.503c3.809-1.478,7.64-3.635,11.078-6.237c2.281-1.724,4.551-4.154,6.75-7.225
	c2.492-3.477,4.78-7.283,6.993-10.965c2.499-4.156,5.083-8.455,8.042-12.441c2.786-3.754,6.154-7.12,9.74-9.734
	c4.204-3.068,9.128-5.187,12.466-6.514c3.729-1.485,7.793-2.569,11.752-3.134c4.216-0.602,9.158-1.131,13.861-0.495
	c4.056,0.55,7.917,2.229,11.485,3.964c2.92,1.419,5.65,3.303,7.894,5.447c3.212,3.072,6.027,6.558,8.749,9.929l1.345,1.661
	c1.876,2.309,3.663,4.712,5.39,7.036c1.972,2.652,4.011,5.395,6.141,7.932c0.799,0.953,1.588,1.929,2.379,2.908
	c2.812,3.48,5.468,6.769,8.676,9.159c3.844,2.865,8.852,4.795,13.691,6.453c2.678,0.92,5.939,1.445,9.696,1.561
	c4.513,0.142,8.537,0.177,12.102-0.864c5.669-1.653,11.174-4.636,15.811-7.336c7.479-4.357,13.704-8.61,19.03-13.003
	c4.798-3.96,9.688-8.853,15.388-15.397c2.951-3.391,5.827-7.436,8.791-12.364c3.217-5.346,6.553-11.062,8.876-17.009
	c1.549-3.964,2.375-8.44,3.173-12.77l0.361-1.943c1.114-5.891,1.824-11.01,2.171-15.652c0.489-6.558,0.566-11.814,0.244-16.543
	c-0.385-5.64-0.997-12.266-2.62-18.648c-1.458-5.737-3.65-11.495-5.769-17.062c-0.763-2.003-1.524-4.006-2.257-6.013
	c-2.763-7.572-5.776-15.253-8.691-22.681c-5.08-12.945-10.332-26.331-14.475-39.684c-1.324-4.26,0.107-8.81,1.078-11.143
	c10.078-24.169,20.372-46.582,30.597-66.616c1.739-3.405,5.354-5.406,7.355-6.296c2.473-1.098,6.129-2.181,9.512-1.1
	c9.587,3.065,22.245,7.12,35.13,11.305l15.503,5.067"/>
<path id="sector02" fill="none" stroke="#000000" stroke-width="2" d="M572.733,327.212l-15.498-5.065c-12.869-4.18-25.517-8.232-35.099-11.295
	c-1.218-0.388-3.131-0.074-5.247,0.868c-2.139,0.951-3.802,2.275-4.449,3.542c-10.155,19.897-20.383,42.168-30.401,66.195
	c-1.12,2.691-1.443,5.264-0.887,7.056c4.079,13.146,9.291,26.427,14.331,39.271c2.927,7.461,5.955,15.177,8.742,22.816
	c0.723,1.981,1.476,3.958,2.228,5.936c2.18,5.726,4.433,11.647,5.977,17.718c1.741,6.847,2.388,13.81,2.792,19.719
	c0.342,5.021,0.264,10.549-0.247,17.397c-0.364,4.87-1.103,10.208-2.259,16.319l-0.356,1.918c-0.849,4.606-1.727,9.369-3.485,13.865
	c-2.494,6.385-5.973,12.353-9.323,17.918c-3.146,5.23-6.223,9.553-9.407,13.212c-5.922,6.799-11.036,11.91-16.095,16.085
	c-5.58,4.602-12.066,9.037-19.829,13.56c-4.951,2.883-10.86,6.077-17.15,7.911c-4.404,1.286-9.12,1.258-13.97,1.102
	c-4.356-0.134-8.211-0.768-11.457-1.883c-5.298-1.815-10.824-3.959-15.329-7.317c-3.814-2.843-6.836-6.583-9.758-10.199
	c-0.768-0.95-1.533-1.897-2.308-2.822c-2.243-2.672-4.335-5.486-6.359-8.209c-1.689-2.272-3.437-4.623-5.23-6.829l-1.357-1.678
	c-2.604-3.224-5.295-6.557-8.227-9.361c-1.799-1.719-4.002-3.236-6.371-4.388c-3.119-1.516-6.449-2.979-9.667-3.415
	c-3.973-0.536-8.401-0.054-12.208,0.489c-3.495,0.499-7.085,1.457-10.382,2.77c-3.037,1.207-7.493,3.119-11.147,5.785
	c-3.104,2.264-6.028,5.189-8.458,8.464c-2.786,3.752-5.292,7.923-7.717,11.957c-2.274,3.783-4.625,7.694-7.258,11.368
	c-2.55,3.561-5.245,6.426-8.007,8.515c-3.875,2.933-8.208,5.37-12.529,7.046c-4.779,1.853-9.262,2.831-13.325,2.907
	c-4.855,0.104-9.646-1.088-14.269-2.231l-0.281-0.069c-5.292-1.309-10.568-2.919-15.671-4.478
	c-5.329-1.627-10.839-3.31-16.283-4.616c-3.154-0.757-6.468-1.007-10.473-1.148l-0.779-0.028c-2.824-0.107-5.743-0.216-8.193,0.425
	c-3.79,0.989-7.676,2.689-10.943,4.786c-2.915,1.872-5.502,4.297-7.284,6.827c-1.476,2.094-2.565,4.561-3.719,7.172
	c-0.979,2.217-1.992,4.509-3.299,6.672c-2.016,3.335-4.434,7.149-7.626,10.207c-2.951,2.826-6.664,5.396-11.038,7.638
	c-3.905,2.001-7.347,3.073-10.521,3.277c-14.842,0.945-30.005,1.246-44.669,1.537c-8.855,0.176-18.012,0.357-26.987,0.68
	c-1.438,0.052-2.882,0.085-4.326,0.118c-4.34,0.101-8.829,0.205-13.047,0.834c-3.504,0.522-6.751,1.522-9.392,2.894
	c-2.83,1.469-5.715,3.656-8.344,6.328c-2.387,2.423-4.995,5.312-6.249,8.377c-1.157,2.827-1.744,6.582-1.744,11.161
	c0,4.016,0.562,7.22,1.67,9.521c2.334,4.845,5.823,9.91,10.368,15.056c4.35,4.924,9.449,9.53,14.747,13.32
	c3.399,2.433,7.613,4.534,12.523,6.247c3.931,1.374,8.319,1.938,12.093,2.308c4.57,0.446,9.443,0.79,14.121,0.251
	c23.449-2.69,47.266-6.276,70.299-9.744l7.072-1.064c17.071-2.565,34.405-5.38,51.169-8.102c18.442-2.995,37.511-6.091,56.318-8.87"
	/>
<path id="sector11" fill="none" stroke="#000000" stroke-width="2" d="M271.249,701.74c28.026-4.14,56.556-8.078,84.146-11.887
	c26.688-3.684,54.284-7.493,81.379-11.479c5.697-0.837,11.207-1.971,16.379-3.37c6.694-1.813,12.688-3.517,18.255-5.995
	c8.612-3.832,17.767-8.609,27.986-14.604c4.499-2.635,8.086-5.302,10.968-8.151c3.542-3.499,6.514-7.747,9.198-11.815
	c2.147-3.254,3.874-6.917,5.42-10.391c1.477-3.312,2.437-6.806,3.022-11.001c0.817-5.861,0.891-12.727,0.226-20.987
	c-0.188-2.329-0.637-4.796-1.071-7.181c-0.667-3.664-1.356-7.453-1.205-11.138c0.15-3.732,3.244-7.376,6.149-8.74
	c3.446-1.618,7.327-2.343,11.081-3.044c3.171-0.592,6.166-1.151,8.749-2.19c0.471-0.188,1.054-0.99,1.082-1.373
	c0.69-9.348,1.113-19.276-0.458-28.546c-1.688-9.951-4.558-19.991-7.333-29.7c-2.192-7.668-4.458-15.597-6.168-23.539l-0.603-2.795
	c-4.188-19.424-8.518-39.509-10.761-59.481c-1.211-10.787-0.18-21.583,0.989-30.721c1.457-11.394,3.891-22.811,7.235-33.933
	c1.176-3.911,3.477-7.613,6.479-10.426c8.31-7.79,17.524-16.156,28.167-25.575"/>
<path id="sector01" fill="none" stroke="#000000" stroke-width="2" d="M574.537,318.17c-10.6,9.38-19.771,17.708-28.04,25.459
	c-2.21,2.071-3.973,4.905-4.836,7.776c-3.25,10.807-5.615,21.898-7.03,32.966c-1.124,8.785-2.118,19.135-0.978,29.291
	c2.209,19.673,6.507,39.608,10.663,58.887l0.603,2.796c1.669,7.748,3.907,15.58,6.072,23.153c2.82,9.866,5.736,20.067,7.48,30.347
	c1.679,9.901,1.245,20.266,0.526,29.991c-0.199,2.684-2.276,5.478-4.832,6.499c-3.13,1.26-6.562,1.9-9.881,2.521
	c-3.539,0.66-6.881,1.284-9.632,2.576c-1.268,0.596-2.659,2.422-2.704,3.553c-0.124,3.021,0.477,6.324,1.113,9.82
	c0.46,2.53,0.936,5.146,1.148,7.772c0.711,8.824,0.627,15.91-0.264,22.299c-0.666,4.769-1.773,8.776-3.484,12.613
	c-1.649,3.707-3.505,7.637-5.892,11.253c-2.863,4.341-6.055,8.894-9.988,12.779c-3.241,3.205-7.216,6.169-12.152,9.061
	c-10.413,6.108-19.762,10.985-28.581,14.909c-5.958,2.653-12.187,4.425-19.126,6.305c-5.401,1.462-11.146,2.645-17.075,3.515
	c-27.121,3.99-54.731,7.801-81.432,11.486c-27.577,3.807-56.092,7.743-84.09,11.879"/>
<path id="sector10" fill="none" stroke="#000000" stroke-width="2" d="M574.599,321.507c39.204,12.891,70.68,23.962,99.058,34.841
	c6.029,2.311,10.463,7.658,14.025,11.954c5.249,6.328,10.038,13.247,14.669,19.938c5.276,7.623,10.732,15.505,16.747,22.289
	c1.296,1.462,4.275,2.152,6.654,2.188c0.022,0,0.045,0,0.068,0c1.674,0,3.976-0.931,5.168-2.097
	c1.352-1.321,2.533-3.885,2.811-6.098c0.202-1.622-0.336-3.931-1.438-6.175c-1.864-3.801-4.17-7.38-6.61-11.17
	c-1.635-2.538-3.325-5.163-4.861-7.848c-5.871-10.279-11.131-19.565-16.049-29.14c-0.644-1.253-1.295-2.505-1.946-3.759
	c-3.537-6.804-7.194-13.84-9.777-21.217c-2.82-8.06-4.828-16.788-5.807-25.241c-0.721-6.252-0.068-12.683,0.745-18.701
	c0.69-5.092,1.982-10.267,3.842-15.38c2.664-7.326,5.877-15.792,10.294-23.576c4.938-8.696,11.086-16.85,16.961-24.456
	c4.046-5.239,8.613-10.314,13.575-15.085c7.069-6.795,15.549-14.705,24.847-21.858c9.685-7.455,17.944-12.933,25.993-17.239
	c8.739-4.674,18.105-8.556,27.837-11.537c8.206-2.512,16.699-3.667,24.655-4.539c6.347-0.697,13.842-1.302,21.308-0.493
	c12.979,1.404,26.12,3.541,38.828,5.606c14.771,2.4,30.044,4.883,44.979,6.193c3.743,0.328,8.239-0.7,12.672-2.896
	c4.494-2.226,8.887-5.706,12.052-9.549c3.973-4.825,7.645-11.116,10.617-18.192c3.093-7.362,5.233-14.926,6.188-21.875
	c0.581-4.222,0.906-10.308-0.844-15.328c-1.695-4.866-5.201-10.19-9.618-14.607c-2.295-2.293-6.149-3.61-9.583-4.665
	c-5.015-1.538-9.284-2.221-13.028-2.083c-5.667,0.207-11.868,1.297-18.959,3.331c-7.881,2.257-15.762,5.332-23.384,8.305
	c-1.879,0.733-3.757,1.466-5.637,2.188c-9.793,3.761-21.157,8.176-32.088,12.981c-10.479,4.605-19.829,9.081-28.587,13.682
	l-2.582,1.355c-11.968,6.283-24.343,12.78-35.805,20.156c-15.587,10.031-30.273,21.095-42.584,30.596
	c-9.116,7.034-18.095,14.615-26.777,21.947c-5.043,4.259-10.259,8.663-15.457,12.922c-6.646,5.446-13.439,10.932-20.009,16.237
	c-9.52,7.688-19.363,15.638-28.917,23.592c-17.647,14.69-33.801,28.433-49.384,42.014c-5.001,4.358-10.019,8.708-15.037,13.061
	c-9.831,8.524-19.996,17.338-29.89,26.092"/>
<path id="sector00" fill="none" stroke="#000000" stroke-width="2" d="M570.559,313.677c9.916-8.773,20.093-17.597,29.935-26.131
	c5.015-4.349,10.028-8.695,15.025-13.051c15.618-13.611,31.805-27.382,49.488-42.102c9.589-7.983,19.449-15.947,28.986-23.648
	c6.561-5.299,13.346-10.778,19.976-16.21c5.164-4.232,10.362-8.622,15.389-12.866c8.732-7.374,17.763-14.998,26.982-22.112
	c12.411-9.578,27.227-20.739,43.004-30.892c11.684-7.519,24.179-14.079,36.263-20.422l2.579-1.355
	c8.883-4.667,18.356-9.201,28.964-13.864c11.051-4.857,22.493-9.303,32.352-13.089c1.869-0.718,3.737-1.446,5.606-2.176
	c7.75-3.023,15.764-6.15,23.911-8.483c7.562-2.169,14.234-3.333,20.394-3.559c4.431-0.16,9.34,0.605,15.008,2.343
	c4.124,1.267,8.796,2.891,12.064,6.158c5.035,5.035,9.06,11.186,11.042,16.875c2.142,6.147,1.792,13.247,1.121,18.12
	c-1.024,7.459-3.308,15.545-6.601,23.381c-3.241,7.715-7.116,14.337-11.517,19.683c-3.685,4.474-8.795,8.524-14.021,11.112
	c-3.13,1.551-9.354,4.069-15.859,3.497c-15.156-1.329-30.54-3.83-45.418-6.248c-12.63-2.053-25.691-4.176-38.512-5.563
	c-6.892-0.747-13.983-0.17-20.007,0.492c-7.664,0.841-15.822,1.946-23.553,4.312c-9.361,2.868-18.366,6.599-26.764,11.091
	c-7.751,4.146-15.747,9.453-25.164,16.703c-9.068,6.977-17.396,14.748-24.348,21.429c-4.75,4.566-9.119,9.421-12.985,14.427
	c-5.743,7.437-11.747,15.396-16.491,23.751c-4.188,7.379-7.292,15.568-9.873,22.664c-1.713,4.711-2.902,9.467-3.535,14.134
	c-0.761,5.629-1.375,11.612-0.729,17.208c0.928,8.019,2.833,16.3,5.51,23.948c2.44,6.972,5.997,13.814,9.437,20.432
	c0.656,1.262,1.312,2.523,1.96,3.784c4.861,9.464,10.087,18.689,15.922,28.904c1.456,2.546,3.103,5.103,4.695,7.576
	c2.427,3.767,4.936,7.662,6.952,11.774c0.952,1.938,2.48,5.759,2.006,9.563c-0.448,3.585-2.242,7.371-4.569,9.645
	c-2.306,2.255-6.136,3.807-9.368,3.807c-0.052,0-0.103,0-0.153-0.001c-1.74-0.026-7.685-0.406-11.054-4.207
	c-6.253-7.053-11.812-15.086-17.19-22.854c-4.558-6.585-9.271-13.396-14.354-19.522c-3.278-3.953-6.993-8.433-11.555-10.182
	c-28.286-10.844-59.675-21.884-98.785-34.743"/>
</svg>
