<?xml version="1.0" encoding="utf-8"?>
<!-- Generator: Adobe Illustrator 16.0.4, SVG Export Plug-In . SVG Version: 6.00 Build 0)  -->
<svg version="1.1"
	 id="tracksvg"  xmlns:rdf="http://www.w3.org/1999/02/22-rdf-syntax-ns#" xmlns:svg="http://www.w3.org/2000/svg" xmlns:sodipodi="http://sodipodi.sourceforge.net/DTD/sodipodi-0.dtd" xmlns:inkscape="http://www.inkscape.org/namespaces/inkscape" sodipodi:docname="Suzuka circuit map--2005.svg" inkscape:version="0.47 r22583" inkscape:export-filename="E:\Images\Maps\Race Tracks\Asia\Japan\Suzuka circuit map-2005.png" inkscape:export-ydpi="90" inkscape:export-xdpi="90"
	 xmlns="http://www.w3.org/2000/svg" xmlns:xlink="http://www.w3.org/1999/xlink" x="0px" y="0px" width="1000px" height="800px"
	 viewBox="0 0 1000 800" enable-background="new 0 0 1000 800" >
<path id="background" fill="none" stroke="#000000" stroke-width="2" d="M278.391,701.107
	c-35.419,5.234-70.695,11.433-106.101,16.753c-25.454,3.824-50.947,7.754-76.48,10.684c-4.816,0.554-9.751,0.229-14.567-0.243
	c-4.25-0.416-8.617-1.027-12.625-2.428c-4.571-1.595-9.173-3.737-13.111-6.556c-5.45-3.899-10.607-8.563-15.053-13.597
	c-4.133-4.679-8.012-9.992-10.684-15.538c-1.538-3.19-1.942-7.114-1.942-10.681c0-4.043,0.434-8.454,1.942-12.14
	c1.405-3.436,4.145-6.532,6.799-9.229c2.607-2.649,5.701-5.095,8.982-6.798c3.111-1.615,6.703-2.636,10.199-3.156
	c5.731-0.855,11.65-0.761,17.482-0.968c23.546-0.845,47.232-0.692,70.653-2.186c3.207-0.207,6.387-1.461,9.226-2.914
	c3.636-1.867,7.254-4.223,10.198-7.047c2.803-2.684,5.014-6.109,7.042-9.469c2.667-4.414,4.103-9.669,7.041-13.839
	c2.079-2.952,4.974-5.575,8.012-7.526c3.516-2.257,7.617-4.047,11.653-5.099c3.085-0.807,6.482-0.601,9.711-0.485
	c3.651,0.129,7.372,0.36,10.926,1.213c10.61,2.545,20.959,6.357,31.563,8.982c4.451,1.101,9.088,2.272,13.597,2.186
	c4.069-0.077,8.318-1.189,12.139-2.67c4.111-1.595,8.141-3.897,11.653-6.557c2.8-2.119,5.223-4.893,7.283-7.77
	c5.305-7.401,9.393-15.769,14.812-23.065c2.511-3.384,5.601-6.517,8.982-8.981c3.498-2.554,7.609-4.464,11.655-6.07
	c3.48-1.387,7.217-2.386,10.926-2.915c4.224-0.6,8.687-1.048,12.868-0.485c3.59,0.486,7.155,2.046,10.44,3.642
	c2.541,1.235,4.996,2.9,7.041,4.855c3.538,3.385,6.601,7.342,9.713,11.168c3.928,4.834,7.407,10.041,11.412,14.812
	c3.604,4.297,6.993,9.09,11.414,12.383c4.16,3.102,9.368,5.1,14.325,6.798c3.305,1.136,6.941,1.592,10.44,1.699
	c4.268,0.138,8.803,0.219,12.865-0.968c5.649-1.646,11.125-4.53,16.268-7.525c6.67-3.888,13.231-8.206,19.18-13.11
	c5.624-4.643,10.745-10.034,15.54-15.539c3.38-3.885,6.327-8.206,8.982-12.625c3.335-5.536,6.644-11.248,8.986-17.239
	c1.865-4.773,2.686-9.986,3.64-15.054c0.985-5.207,1.791-10.493,2.189-15.776c0.414-5.563,0.621-11.202,0.239-16.756
	c-0.432-6.341-1.105-12.789-2.67-18.938c-1.994-7.85-5.22-15.42-8.01-23.064c-7.488-20.52-16.424-40.802-22.823-61.427
	c-0.885-2.848-0.182-6.221,0.969-8.987c9.205-22.081,19.27-44.317,30.105-65.553c1.142-2.235,3.607-3.867,5.827-4.854
	c2.149-0.956,4.962-1.713,7.284-0.971c11.524,3.682,23.096,7.397,34.666,11.156l15.3,5 M575.394,317.311
	c-9.371,8.294-18.649,16.667-27.742,25.193c-2.566,2.401-4.583,5.643-5.585,8.984c-3.205,10.66-5.619,21.903-7.041,33.02
	c-1.252,9.761-2.068,19.85-0.971,29.621c2.302,20.499,6.808,40.928,11.169,61.184c3.81,17.704,10.341,34.934,13.351,52.684
	c1.601,9.44,1.178,19.538,0.486,28.896c-0.117,1.572-1.463,3.304-2.916,3.884c-5.993,2.412-13.641,2.387-19.422,5.1
	c-2.152,1.012-4.276,3.745-4.37,6.069c-0.229,5.608,1.758,11.758,2.239,17.724c0.569,7.061,0.729,14.411-0.241,21.366
	c-0.563,4.052-1.525,7.876-3.212,11.657c-1.627,3.663-3.379,7.342-5.58,10.681c-2.818,4.268-5.854,8.566-9.473,12.139
	c-3.342,3.308-7.332,6.109-11.411,8.496c-9.03,5.298-18.359,10.313-27.922,14.567c-5.897,2.626-12.213,4.382-18.449,6.072
	c-5.415,1.462-10.955,2.579-16.515,3.395c-54.412,8.005-108.986,15.03-163.4,23.065 M576.493,325.636
	c32.851,10.799,65.647,22.073,97.651,34.345c5.164,1.979,9.088,6.656,12.626,10.923c11.029,13.296,19.814,29.06,31.075,41.759
	c2.011,2.271,5.848,3.113,8.74,3.156c2.446,0.038,5.545-1.213,7.284-2.913c1.903-1.859,3.306-5.08,3.643-7.77
	c0.308-2.489-0.546-5.411-1.704-7.767c-3.212-6.551-7.752-12.541-11.411-18.94c-5.409-9.465-10.801-18.957-15.78-28.648
	c-4.084-7.954-8.474-15.891-11.411-24.283c-2.729-7.793-4.639-16.1-5.585-24.279c-0.672-5.823-0.062-11.895,0.728-17.724
	c0.669-4.935,1.937-9.879,3.64-14.567c2.828-7.774,5.877-15.639,9.955-22.823c4.745-8.355,10.62-16.166,16.514-23.794
	c3.982-5.161,8.408-10.047,13.107-14.567c7.76-7.459,15.756-14.807,24.284-21.366c7.984-6.147,16.384-12.011,25.249-16.753
	c8.535-4.564,17.706-8.336,26.952-11.169c7.667-2.347,15.804-3.493,23.794-4.369c6.738-0.741,13.648-1.216,20.393-0.486
	c27.649,2.992,55.258,9.238,82.793,11.653c4.753,0.417,9.88-1.074,14.082-3.156c4.785-2.368,9.448-6.044,12.868-10.197
	c4.511-5.478,8.153-12.095,10.926-18.696c2.973-7.075,5.273-14.775,6.312-22.337c0.741-5.387,0.782-11.479-0.967-16.509
	c-1.97-5.652-5.96-11.301-10.198-15.539c-2.726-2.723-6.923-4.187-10.684-5.342c-4.413-1.354-9.234-2.352-13.841-2.185
	c-6.48,0.237-13.131,1.596-19.426,3.401c-9.81,2.81-19.335,6.771-28.893,10.44c-10.675,4.1-21.341,8.268-31.809,12.868
	c-9.604,4.222-19.116,8.717-28.404,13.597c-12.887,6.772-25.892,13.496-38.118,21.366c-14.558,9.368-28.525,19.762-42.245,30.349
	c-14.284,11.022-27.8,23.036-41.761,34.476c-16.063,13.162-32.356,26.046-48.316,39.333c-16.413,13.664-32.7,27.487-48.801,41.519
	c-14.773,12.875-29.684,25.673-44.367,38.664"/>
<path id="sector00" fill="none" stroke="#000000" stroke-width="2" d="M278.824,704.037c-18.523,2.737-37.327,5.79-55.511,8.743
	c-16.566,2.689-33.696,5.472-50.582,8.009l-6.979,1.048c-22.788,3.432-46.353,6.98-69.603,9.646
	c-1.929,0.225-3.862,0.311-5.777,0.311c-3.217,0-6.386-0.251-9.417-0.549c-4.075-0.398-8.843-1.018-13.312-2.579
	c-5.379-1.877-10.042-4.213-13.857-6.943c-5.587-3.997-10.963-8.854-15.549-14.044c-4.847-5.489-8.592-10.94-11.132-16.214
	c-1.503-3.124-2.235-7.042-2.235-11.969c0-5.294,0.728-9.758,2.162-13.264c1.628-3.979,4.669-7.38,7.43-10.18
	c3.024-3.074,6.389-5.615,9.729-7.349c3.182-1.65,7.029-2.846,11.126-3.457c4.53-0.677,9.149-0.783,13.616-0.886
	c1.401-0.03,2.802-0.062,4.197-0.112c8.906-0.319,17.97-0.502,26.735-0.676c14.413-0.286,29.315-0.582,43.835-1.505
	c2.307-0.148,4.945-1,8.063-2.596c3.752-1.923,7.037-4.187,9.5-6.548c2.63-2.519,4.762-5.896,6.555-8.862
	c1.095-1.812,1.976-3.806,2.909-5.917c1.206-2.729,2.452-5.551,4.247-8.097c2.188-3.104,5.326-6.061,8.833-8.312
	c3.737-2.398,8.177-4.34,12.505-5.471c3.265-0.854,6.59-0.73,9.809-0.608l0.757,0.027c3.729,0.133,7.705,0.38,11.511,1.294
	c5.549,1.335,11.076,3.022,16.422,4.651c4.962,1.516,10.094,3.082,15.162,4.339l0.277,0.066c4.192,1.038,8.517,2.085,12.551,2.033
	c3.269-0.063,7.116-0.918,11.126-2.472c3.76-1.46,7.542-3.589,10.936-6.157c2.251-1.701,4.492-4.1,6.663-7.132
	c2.46-3.435,4.719-7.189,6.903-10.824c2.467-4.103,5.018-8.347,7.938-12.281c2.75-3.706,6.076-7.029,9.615-9.608
	c4.15-3.027,9.011-5.121,12.306-6.432c3.681-1.465,7.693-2.535,11.601-3.094c4.162-0.597,9.041-1.116,13.683-0.488
	c4.004,0.543,7.815,2.2,11.338,3.913c2.882,1.4,5.578,3.261,7.793,5.377c3.17,3.033,5.949,6.474,8.637,9.802l1.328,1.64
	c1.852,2.28,3.616,4.651,5.321,6.946c1.947,2.618,3.959,5.326,6.062,7.829c0.791,0.941,1.567,1.907,2.348,2.871
	c2.776,3.436,5.4,6.685,8.567,9.042c3.794,2.828,8.738,4.733,13.513,6.37c2.646,0.908,5.863,1.425,9.572,1.541
	c4.455,0.143,8.427,0.176,11.946-0.852c5.597-1.631,11.033-4.578,15.609-7.242c7.383-4.3,13.528-8.499,18.786-12.838
	c4.736-3.909,9.563-8.739,15.19-15.198c2.913-3.349,5.752-7.342,8.678-12.205c3.176-5.277,6.469-10.92,8.762-16.791
	c1.529-3.913,2.345-8.332,3.133-12.607l0.356-1.916c1.097-5.817,1.799-10.87,2.143-15.452c0.483-6.474,0.557-11.66,0.241-16.33
	c-0.381-5.567-0.984-12.108-2.586-18.406c-1.439-5.664-3.604-11.348-5.698-16.844c-0.753-1.978-1.502-3.955-2.228-5.936
	c-2.727-7.476-5.699-15.058-8.577-22.392c-5.015-12.777-10.199-25.993-14.292-39.176c-1.306-4.205,0.106-8.696,1.064-11
	c9.949-23.86,20.111-45.983,30.204-65.761c1.717-3.361,5.286-5.337,7.262-6.215c2.44-1.083,6.05-2.153,9.39-1.085
	c9.464,3.025,21.959,7.028,34.679,11.161l15.304,5"/>
<path id="sector10" fill="none" stroke="#000000" stroke-width="2" d="M277.961,698.183c-18.566,2.743-37.39,5.8-55.596,8.757
	c-16.549,2.687-33.661,5.465-50.512,7.997l-6.981,1.051c-22.737,3.424-46.249,6.964-69.397,9.618
	c-4.618,0.532-9.429,0.191-13.94-0.246c-3.726-0.366-8.058-0.925-11.938-2.281c-4.847-1.691-9.007-3.763-12.362-6.167
	c-5.23-3.741-10.264-8.288-14.558-13.146c-4.487-5.08-7.931-10.083-10.235-14.865c-1.093-2.271-1.648-5.435-1.648-9.398
	c0-4.521,0.58-8.228,1.722-11.018c1.238-3.026,3.812-5.878,6.168-8.27c2.596-2.638,5.443-4.798,8.237-6.247
	c2.607-1.354,5.812-2.342,9.271-2.859c4.164-0.621,8.595-0.722,12.879-0.823c1.426-0.03,2.852-0.062,4.271-0.115
	c8.859-0.317,17.899-0.498,26.641-0.673c14.476-0.287,29.444-0.584,44.096-1.518c3.133-0.201,6.531-1.257,10.386-3.232
	c4.318-2.213,7.983-4.75,10.896-7.542c3.151-3.019,5.538-6.783,7.528-10.076c1.291-2.135,2.29-4.396,3.256-6.586
	c1.14-2.575,2.215-5.014,3.672-7.08c1.759-2.497,4.313-4.892,7.19-6.739c3.225-2.07,7.061-3.749,10.803-4.726
	c2.418-0.632,5.3-0.522,8.088-0.419l0.769,0.028c3.954,0.139,7.226,0.385,10.339,1.132c5.374,1.29,10.813,2.949,16.074,4.556
	c5.038,1.541,10.246,3.128,15.47,4.422l0.277,0.065c4.563,1.131,9.293,2.306,14.086,2.203c4.011-0.075,8.436-1.041,13.154-2.87
	c4.265-1.654,8.543-4.06,12.368-6.955c2.727-2.062,5.387-4.891,7.904-8.406c2.599-3.628,4.92-7.487,7.165-11.222
	c2.394-3.982,4.868-8.1,7.618-11.804c2.399-3.232,5.285-6.121,8.35-8.355c3.607-2.632,8.006-4.52,11.004-5.711
	c3.254-1.296,6.798-2.242,10.249-2.735c3.758-0.536,8.129-1.011,12.051-0.481c3.177,0.43,6.464,1.872,9.543,3.371
	c2.339,1.135,4.513,2.635,6.29,4.331c2.894,2.769,5.551,6.059,8.121,9.241l1.34,1.656c1.77,2.178,3.496,4.499,5.163,6.742
	c1.998,2.688,4.063,5.466,6.277,8.104c0.765,0.913,1.521,1.848,2.278,2.784c2.884,3.568,5.868,7.261,9.635,10.067
	c4.447,3.315,9.9,5.433,15.13,7.224c3.204,1.101,7.012,1.727,11.31,1.858c4.79,0.154,9.443,0.183,13.793-1.088
	c6.209-1.811,12.04-4.964,16.928-7.81c7.666-4.465,14.066-8.843,19.575-13.387c4.997-4.123,10.042-9.168,15.888-15.88
	c3.146-3.611,6.183-7.877,9.286-13.043c3.31-5.491,6.742-11.384,9.204-17.688c1.735-4.438,2.602-9.141,3.44-13.687l0.349-1.894
	c1.142-6.031,1.873-11.3,2.23-16.107c0.507-6.763,0.584-12.218,0.244-17.175c-0.396-5.832-1.038-12.707-2.757-19.466
	c-1.523-5.993-3.748-11.838-5.899-17.49c-0.742-1.954-1.485-3.904-2.201-5.862c-2.75-7.541-5.738-15.156-8.627-22.521
	c-4.976-12.682-10.121-25.79-14.147-38.768c-0.551-1.769-0.23-4.308,0.875-6.965c9.889-23.719,19.987-45.704,30.011-65.346
	c0.638-1.25,2.28-2.558,4.39-3.497c2.089-0.928,3.978-1.24,5.18-0.857c9.459,3.024,21.945,7.024,34.651,11.151l15.299,5"/>
<path id="sector12" fill="none" stroke="#000000" stroke-width="2" d="M573.43,315.093c-10.506,9.298-19.6,17.557-27.805,25.247
	c-2.964,2.777-5.235,6.431-6.396,10.292c-3.301,10.979-5.704,22.25-7.143,33.5c-1.154,9.021-2.172,19.678-0.975,30.326
	c2.212,19.716,6.486,39.543,10.623,58.718l0.595,2.76c1.688,7.838,3.928,15.667,6.09,23.237c2.739,9.584,5.573,19.494,7.238,29.316
	c1.551,9.152,1.134,18.951,0.453,28.181c-0.026,0.38-0.602,1.171-1.068,1.354c-2.549,1.025-5.506,1.58-8.636,2.162
	c-3.708,0.692-7.539,1.407-10.938,3.005c-2.867,1.347-5.922,4.943-6.07,8.628c-0.148,3.638,0.531,7.378,1.19,10.995
	c0.429,2.354,0.871,4.792,1.057,7.089c0.656,8.156,0.584,14.932-0.225,20.718c-0.578,4.141-1.525,7.591-2.982,10.859
	c-1.526,3.431-3.231,7.046-5.351,10.261c-2.651,4.013-5.583,8.206-9.08,11.66c-2.845,2.813-6.387,5.447-10.828,8.047
	c-10.089,5.918-19.125,10.633-27.626,14.416c-5.496,2.448-11.413,4.131-18.021,5.919c-5.106,1.381-10.546,2.5-16.169,3.326
	c-26.75,3.936-53.99,7.695-80.335,11.333c-27.236,3.76-55.4,7.646-83.067,11.734"/>
<path id="sector02" fill="none" stroke="#000000" stroke-width="2" d="M577.358,319.529c-10.466,9.26-19.518,17.481-27.68,25.132
	c-2.182,2.045-3.923,4.842-4.774,7.677c-3.208,10.668-5.543,21.616-6.939,32.543c-1.11,8.672-2.093,18.889-0.966,28.915
	c2.181,19.421,6.424,39.102,10.526,58.131l0.595,2.761c1.647,7.648,3.857,15.38,5.995,22.855c2.781,9.741,5.659,19.812,7.382,29.958
	c1.659,9.774,1.229,20.008,0.52,29.606c-0.196,2.652-2.247,5.409-4.77,6.415c-3.09,1.243-6.478,1.876-9.754,2.489
	c-3.494,0.649-6.793,1.265-9.509,2.54c-1.253,0.592-2.625,2.395-2.669,3.511c-0.123,2.98,0.47,6.24,1.097,9.691
	c0.455,2.498,0.925,5.08,1.133,7.673c0.702,8.711,0.619,15.706-0.26,22.013c-0.658,4.707-1.751,8.663-3.44,12.451
	c-1.627,3.659-3.46,7.539-5.815,11.108c-2.827,4.285-5.979,8.778-9.86,12.614c-3.199,3.163-7.122,6.089-11.996,8.945
	c-10.279,6.028-19.509,10.845-28.214,14.718c-5.882,2.618-12.031,4.368-18.881,6.225c-5.329,1.442-11.001,2.612-16.854,3.469
	c-26.773,3.939-54.03,7.703-80.389,11.339c-27.223,3.758-55.373,7.645-83.011,11.727"/>
<path id="sector01" fill="none" stroke="#000000" stroke-width="2" d="M577.417,322.822c38.701,12.728,69.776,23.654,97.79,34.394
	c5.949,2.283,10.329,7.56,13.843,11.801c5.182,6.247,9.909,13.077,14.48,19.683c5.209,7.525,10.595,15.306,16.532,22.003
	c1.28,1.443,4.221,2.122,6.569,2.159c0.021,0,0.044,0,0.067,0c1.652,0,3.924-0.918,5.102-2.069c1.334-1.305,2.501-3.835,2.774-6.02
	c0.199-1.602-0.332-3.883-1.419-6.098c-1.841-3.752-4.116-7.286-6.525-11.027c-1.614-2.505-3.283-5.097-4.799-7.747
	c-5.795-10.147-10.988-19.314-15.844-28.768c-0.635-1.238-1.278-2.474-1.921-3.711c-3.489-6.716-7.1-13.663-9.649-20.945
	c-2.784-7.956-4.766-16.573-5.734-24.917c-0.712-6.172-0.064-12.52,0.735-18.461c0.682-5.027,1.957-10.135,3.795-15.183
	c2.63-7.232,5.802-15.589,10.162-23.274c4.874-8.584,10.943-16.634,16.743-24.142c3.994-5.171,8.5-10.182,13.401-14.892
	c6.976-6.708,15.35-14.516,24.528-21.577c9.56-7.359,17.712-12.767,25.659-17.018c8.624-4.614,17.871-8.446,27.479-11.389
	c8.102-2.479,16.482-3.62,24.336-4.48c6.269-0.688,13.668-1.286,21.037-0.487c12.812,1.386,25.785,3.496,38.33,5.534
	c14.581,2.369,29.659,4.82,44.401,6.113c3.695,0.324,8.134-0.691,12.51-2.859c4.437-2.197,8.775-5.633,11.899-9.426
	c3.922-4.763,7.547-10.974,10.479-17.958c3.055-7.268,5.165-14.735,6.109-21.594c0.573-4.168,0.895-10.176-0.833-15.131
	c-1.674-4.804-5.135-10.06-9.495-14.42c-2.266-2.263-6.07-3.563-9.46-4.605c-4.951-1.519-9.165-2.193-12.861-2.056
	c-5.594,0.204-11.716,1.28-18.716,3.288c-7.779,2.228-15.56,5.264-23.083,8.198c-1.855,0.724-3.709,1.447-5.564,2.16
	c-9.668,3.713-20.886,8.071-31.679,12.814c-10.344,4.546-19.572,8.964-28.22,13.506l-2.548,1.337
	c-11.816,6.203-24.032,12.616-35.348,19.898c-15.387,9.902-29.882,20.824-42.037,30.203c-9,6.944-17.863,14.428-26.433,21.666
	c-4.978,4.204-10.129,8.552-15.258,12.756c-6.561,5.376-13.267,10.792-19.755,16.029c-9.397,7.589-19.111,15.437-28.546,23.289
	c-17.419,14.501-33.368,28.068-48.75,41.475c-4.937,4.302-9.89,8.596-14.844,12.894c-9.705,8.415-19.74,17.115-29.507,25.757"/>
<path id="sector11" fill="none" stroke="#000000" stroke-width="2" d="M575.567,328.452c38.608,12.694,69.595,23.593,97.518,34.297
	c4.504,1.727,8.171,6.148,11.409,10.051c5.019,6.047,9.671,12.772,14.17,19.272c5.309,7.668,10.798,15.599,16.97,22.561
	c3.326,3.754,9.192,4.13,10.912,4.153c0.049,0.001,0.099,0.001,0.151,0.001c3.188,0,6.971-1.532,9.245-3.758
	c2.297-2.245,4.068-5.985,4.511-9.523c0.467-3.755-1.041-7.527-1.98-9.438c-1.99-4.06-4.467-7.904-6.863-11.624
	c-1.571-2.441-3.197-4.963-4.635-7.477c-5.76-10.085-10.919-19.19-15.718-28.532c-0.637-1.245-1.287-2.49-1.935-3.736
	c-3.394-6.533-6.907-13.287-9.315-20.169c-2.644-7.55-4.523-15.725-5.442-23.641c-0.637-5.524-0.028-11.43,0.721-16.987
	c0.625-4.607,1.799-9.302,3.489-13.953c2.548-7.005,5.612-15.089,9.747-22.373c4.683-8.248,10.609-16.105,16.276-23.446
	c3.816-4.942,8.13-9.734,12.818-14.242c6.863-6.595,15.085-14.267,24.037-21.154c9.295-7.157,17.188-12.396,24.84-16.489
	c8.291-4.435,17.18-8.117,26.423-10.949c7.63-2.335,15.686-3.426,23.251-4.257c5.947-0.653,12.947-1.223,19.75-0.485
	c12.657,1.369,25.55,3.465,38.021,5.492c14.688,2.387,29.873,4.856,44.835,6.168c6.422,0.564,12.565-1.921,15.653-3.452
	c5.16-2.555,10.203-6.553,13.841-10.97c4.343-5.277,8.168-11.814,11.37-19.43c3.25-7.736,5.505-15.718,6.519-23.082
	c0.662-4.811,1.007-11.819-1.106-17.887c-1.957-5.616-5.932-11.688-10.9-16.658c-3.229-3.225-7.839-4.829-11.91-6.08
	c-5.596-1.715-10.441-2.471-14.815-2.313c-6.081,0.223-12.667,1.373-20.133,3.513c-8.042,2.303-15.953,5.391-23.604,8.375
	c-1.845,0.721-3.689,1.439-5.534,2.148c-9.733,3.738-21.027,8.126-31.937,12.921c-10.473,4.604-19.823,9.08-28.595,13.687
	l-2.544,1.338c-11.929,6.261-24.264,12.737-35.8,20.16c-15.573,10.022-30.2,21.041-42.452,30.496
	c-9.101,7.022-18.016,14.549-26.635,21.828c-4.962,4.19-10.095,8.523-15.193,12.701c-6.544,5.362-13.242,10.771-19.719,16.002
	c-9.415,7.603-19.148,15.464-28.614,23.345c-17.456,14.531-33.435,28.125-48.853,41.562c-4.933,4.3-9.883,8.59-14.831,12.883
	c-9.715,8.425-19.765,17.136-29.553,25.795"/>
</svg>
