<?xml version="1.0" encoding="utf-8"?>
<!-- Generator: Adobe Illustrator 16.0.4, SVG Export Plug-In . SVG Version: 6.00 Build 0)  -->
<!DOCTYPE svg PUBLIC "-//W3C//DTD SVG 1.1//EN" "http://www.w3.org/Graphics/SVG/1.1/DTD/svg11.dtd">
<svg version="1.1"
	 id="svg2" xmlns:dc="http://purl.org/dc/elements/1.1/" xmlns:cc="http://creativecommons.org/ns#" xmlns:rdf="http://www.w3.org/1999/02/22-rdf-syntax-ns#" xmlns:svg="http://www.w3.org/2000/svg" xmlns:sodipodi="http://sodipodi.sourceforge.net/DTD/sodipodi-0.dtd" xmlns:inkscape="http://www.inkscape.org/namespaces/inkscape" sodipodi:docname="Suzuka circuit map--2005.svg" inkscape:version="0.47 r22583" inkscape:export-filename="E:\Images\Maps\Race Tracks\Asia\Japan\Suzuka circuit map-2005.png" inkscape:export-ydpi="90" inkscape:export-xdpi="90"
	 xmlns="http://www.w3.org/2000/svg" xmlns:xlink="http://www.w3.org/1999/xlink" x="0px" y="0px" width="1000px" height="800px"
	 viewBox="0 0 1000 800" enable-background="new 0 0 1000 800" xml:space="preserve">
<title  id="title4362">2005 Track map for Suzuka in Japan</title>
<path id="background" fill="none" stroke="#000000" stroke-width="2" d="M262.335,763.535c-35.88,5.302-71.614,11.581-107.48,16.971
	c-25.785,3.873-51.609,7.854-77.474,10.822c-4.879,0.561-9.878,0.232-14.756-0.246c-4.305-0.422-8.729-1.041-12.789-2.46
	c-4.63-1.615-9.292-3.786-13.281-6.641c-5.521-3.95-10.745-8.675-15.249-13.773c-4.187-4.739-8.116-10.122-10.823-15.74
	c-1.557-3.233-1.967-7.206-1.967-10.821c0-4.095,0.439-8.563,1.967-12.297c1.424-3.48,4.199-6.617,6.887-9.347
	c2.642-2.685,5.775-5.161,9.1-6.887c3.151-1.636,6.79-2.67,10.331-3.197c5.805-0.866,11.801-0.771,17.709-0.982
	c23.852-0.855,47.846-0.701,71.571-2.214c3.248-0.209,6.47-1.479,9.346-2.952c3.683-1.889,7.348-4.277,10.331-7.136
	c2.839-2.719,5.079-6.191,7.133-9.592c2.702-4.472,4.156-9.795,7.133-14.019c2.106-2.991,5.038-5.648,8.116-7.625
	c3.562-2.286,7.716-4.098,11.805-5.164c3.125-0.817,6.567-0.608,9.838-0.492c3.698,0.131,7.467,0.365,11.067,1.229
	c10.748,2.579,21.232,6.441,31.974,9.099c4.508,1.114,9.206,2.302,13.773,2.214c4.123-0.078,8.427-1.205,12.297-2.705
	c4.164-1.615,8.246-3.948,11.805-6.642c2.836-2.146,5.291-4.956,7.378-7.87c5.374-7.498,9.515-15.972,15.004-23.365
	c2.544-3.428,5.674-6.602,9.099-9.099c3.543-2.586,7.708-4.521,11.806-6.149c3.526-1.404,7.311-2.416,11.068-2.952
	c4.278-0.609,8.799-1.063,13.035-0.492c3.637,0.493,7.248,2.072,10.576,3.689c2.574,1.251,5.061,2.938,7.133,4.918
	c3.584,3.429,6.686,7.438,9.839,11.314c3.979,4.896,7.503,10.17,11.56,15.003c3.651,4.353,7.084,9.208,11.562,12.544
	c4.214,3.142,9.491,5.166,14.511,6.886c3.348,1.15,7.031,1.612,10.576,1.722c4.325,0.138,8.917,0.22,13.034-0.982
	c5.721-1.668,11.268-4.588,16.479-7.623c6.757-3.938,13.403-8.312,19.43-13.281c5.697-4.702,10.884-10.164,15.741-15.741
	c3.424-3.935,6.409-8.314,9.1-12.789c3.377-5.609,6.729-11.394,9.101-17.463c1.89-4.835,2.721-10.116,3.688-15.249
	c0.998-5.276,1.814-10.63,2.216-15.983c0.42-5.634,0.629-11.346,0.244-16.972c-0.438-6.424-1.121-12.955-2.705-19.184
	c-2.021-7.952-5.289-15.621-8.115-23.364c-7.585-20.786-16.637-41.332-23.119-62.226c-0.896-2.883-0.184-6.3,0.982-9.102
	c9.325-22.367,19.52-44.893,30.498-66.405c1.156-2.264,3.654-3.918,5.902-4.918c2.178-0.968,5.026-1.735,7.379-0.983
	c11.675,3.731,23.395,7.493,35.117,11.301l15.498,5.065 M563.198,374.75c-9.493,8.401-18.893,16.883-28.104,25.519
	c-2.598,2.433-4.641,5.716-5.657,9.101c-3.247,10.799-5.692,22.186-7.133,33.449c-1.266,9.888-2.095,20.109-0.983,30.006
	c2.332,20.766,6.896,41.46,11.314,61.979c3.861,17.934,10.476,35.388,13.526,53.37c1.621,9.562,1.192,19.792,0.492,29.27
	c-0.118,1.593-1.483,3.347-2.954,3.935c-6.072,2.443-13.819,2.418-19.674,5.166c-2.181,1.024-4.332,3.794-4.427,6.148
	c-0.232,5.681,1.78,11.91,2.269,17.954c0.576,7.153,0.737,14.598-0.245,21.644c-0.572,4.104-1.545,7.977-3.253,11.807
	c-1.65,3.711-3.423,7.438-5.655,10.821c-2.853,4.323-5.928,8.677-9.594,12.297c-3.385,3.349-7.427,6.187-11.56,8.606
	c-9.147,5.366-18.598,10.447-28.284,14.757c-5.974,2.66-12.372,4.438-18.69,6.15c-5.485,1.483-11.096,2.614-16.728,3.441
	c-55.119,8.108-110.403,15.224-165.524,23.365 M564.312,383.184c33.278,10.941,66.501,22.362,98.921,34.792
	c5.231,2.005,9.206,6.744,12.79,11.066c11.173,13.469,20.072,29.436,31.479,42.302c2.037,2.299,5.922,3.153,8.854,3.197
	c2.478,0.038,5.617-1.229,7.379-2.951c1.928-1.884,3.349-5.146,3.689-7.87c0.313-2.523-0.551-5.483-1.724-7.87
	c-3.254-6.635-7.854-12.704-11.56-19.185c-5.478-9.588-10.941-19.203-15.985-29.021c-4.138-8.056-8.584-16.096-11.56-24.597
	c-2.764-7.895-4.699-16.31-5.658-24.595c-0.681-5.899-0.061-12.049,0.737-17.954c0.678-4.999,1.962-10.008,3.688-14.757
	c2.864-7.875,5.953-15.842,10.084-23.12c4.806-8.464,10.758-16.376,16.727-24.103c4.036-5.228,8.518-10.178,13.279-14.757
	c7.861-7.556,15.961-14.999,24.598-21.643c8.089-6.227,16.598-12.167,25.579-16.971c8.645-4.624,17.935-8.445,27.301-11.314
	c7.767-2.378,16.009-3.538,24.104-4.426c6.826-0.75,13.825-1.232,20.657-0.492c28.009,3.031,55.977,9.358,83.869,11.805
	c4.815,0.423,10.009-1.088,14.266-3.197c4.845-2.399,9.57-6.123,13.035-10.33c4.569-5.549,8.259-12.252,11.067-18.938
	c3.012-7.167,5.342-14.968,6.395-22.628c0.751-5.457,0.793-11.629-0.981-16.724c-1.995-5.726-6.037-11.448-10.33-15.741
	c-2.761-2.759-7.013-4.241-10.823-5.411c-4.47-1.371-9.354-2.383-14.02-2.213c-6.565,0.24-13.301,1.616-19.677,3.445
	c-9.938,2.846-19.587,6.858-29.269,10.576c-10.813,4.153-21.618,8.375-32.221,13.035c-9.729,4.277-19.366,8.83-28.774,13.773
	c-13.055,6.861-26.227,13.672-38.614,21.644c-14.746,9.49-28.896,20.019-42.794,30.744c-14.47,11.165-28.161,23.335-42.303,34.924
	c-16.272,13.333-32.777,26.385-48.944,39.844c-16.627,13.841-33.126,27.844-49.436,42.058
	c-14.965,13.042-30.069,26.007-44.943,39.167"/>
<path id="sector02" fill="none" stroke="#000000" stroke-width="2" d="M262.774,766.503c-18.764,2.772-37.812,5.865-56.233,8.856
	c-16.781,2.725-34.134,5.543-51.239,8.113l-7.07,1.062c-23.084,3.476-46.955,7.07-70.508,9.771
	c-1.954,0.226-3.912,0.314-5.852,0.314c-3.258,0-6.468-0.254-9.539-0.556c-4.128-0.404-8.958-1.031-13.486-2.613
	c-5.449-1.901-10.172-4.268-14.037-7.033c-5.66-4.049-11.106-8.969-15.751-14.227c-4.91-5.559-8.704-11.083-11.277-16.425
	c-1.523-3.164-2.264-7.131-2.264-12.124c0-5.362,0.737-9.883,2.19-13.435c1.649-4.03,4.73-7.476,7.526-10.313
	c3.064-3.114,6.472-5.688,9.855-7.444c3.223-1.672,7.12-2.883,11.271-3.502c4.589-0.686,9.268-0.793,13.793-0.897
	c1.419-0.032,2.838-0.064,4.251-0.115c9.022-0.323,18.204-0.507,27.083-0.683c14.6-0.29,29.696-0.59,44.405-1.526
	c2.337-0.15,5.009-1.011,8.168-2.63c3.801-1.947,7.129-4.24,9.624-6.631c2.664-2.551,4.824-5.972,6.641-8.978
	c1.109-1.835,2.001-3.854,2.946-5.993c1.222-2.765,2.484-5.623,4.302-8.202c2.217-3.147,5.395-6.14,8.947-8.421
	c3.786-2.43,8.284-4.398,12.668-5.542c3.307-0.865,6.676-0.739,9.936-0.616l0.767,0.028c3.778,0.134,7.806,0.385,11.661,1.311
	c5.621,1.351,11.22,3.06,16.635,4.712c5.027,1.535,10.225,3.122,15.359,4.393l0.281,0.068c4.246,1.051,8.627,2.113,12.714,2.059
	c3.311-0.063,7.208-0.93,11.271-2.503c3.809-1.479,7.64-3.636,11.078-6.237c2.281-1.724,4.551-4.154,6.75-7.225
	c2.492-3.478,4.78-7.283,6.993-10.965c2.499-4.156,5.083-8.455,8.042-12.441c2.786-3.754,6.154-7.12,9.74-9.734
	c4.204-3.067,9.128-5.187,12.466-6.514c3.729-1.485,7.793-2.569,11.752-3.134c4.216-0.603,9.158-1.131,13.861-0.495
	c4.056,0.55,7.917,2.229,11.485,3.964c2.92,1.419,5.65,3.303,7.894,5.447c3.212,3.072,6.027,6.558,8.749,9.929l1.345,1.661
	c1.876,2.309,3.663,4.712,5.39,7.036c1.972,2.652,4.011,5.395,6.141,7.932c0.8,0.953,1.588,1.93,2.379,2.908
	c2.812,3.48,5.469,6.77,8.677,9.159c3.844,2.865,8.852,4.795,13.69,6.453c2.679,0.92,5.939,1.444,9.696,1.561
	c4.513,0.143,8.537,0.177,12.102-0.864c5.67-1.652,11.175-4.636,15.812-7.336c7.479-4.356,13.704-8.609,19.03-13.003
	c4.798-3.96,9.688-8.853,15.388-15.396c2.951-3.392,5.827-7.437,8.791-12.364c3.217-5.346,6.553-11.062,8.876-17.009
	c1.549-3.964,2.375-8.44,3.173-12.771l0.361-1.942c1.113-5.892,1.823-11.011,2.171-15.652c0.489-6.558,0.565-11.813,0.244-16.543
	c-0.386-5.64-0.997-12.266-2.62-18.647c-1.458-5.737-3.65-11.495-5.77-17.062c-0.763-2.003-1.523-4.006-2.257-6.013
	c-2.763-7.572-5.775-15.253-8.69-22.682c-5.08-12.944-10.332-26.331-14.476-39.684c-1.324-4.26,0.107-8.81,1.078-11.144
	c10.078-24.169,20.372-46.581,30.597-66.615c1.739-3.405,5.354-5.406,7.355-6.296c2.473-1.098,6.129-2.181,9.512-1.1
	c9.587,3.065,22.245,7.12,35.13,11.306l15.503,5.066"/>
<path id="sector02_1_" fill="none" stroke="#000000" stroke-width="2" d="M563.383,386.038l-15.498-5.064
	c-12.869-4.181-25.518-8.232-35.1-11.296c-1.218-0.388-3.131-0.073-5.247,0.868c-2.139,0.951-3.802,2.275-4.448,3.542
	c-10.155,19.897-20.384,42.168-30.401,66.195c-1.12,2.691-1.443,5.264-0.887,7.056c4.079,13.146,9.291,26.428,14.331,39.271
	c2.927,7.461,5.954,15.177,8.741,22.815c0.724,1.981,1.477,3.958,2.229,5.937c2.18,5.726,4.433,11.646,5.977,17.718
	c1.741,6.847,2.389,13.811,2.792,19.719c0.343,5.021,0.265,10.55-0.247,17.397c-0.363,4.87-1.103,10.208-2.259,16.319l-0.355,1.918
	c-0.85,4.605-1.728,9.368-3.485,13.864c-2.494,6.386-5.973,12.354-9.323,17.918c-3.146,5.23-6.223,9.554-9.407,13.212
	c-5.922,6.8-11.035,11.91-16.095,16.086c-5.58,4.602-12.065,9.036-19.829,13.56c-4.951,2.883-10.859,6.077-17.149,7.911
	c-4.404,1.286-9.12,1.258-13.971,1.102c-4.355-0.134-8.211-0.768-11.457-1.883c-5.298-1.814-10.823-3.959-15.328-7.317
	c-3.814-2.843-6.837-6.583-9.759-10.198c-0.768-0.95-1.533-1.897-2.308-2.822c-2.243-2.672-4.335-5.486-6.359-8.209
	c-1.689-2.272-3.437-4.623-5.23-6.829l-1.357-1.678c-2.604-3.225-5.295-6.558-8.227-9.361c-1.799-1.719-4.002-3.236-6.371-4.388
	c-3.119-1.517-6.449-2.979-9.667-3.415c-3.973-0.536-8.401-0.054-12.208,0.489c-3.495,0.499-7.085,1.457-10.382,2.77
	c-3.037,1.207-7.493,3.119-11.147,5.785c-3.104,2.264-6.028,5.189-8.458,8.464c-2.786,3.752-5.292,7.923-7.717,11.957
	c-2.274,3.783-4.625,7.694-7.258,11.368c-2.55,3.561-5.245,6.426-8.007,8.515c-3.875,2.934-8.208,5.37-12.529,7.046
	c-4.779,1.854-9.262,2.831-13.325,2.907c-4.855,0.104-9.646-1.088-14.269-2.231l-0.281-0.068c-5.292-1.31-10.568-2.919-15.671-4.479
	c-5.329-1.627-10.839-3.31-16.283-4.615c-3.154-0.758-6.468-1.008-10.473-1.148l-0.779-0.028c-2.824-0.106-5.743-0.216-8.193,0.425
	c-3.79,0.989-7.676,2.689-10.943,4.786c-2.915,1.872-5.502,4.298-7.284,6.827c-1.476,2.094-2.565,4.562-3.719,7.172
	c-0.979,2.218-1.992,4.51-3.299,6.672c-2.016,3.336-4.434,7.149-7.626,10.207c-2.951,2.826-6.664,5.396-11.038,7.639
	c-3.905,2.001-7.347,3.072-10.521,3.276c-14.842,0.945-30.005,1.246-44.669,1.537c-8.855,0.177-18.012,0.357-26.987,0.681
	c-1.438,0.052-2.882,0.085-4.326,0.117c-4.34,0.102-8.829,0.205-13.047,0.834c-3.504,0.522-6.751,1.522-9.392,2.895
	c-2.83,1.469-5.715,3.656-8.344,6.328c-2.387,2.423-4.995,5.312-6.249,8.377c-1.157,2.827-1.744,6.582-1.744,11.161
	c0,4.016,0.562,7.22,1.67,9.521c2.334,4.845,5.823,9.91,10.368,15.057c4.35,4.924,9.449,9.529,14.747,13.319
	c3.399,2.434,7.613,4.534,12.523,6.247c3.931,1.374,8.319,1.938,12.093,2.309c4.57,0.445,9.443,0.789,14.121,0.25
	c23.449-2.689,47.266-6.275,70.299-9.743l7.072-1.064c17.071-2.565,34.405-5.38,51.169-8.102c18.442-2.995,37.511-6.092,56.318-8.87
	"/>
<path id="sector11" fill="none" stroke="#000000" stroke-width="2" d="M261.898,760.566c28.026-4.141,56.556-8.078,84.146-11.888
	c26.688-3.684,54.284-7.492,81.379-11.479c5.696-0.837,11.206-1.971,16.379-3.37c6.693-1.812,12.688-3.517,18.255-5.995
	c8.611-3.832,17.767-8.608,27.985-14.604c4.499-2.636,8.087-5.303,10.969-8.151c3.542-3.499,6.514-7.747,9.197-11.814
	c2.147-3.255,3.874-6.918,5.421-10.392c1.477-3.312,2.437-6.806,3.021-11.001c0.817-5.861,0.891-12.727,0.226-20.987
	c-0.188-2.328-0.637-4.796-1.07-7.181c-0.667-3.664-1.356-7.453-1.205-11.138c0.149-3.732,3.244-7.376,6.148-8.74
	c3.446-1.618,7.327-2.343,11.081-3.044c3.171-0.592,6.166-1.151,8.749-2.19c0.472-0.188,1.055-0.989,1.082-1.373
	c0.69-9.348,1.113-19.275-0.458-28.546c-1.688-9.951-4.558-19.99-7.333-29.699c-2.191-7.669-4.458-15.598-6.168-23.539l-0.603-2.796
	c-4.188-19.424-8.519-39.509-10.762-59.48c-1.211-10.787-0.18-21.583,0.989-30.721c1.457-11.395,3.892-22.812,7.235-33.934
	c1.176-3.911,3.477-7.612,6.479-10.426c8.311-7.79,17.524-16.156,28.167-25.575"/>
<path id="sector01" fill="none" stroke="#000000" stroke-width="2" d="M565.187,376.996c-10.6,9.38-19.771,17.708-28.04,25.459
	c-2.21,2.071-3.973,4.905-4.836,7.776c-3.25,10.807-5.615,21.897-7.03,32.966c-1.124,8.785-2.118,19.135-0.978,29.291
	c2.209,19.673,6.507,39.608,10.663,58.887l0.603,2.796c1.669,7.748,3.907,15.58,6.072,23.153c2.819,9.866,5.735,20.067,7.479,30.347
	c1.68,9.901,1.245,20.267,0.526,29.991c-0.199,2.685-2.276,5.479-4.832,6.499c-3.13,1.26-6.562,1.9-9.881,2.521
	c-3.539,0.659-6.881,1.283-9.632,2.575c-1.269,0.597-2.659,2.423-2.704,3.554c-0.124,3.021,0.477,6.323,1.112,9.819
	c0.461,2.53,0.937,5.146,1.148,7.772c0.711,8.824,0.627,15.91-0.264,22.299c-0.666,4.769-1.773,8.776-3.484,12.613
	c-1.648,3.707-3.505,7.637-5.892,11.253c-2.863,4.341-6.056,8.894-9.988,12.779c-3.241,3.204-7.216,6.169-12.152,9.061
	c-10.413,6.107-19.762,10.985-28.581,14.909c-5.958,2.652-12.187,4.425-19.126,6.305c-5.4,1.462-11.146,2.646-17.074,3.515
	c-27.121,3.99-54.731,7.802-81.433,11.486c-27.577,3.807-56.092,7.743-84.09,11.879"/>
<path id="sector10" fill="none" stroke="#000000" stroke-width="2" d="M565.248,380.333c39.204,12.892,70.681,23.962,99.059,34.841
	c6.028,2.312,10.463,7.658,14.024,11.954c5.249,6.328,10.038,13.247,14.669,19.938c5.276,7.623,10.732,15.505,16.747,22.289
	c1.297,1.462,4.275,2.151,6.654,2.188c0.022,0,0.045,0,0.068,0c1.674,0,3.976-0.931,5.168-2.097
	c1.352-1.321,2.533-3.885,2.811-6.098c0.202-1.622-0.336-3.932-1.438-6.176c-1.864-3.801-4.17-7.38-6.61-11.17
	c-1.635-2.538-3.325-5.163-4.861-7.848c-5.87-10.279-11.131-19.565-16.049-29.14c-0.644-1.254-1.295-2.506-1.946-3.76
	c-3.536-6.804-7.193-13.84-9.776-21.217c-2.82-8.06-4.828-16.788-5.808-25.241c-0.721-6.252-0.067-12.683,0.745-18.701
	c0.69-5.092,1.982-10.267,3.843-15.38c2.664-7.326,5.877-15.792,10.294-23.576c4.938-8.696,11.086-16.85,16.961-24.456
	c4.046-5.239,8.612-10.314,13.575-15.085c7.068-6.795,15.549-14.705,24.847-21.858c9.685-7.455,17.944-12.933,25.993-17.239
	c8.738-4.674,18.104-8.556,27.837-11.537c8.206-2.512,16.698-3.667,24.654-4.539c6.348-0.697,13.843-1.302,21.309-0.493
	c12.979,1.404,26.12,3.541,38.828,5.606c14.771,2.4,30.044,4.883,44.979,6.193c3.743,0.328,8.239-0.7,12.672-2.896
	c4.494-2.226,8.888-5.706,12.052-9.549c3.974-4.825,7.646-11.116,10.617-18.192c3.094-7.362,5.233-14.926,6.188-21.875
	c0.581-4.222,0.906-10.308-0.844-15.328c-1.695-4.866-5.201-10.19-9.618-14.607c-2.295-2.293-6.149-3.61-9.583-4.665
	c-5.015-1.538-9.284-2.221-13.028-2.083c-5.667,0.207-11.868,1.297-18.959,3.331c-7.881,2.257-15.762,5.332-23.384,8.305
	c-1.879,0.733-3.757,1.466-5.637,2.188c-9.793,3.761-21.157,8.176-32.089,12.981c-10.479,4.605-19.828,9.081-28.587,13.682
	l-2.581,1.355c-11.969,6.283-24.344,12.78-35.806,20.156c-15.587,10.031-30.272,21.095-42.584,30.596
	c-9.116,7.034-18.095,14.615-26.776,21.947c-5.043,4.259-10.26,8.663-15.457,12.922c-6.646,5.446-13.439,10.932-20.01,16.237
	c-9.52,7.688-19.362,15.638-28.917,23.592c-17.646,14.69-33.802,28.433-49.384,42.014c-5.001,4.358-10.019,8.708-15.037,13.061
	c-9.831,8.524-19.996,17.338-29.89,26.092"/>
<path id="sector00" fill="none" stroke="#000000" stroke-width="2" d="M561.208,372.503c9.916-8.773,20.094-17.597,29.936-26.131
	c5.015-4.349,10.028-8.695,15.025-13.051c15.618-13.611,31.805-27.382,49.487-42.102c9.589-7.983,19.449-15.947,28.986-23.648
	c6.561-5.299,13.346-10.778,19.976-16.21c5.164-4.232,10.362-8.622,15.39-12.866c8.731-7.374,17.763-14.998,26.981-22.112
	c12.411-9.578,27.228-20.739,43.004-30.892c11.685-7.519,24.18-14.079,36.264-20.422l2.578-1.355
	c8.884-4.667,18.356-9.201,28.965-13.864c11.051-4.857,22.492-9.303,32.352-13.089c1.869-0.718,3.737-1.446,5.606-2.176
	c7.75-3.023,15.764-6.15,23.911-8.483c7.562-2.169,14.233-3.333,20.394-3.559c4.431-0.16,9.34,0.605,15.008,2.343
	c4.124,1.267,8.796,2.891,12.064,6.158c5.034,5.035,9.06,11.186,11.042,16.875c2.142,6.147,1.792,13.247,1.121,18.12
	c-1.024,7.459-3.309,15.545-6.602,23.381c-3.241,7.715-7.116,14.337-11.517,19.683c-3.686,4.474-8.795,8.524-14.021,11.112
	c-3.13,1.551-9.354,4.069-15.858,3.497c-15.156-1.329-30.54-3.83-45.418-6.248c-12.631-2.053-25.691-4.176-38.513-5.563
	c-6.892-0.747-13.982-0.17-20.007,0.492c-7.664,0.841-15.822,1.946-23.553,4.312c-9.361,2.868-18.366,6.599-26.765,11.091
	c-7.751,4.146-15.747,9.453-25.163,16.703c-9.068,6.977-17.396,14.748-24.349,21.429c-4.75,4.566-9.119,9.421-12.985,14.427
	c-5.742,7.437-11.746,15.396-16.49,23.751c-4.188,7.379-7.292,15.568-9.873,22.664c-1.713,4.711-2.902,9.467-3.535,14.134
	c-0.761,5.629-1.375,11.612-0.729,17.208c0.929,8.019,2.833,16.3,5.511,23.948c2.439,6.972,5.997,13.813,9.437,20.432
	c0.656,1.262,1.312,2.523,1.96,3.784c4.861,9.464,10.087,18.688,15.922,28.903c1.456,2.547,3.104,5.104,4.695,7.576
	c2.427,3.768,4.936,7.662,6.952,11.774c0.952,1.938,2.479,5.759,2.006,9.562c-0.448,3.585-2.242,7.371-4.569,9.646
	c-2.306,2.255-6.136,3.807-9.367,3.807c-0.053,0-0.104,0-0.153-0.001c-1.74-0.025-7.685-0.406-11.054-4.207
	c-6.253-7.053-11.812-15.086-17.19-22.854c-4.558-6.585-9.271-13.396-14.354-19.522c-3.278-3.953-6.993-8.433-11.556-10.182
	c-28.286-10.844-59.675-21.884-98.785-34.743"/>
</svg>
